<svg id="Logo_60-60" data-name="Logo 60-60" xmlns="http://www.w3.org/2000/svg" xmlns:xlink="http://www.w3.org/1999/xlink" width="60" height="60" viewBox="0 0 60 60">
  <defs>
    <filter id="Path_18" x="31.401" y="12" width="20.58" height="35.501" filterUnits="userSpaceOnUse">
      <feOffset input="SourceAlpha"/>
      <feGaussianBlur result="blur"/>
      <feFlood flood-color="#666" flood-opacity="0.569" result="color"/>
      <feComposite operator="out" in="SourceGraphic" in2="blur"/>
      <feComposite operator="in" in="color"/>
      <feComposite operator="in" in2="SourceGraphic"/>
    </filter>
  </defs>
  <path id="Path_16" data-name="Path 16" d="M65.04,34.975a30,30,0,1,1-30-30.035,30,30,0,0,1,30,30.035Z" transform="translate(-5.04 -4.94)" fill="#0070ff"/>
  <g id="Group_261" data-name="Group 261" transform="translate(-109.545 -78.474)">
    <g data-type="innerShadowGroup">
      <path id="Path_18-2" data-name="Path 18" d="M124.759,45.675q0,1.293-.071,2.117a6.274,6.274,0,0,1-.217,1.293,1.242,1.242,0,0,1-.377.646.932.932,0,0,1-.593.181,1.943,1.943,0,0,1-.647-.127c-.237-.083-.507-.172-.807-.267s-.629-.187-.988-.27a5.255,5.255,0,0,0-1.186-.127,4.024,4.024,0,0,0-1.507.3,6.485,6.485,0,0,0-1.563.952,11.694,11.694,0,0,0-1.688,1.722,27.394,27.394,0,0,0-1.884,2.668V74.716a.981.981,0,0,1-.217.628,1.6,1.6,0,0,1-.736.451,6.481,6.481,0,0,1-1.382.267q-.863.089-2.192.089t-2.192-.089a6.481,6.481,0,0,1-1.382-.267,1.581,1.581,0,0,1-.736-.451.981.981,0,0,1-.217-.628V42.7a1.1,1.1,0,0,1,.181-.628,1.314,1.314,0,0,1,.656-.451,5.18,5.18,0,0,1,1.186-.273,15.846,15.846,0,0,1,1.848-.089,16.807,16.807,0,0,1,1.9.089,4.342,4.342,0,0,1,1.166.27,1.314,1.314,0,0,1,.593.448,1.123,1.123,0,0,1,.181.628v3.99a25.469,25.469,0,0,1,2.373-2.965,13.345,13.345,0,0,1,2.118-1.847,6.586,6.586,0,0,1,2.011-.952,7.689,7.689,0,0,1,2.011-.27q.469,0,1.006.053a9.36,9.36,0,0,1,1.115.181,6.872,6.872,0,0,1,1,.3,1.919,1.919,0,0,1,.629.341,1.065,1.065,0,0,1,.3.394,3.092,3.092,0,0,1,.163.593,8.886,8.886,0,0,1,.107,1.132Q124.759,44.382,124.759,45.675Z" transform="translate(36.767 49.825)" fill="#f9fafc"/>
      <g transform="matrix(1, 0, 0, 1, 109.55, 78.47)" filter="url(#Path_18)">
        <path id="Path_18-3" data-name="Path 18" d="M124.759,45.675q0,1.293-.071,2.117a6.274,6.274,0,0,1-.217,1.293,1.242,1.242,0,0,1-.377.646.932.932,0,0,1-.593.181,1.943,1.943,0,0,1-.647-.127c-.237-.083-.507-.172-.807-.267s-.629-.187-.988-.27a5.255,5.255,0,0,0-1.186-.127,4.024,4.024,0,0,0-1.507.3,6.485,6.485,0,0,0-1.563.952,11.694,11.694,0,0,0-1.688,1.722,27.394,27.394,0,0,0-1.884,2.668V74.716a.981.981,0,0,1-.217.628,1.6,1.6,0,0,1-.736.451,6.481,6.481,0,0,1-1.382.267q-.863.089-2.192.089t-2.192-.089a6.481,6.481,0,0,1-1.382-.267,1.581,1.581,0,0,1-.736-.451.981.981,0,0,1-.217-.628V42.7a1.1,1.1,0,0,1,.181-.628,1.314,1.314,0,0,1,.656-.451,5.18,5.18,0,0,1,1.186-.273,15.846,15.846,0,0,1,1.848-.089,16.807,16.807,0,0,1,1.9.089,4.342,4.342,0,0,1,1.166.27,1.314,1.314,0,0,1,.593.448,1.123,1.123,0,0,1,.181.628v3.99a25.469,25.469,0,0,1,2.373-2.965,13.345,13.345,0,0,1,2.118-1.847,6.586,6.586,0,0,1,2.011-.952,7.689,7.689,0,0,1,2.011-.27q.469,0,1.006.053a9.36,9.36,0,0,1,1.115.181,6.872,6.872,0,0,1,1,.3,1.919,1.919,0,0,1,.629.341,1.065,1.065,0,0,1,.3.394,3.092,3.092,0,0,1,.163.593,8.886,8.886,0,0,1,.107,1.132Q124.759,44.382,124.759,45.675Z" transform="translate(-72.78 -28.65)" fill="#fff"/>
      </g>
    </g>
    <path id="Path_20" data-name="Path 20" d="M20.58,5.025q0,1.293-.071,2.117a6.275,6.275,0,0,1-.217,1.293,1.242,1.242,0,0,1-.377.646.932.932,0,0,1-.593.181,1.944,1.944,0,0,1-.647-.127c-.237-.083-.507-.172-.807-.267s-.629-.187-.988-.27a5.255,5.255,0,0,0-1.186-.127,4.024,4.024,0,0,0-1.507.3,6.485,6.485,0,0,0-1.563.952,11.7,11.7,0,0,0-1.688,1.722,27.392,27.392,0,0,0-1.884,2.668V34.066a.981.981,0,0,1-.217.628,1.6,1.6,0,0,1-.736.451,6.482,6.482,0,0,1-1.382.267q-.863.089-2.192.089t-2.192-.089a6.481,6.481,0,0,1-1.382-.267,1.581,1.581,0,0,1-.736-.451A.981.981,0,0,1,0,34.066V2.049A1.1,1.1,0,0,1,.181,1.42,1.314,1.314,0,0,1,.837.969,5.178,5.178,0,0,1,2.023.7,15.843,15.843,0,0,1,3.871.608,16.8,16.8,0,0,1,5.775.7a4.342,4.342,0,0,1,1.166.27,1.314,1.314,0,0,1,.593.448,1.123,1.123,0,0,1,.181.628v3.99a25.466,25.466,0,0,1,2.373-2.965,13.345,13.345,0,0,1,2.118-1.847A6.587,6.587,0,0,1,14.217.27,7.689,7.689,0,0,1,16.228,0q.469,0,1.006.053a9.361,9.361,0,0,1,1.115.181,6.873,6.873,0,0,1,1,.3,1.92,1.92,0,0,1,.629.341,1.064,1.064,0,0,1,.3.394,3.093,3.093,0,0,1,.163.593,8.889,8.889,0,0,1,.107,1.132Q20.58,3.732,20.58,5.025Z" transform="translate(139.125 125.975) rotate(180)" fill="#f9fafc"/>
  </g>
</svg>
