<?xml version="1.0" encoding="utf-8"?>
<!-- Generator: Adobe Illustrator 25.0.0, SVG Export Plug-In . SVG Version: 6.00 Build 0)  -->
<svg version="1.1" id="Layer_1" xmlns="http://www.w3.org/2000/svg" xmlns:xlink="http://www.w3.org/1999/xlink" x="0px" y="0px"
	 viewBox="0 0 372.49 189.14" style="enable-background:new 0 0 372.49 189.14;" xml:space="preserve">
<style type="text/css">
	.st0{fill:#4272B8;}
</style>
<g>
	<g>
		<rect x="190.63" y="18.71" class="st0" width="3.49" height="149.18"/>
		<path class="st0" d="M217.66,49.9c0,0.6-0.02,1.09-0.05,1.47c-0.03,0.38-0.08,0.68-0.15,0.9c-0.07,0.22-0.15,0.37-0.26,0.45
			c-0.11,0.08-0.25,0.12-0.41,0.12c-0.13,0-0.28-0.03-0.45-0.09c-0.17-0.06-0.35-0.12-0.56-0.19c-0.21-0.07-0.44-0.13-0.69-0.19
			c-0.25-0.06-0.52-0.09-0.82-0.09c-0.35,0-0.7,0.07-1.05,0.21c-0.35,0.14-0.71,0.36-1.09,0.66c-0.37,0.3-0.77,0.7-1.17,1.2
			c-0.41,0.5-0.84,1.12-1.31,1.85V70.1c0,0.17-0.05,0.31-0.15,0.44c-0.1,0.12-0.27,0.23-0.51,0.31c-0.24,0.08-0.56,0.15-0.96,0.19
			c-0.4,0.04-0.91,0.06-1.52,0.06c-0.62,0-1.12-0.02-1.52-0.06c-0.4-0.04-0.72-0.1-0.96-0.19c-0.24-0.08-0.41-0.19-0.51-0.31
			c-0.1-0.12-0.15-0.27-0.15-0.44V47.83c0-0.17,0.04-0.31,0.12-0.44c0.08-0.12,0.23-0.23,0.45-0.31c0.22-0.08,0.49-0.15,0.84-0.19
			c0.34-0.04,0.77-0.06,1.29-0.06c0.53,0,0.97,0.02,1.32,0.06c0.35,0.04,0.62,0.1,0.81,0.19c0.19,0.08,0.33,0.19,0.41,0.31
			c0.08,0.12,0.12,0.27,0.12,0.44v2.77c0.58-0.83,1.13-1.52,1.65-2.06c0.52-0.54,1.01-0.97,1.47-1.29c0.47-0.32,0.93-0.54,1.4-0.66
			c0.47-0.12,0.93-0.19,1.4-0.19c0.22,0,0.45,0.01,0.7,0.04c0.25,0.02,0.51,0.07,0.77,0.12c0.27,0.06,0.5,0.12,0.7,0.2
			c0.2,0.07,0.35,0.15,0.44,0.24c0.09,0.08,0.16,0.17,0.2,0.27c0.04,0.1,0.08,0.24,0.11,0.41c0.03,0.17,0.06,0.44,0.07,0.79
			C217.66,48.83,217.66,49.3,217.66,49.9z"/>
		<path class="st0" d="M240.72,58.32c0,0.77-0.17,1.33-0.51,1.7c-0.34,0.37-0.81,0.55-1.41,0.55h-13.56c0,0.95,0.11,1.81,0.34,2.58
			c0.22,0.77,0.58,1.43,1.07,1.97c0.49,0.54,1.12,0.95,1.9,1.24c0.77,0.28,1.7,0.42,2.78,0.42c1.1,0,2.06-0.08,2.9-0.24
			c0.83-0.16,1.55-0.33,2.16-0.52c0.61-0.19,1.11-0.37,1.51-0.52c0.4-0.16,0.72-0.24,0.97-0.24c0.15,0,0.27,0.03,0.37,0.09
			c0.1,0.06,0.18,0.16,0.25,0.31c0.07,0.15,0.11,0.36,0.14,0.64c0.02,0.27,0.04,0.62,0.04,1.04c0,0.37-0.01,0.68-0.03,0.94
			c-0.02,0.26-0.04,0.48-0.07,0.66c-0.03,0.18-0.08,0.34-0.15,0.46c-0.07,0.12-0.15,0.25-0.26,0.36c-0.11,0.12-0.4,0.27-0.89,0.47
			c-0.48,0.2-1.1,0.4-1.85,0.59c-0.75,0.19-1.61,0.36-2.57,0.5c-0.97,0.14-2,0.21-3.1,0.21c-1.98,0-3.72-0.25-5.21-0.75
			c-1.49-0.5-2.73-1.26-3.73-2.27c-1-1.02-1.74-2.3-2.23-3.85c-0.49-1.55-0.74-3.36-0.74-5.44c0-1.98,0.26-3.77,0.77-5.36
			c0.52-1.59,1.26-2.94,2.25-4.05c0.98-1.11,2.18-1.95,3.58-2.53c1.41-0.58,2.99-0.87,4.76-0.87c1.86,0,3.46,0.27,4.78,0.82
			c1.32,0.55,2.41,1.31,3.26,2.28c0.85,0.97,1.47,2.13,1.87,3.46c0.4,1.33,0.6,2.78,0.6,4.34V58.32z M234.62,56.52
			c0.05-1.76-0.3-3.15-1.06-4.16c-0.76-1.01-1.93-1.51-3.51-1.51c-0.8,0-1.49,0.15-2.08,0.45c-0.59,0.3-1.08,0.7-1.47,1.21
			c-0.39,0.51-0.69,1.11-0.9,1.8c-0.21,0.69-0.33,1.43-0.36,2.21H234.62z"/>
		<path class="st0" d="M260.75,63.81c0,1.27-0.24,2.38-0.71,3.35c-0.47,0.97-1.14,1.77-2.01,2.42c-0.87,0.65-1.89,1.14-3.07,1.46
			c-1.18,0.32-2.46,0.49-3.85,0.49c-0.83,0-1.63-0.06-2.38-0.19c-0.76-0.12-1.44-0.28-2.04-0.47c-0.6-0.19-1.1-0.39-1.5-0.59
			c-0.4-0.2-0.69-0.39-0.87-0.56c-0.18-0.17-0.32-0.45-0.42-0.82c-0.1-0.37-0.15-0.93-0.15-1.66c0-0.48,0.02-0.87,0.05-1.16
			c0.03-0.29,0.08-0.52,0.15-0.7c0.07-0.17,0.15-0.29,0.25-0.35c0.1-0.06,0.22-0.09,0.37-0.09c0.18,0,0.45,0.1,0.81,0.31
			c0.36,0.21,0.8,0.44,1.34,0.69c0.53,0.25,1.15,0.48,1.86,0.7c0.71,0.22,1.51,0.32,2.41,0.32c0.57,0,1.07-0.06,1.51-0.17
			c0.44-0.12,0.82-0.28,1.15-0.5c0.32-0.22,0.57-0.49,0.74-0.82c0.17-0.33,0.25-0.72,0.25-1.15c0-0.5-0.15-0.93-0.46-1.29
			c-0.31-0.36-0.72-0.67-1.22-0.94c-0.51-0.27-1.08-0.52-1.72-0.75c-0.64-0.23-1.3-0.49-1.97-0.77c-0.67-0.28-1.33-0.61-1.97-0.97
			c-0.64-0.37-1.22-0.82-1.72-1.35c-0.51-0.53-0.92-1.17-1.22-1.92c-0.31-0.75-0.46-1.65-0.46-2.7c0-1.07,0.21-2.04,0.62-2.93
			c0.42-0.89,1.02-1.65,1.8-2.28c0.78-0.63,1.74-1.12,2.86-1.47c1.12-0.35,2.38-0.52,3.78-0.52c0.7,0,1.38,0.05,2.04,0.15
			c0.66,0.1,1.25,0.22,1.79,0.37c0.53,0.15,0.98,0.31,1.35,0.49c0.37,0.17,0.63,0.32,0.79,0.45c0.16,0.12,0.27,0.25,0.34,0.37
			c0.07,0.12,0.12,0.27,0.15,0.45c0.03,0.17,0.06,0.39,0.09,0.65c0.02,0.26,0.04,0.58,0.04,0.96c0,0.45-0.01,0.82-0.04,1.1
			c-0.02,0.28-0.07,0.51-0.12,0.67c-0.06,0.17-0.14,0.28-0.24,0.34c-0.1,0.06-0.22,0.09-0.35,0.09c-0.15,0-0.38-0.09-0.7-0.26
			c-0.32-0.17-0.71-0.36-1.19-0.56c-0.47-0.2-1.02-0.39-1.65-0.56c-0.62-0.17-1.34-0.26-2.13-0.26c-0.57,0-1.06,0.06-1.47,0.17
			c-0.42,0.12-0.76,0.28-1.02,0.5c-0.27,0.22-0.47,0.47-0.6,0.76c-0.13,0.29-0.2,0.6-0.2,0.94c0,0.52,0.16,0.95,0.47,1.3
			c0.32,0.35,0.73,0.66,1.25,0.92c0.52,0.27,1.1,0.52,1.76,0.75c0.66,0.23,1.32,0.49,2,0.76c0.67,0.27,1.34,0.6,2,0.96
			c0.66,0.37,1.24,0.82,1.76,1.35c0.52,0.53,0.93,1.17,1.25,1.91C260.59,61.92,260.75,62.79,260.75,63.81z"/>
		<path class="st0" d="M285.22,58.32c0,0.77-0.17,1.33-0.51,1.7c-0.34,0.37-0.81,0.55-1.41,0.55h-13.56c0,0.95,0.11,1.81,0.34,2.58
			c0.22,0.77,0.58,1.43,1.07,1.97c0.49,0.54,1.12,0.95,1.9,1.24c0.77,0.28,1.7,0.42,2.78,0.42c1.1,0,2.06-0.08,2.9-0.24
			c0.83-0.16,1.55-0.33,2.16-0.52c0.61-0.19,1.11-0.37,1.51-0.52c0.4-0.16,0.72-0.24,0.97-0.24c0.15,0,0.27,0.03,0.37,0.09
			c0.1,0.06,0.18,0.16,0.25,0.31c0.07,0.15,0.11,0.36,0.14,0.64c0.02,0.27,0.04,0.62,0.04,1.04c0,0.37-0.01,0.68-0.02,0.94
			c-0.02,0.26-0.04,0.48-0.07,0.66c-0.03,0.18-0.08,0.34-0.15,0.46c-0.07,0.12-0.15,0.25-0.26,0.36c-0.11,0.12-0.4,0.27-0.89,0.47
			c-0.48,0.2-1.1,0.4-1.85,0.59c-0.75,0.19-1.61,0.36-2.57,0.5c-0.97,0.14-2,0.21-3.1,0.21c-1.98,0-3.72-0.25-5.21-0.75
			c-1.49-0.5-2.73-1.26-3.73-2.27c-1-1.02-1.74-2.3-2.23-3.85c-0.49-1.55-0.74-3.36-0.74-5.44c0-1.98,0.26-3.77,0.77-5.36
			c0.52-1.59,1.27-2.94,2.25-4.05c0.98-1.11,2.18-1.95,3.58-2.53c1.41-0.58,2.99-0.87,4.76-0.87c1.86,0,3.46,0.27,4.78,0.82
			c1.32,0.55,2.41,1.31,3.26,2.28c0.85,0.97,1.47,2.13,1.87,3.46c0.4,1.33,0.6,2.78,0.6,4.34V58.32z M279.13,56.52
			c0.05-1.76-0.3-3.15-1.06-4.16c-0.76-1.01-1.93-1.51-3.51-1.51c-0.8,0-1.49,0.15-2.08,0.45c-0.59,0.3-1.08,0.7-1.47,1.21
			c-0.39,0.51-0.69,1.11-0.9,1.8c-0.21,0.69-0.33,1.43-0.36,2.21H279.13z"/>
		<path class="st0" d="M308.55,70.18c0,0.23-0.08,0.42-0.25,0.55c-0.17,0.13-0.43,0.23-0.79,0.29c-0.36,0.06-0.89,0.09-1.59,0.09
			c-0.75,0-1.29-0.03-1.64-0.09c-0.34-0.06-0.58-0.15-0.72-0.29c-0.14-0.13-0.21-0.32-0.21-0.55V68.4c-0.92,0.98-1.96,1.75-3.13,2.3
			c-1.17,0.55-2.48,0.82-3.91,0.82c-1.18,0-2.27-0.15-3.26-0.46c-0.99-0.31-1.85-0.77-2.57-1.37c-0.72-0.61-1.29-1.36-1.69-2.26
			c-0.4-0.9-0.6-1.95-0.6-3.15c0-1.3,0.25-2.43,0.76-3.38c0.51-0.96,1.26-1.75,2.27-2.37c1.01-0.62,2.26-1.09,3.76-1.39
			c1.5-0.3,3.24-0.45,5.22-0.45h2.17v-1.35c0-0.7-0.07-1.31-0.21-1.84c-0.14-0.52-0.37-0.96-0.7-1.31c-0.32-0.35-0.76-0.61-1.3-0.77
			c-0.54-0.17-1.21-0.25-2.01-0.25c-1.05,0-1.99,0.12-2.81,0.35c-0.82,0.23-1.55,0.49-2.18,0.77c-0.63,0.28-1.16,0.54-1.59,0.77
			c-0.42,0.23-0.77,0.35-1.04,0.35c-0.18,0-0.35-0.06-0.49-0.17c-0.14-0.12-0.26-0.28-0.35-0.5c-0.09-0.22-0.16-0.48-0.21-0.8
			c-0.05-0.32-0.07-0.67-0.07-1.05c0-0.52,0.04-0.92,0.12-1.22c0.08-0.3,0.24-0.57,0.47-0.81c0.23-0.24,0.64-0.51,1.22-0.8
			c0.58-0.29,1.26-0.56,2.05-0.81c0.78-0.25,1.64-0.45,2.56-0.61c0.92-0.16,1.88-0.24,2.86-0.24c1.75,0,3.24,0.17,4.48,0.51
			c1.24,0.34,2.26,0.87,3.06,1.57c0.8,0.71,1.38,1.62,1.75,2.73c0.37,1.12,0.55,2.44,0.55,3.97V70.18z M302.38,60.64h-2.4
			c-1.02,0-1.88,0.07-2.6,0.22c-0.72,0.15-1.3,0.37-1.75,0.67c-0.45,0.3-0.78,0.66-0.99,1.09c-0.21,0.42-0.31,0.91-0.31,1.46
			c0,0.93,0.3,1.66,0.89,2.2c0.59,0.53,1.41,0.8,2.46,0.8c0.88,0,1.69-0.22,2.43-0.67c0.74-0.45,1.49-1.11,2.26-1.97V60.64z"/>
		<path class="st0" d="M328.31,49.9c0,0.6-0.02,1.09-0.05,1.47c-0.03,0.38-0.08,0.68-0.15,0.9c-0.07,0.22-0.15,0.37-0.26,0.45
			c-0.11,0.08-0.25,0.12-0.41,0.12c-0.13,0-0.28-0.03-0.45-0.09c-0.17-0.06-0.35-0.12-0.56-0.19c-0.21-0.07-0.44-0.13-0.69-0.19
			c-0.25-0.06-0.52-0.09-0.82-0.09c-0.35,0-0.7,0.07-1.05,0.21c-0.35,0.14-0.71,0.36-1.09,0.66c-0.37,0.3-0.77,0.7-1.17,1.2
			c-0.41,0.5-0.84,1.12-1.31,1.85V70.1c0,0.17-0.05,0.31-0.15,0.44c-0.1,0.12-0.27,0.23-0.51,0.31c-0.24,0.08-0.56,0.15-0.96,0.19
			c-0.4,0.04-0.91,0.06-1.52,0.06c-0.62,0-1.12-0.02-1.52-0.06c-0.4-0.04-0.72-0.1-0.96-0.19c-0.24-0.08-0.41-0.19-0.51-0.31
			c-0.1-0.12-0.15-0.27-0.15-0.44V47.83c0-0.17,0.04-0.31,0.12-0.44c0.08-0.12,0.23-0.23,0.45-0.31c0.22-0.08,0.49-0.15,0.84-0.19
			c0.34-0.04,0.77-0.06,1.29-0.06c0.53,0,0.97,0.02,1.32,0.06c0.35,0.04,0.62,0.1,0.81,0.19c0.19,0.08,0.33,0.19,0.41,0.31
			c0.08,0.12,0.12,0.27,0.12,0.44v2.77c0.58-0.83,1.13-1.52,1.65-2.06c0.52-0.54,1.01-0.97,1.47-1.29c0.47-0.32,0.93-0.54,1.4-0.66
			c0.47-0.12,0.93-0.19,1.4-0.19c0.22,0,0.45,0.01,0.7,0.04c0.25,0.02,0.51,0.07,0.77,0.12c0.27,0.06,0.5,0.12,0.7,0.2
			c0.2,0.07,0.35,0.15,0.44,0.24c0.09,0.08,0.16,0.17,0.2,0.27c0.04,0.1,0.08,0.24,0.11,0.41c0.03,0.17,0.06,0.44,0.07,0.79
			C328.3,48.83,328.31,49.3,328.31,49.9z"/>
		<path class="st0" d="M347.49,66.56c0,0.43-0.01,0.8-0.04,1.09c-0.03,0.29-0.06,0.54-0.1,0.74c-0.04,0.2-0.09,0.36-0.15,0.49
			c-0.06,0.12-0.19,0.28-0.39,0.47c-0.2,0.19-0.54,0.42-1.02,0.7c-0.48,0.27-1.03,0.52-1.65,0.74c-0.62,0.22-1.29,0.39-2.01,0.52
			c-0.72,0.13-1.47,0.2-2.23,0.2c-1.71,0-3.23-0.27-4.56-0.8c-1.32-0.53-2.43-1.32-3.33-2.36c-0.9-1.04-1.58-2.31-2.04-3.81
			c-0.46-1.5-0.69-3.21-0.69-5.14c0-2.23,0.28-4.16,0.84-5.78c0.56-1.62,1.34-2.97,2.33-4.03c1-1.07,2.18-1.86,3.55-2.37
			c1.36-0.52,2.86-0.77,4.49-0.77c0.67,0,1.32,0.06,1.96,0.17c0.64,0.12,1.24,0.27,1.8,0.47c0.56,0.2,1.06,0.42,1.5,0.67
			c0.44,0.25,0.75,0.47,0.94,0.65c0.18,0.18,0.31,0.34,0.39,0.46c0.07,0.12,0.13,0.29,0.17,0.49c0.04,0.2,0.07,0.45,0.1,0.74
			c0.02,0.29,0.04,0.65,0.04,1.06c0,0.97-0.08,1.64-0.25,2.03c-0.17,0.39-0.38,0.59-0.65,0.59c-0.28,0-0.58-0.12-0.9-0.35
			c-0.32-0.23-0.69-0.49-1.12-0.77c-0.43-0.28-0.95-0.54-1.55-0.77c-0.6-0.23-1.32-0.35-2.15-0.35c-1.63,0-2.88,0.63-3.75,1.89
			c-0.87,1.26-1.3,3.1-1.3,5.53c0,1.2,0.11,2.26,0.32,3.17c0.22,0.92,0.54,1.68,0.96,2.3c0.42,0.62,0.96,1.08,1.6,1.39
			c0.64,0.31,1.39,0.46,2.23,0.46c0.87,0,1.61-0.13,2.23-0.39c0.62-0.26,1.17-0.55,1.64-0.86c0.47-0.32,0.86-0.6,1.17-0.86
			c0.32-0.26,0.58-0.39,0.8-0.39c0.15,0,0.27,0.04,0.37,0.12c0.1,0.08,0.18,0.24,0.24,0.46c0.06,0.22,0.1,0.51,0.14,0.86
			C347.47,65.56,347.49,66.01,347.49,66.56z"/>
		<path class="st0" d="M372.49,70.1c0,0.17-0.05,0.31-0.15,0.44c-0.1,0.12-0.27,0.23-0.5,0.31c-0.23,0.08-0.55,0.15-0.96,0.19
			c-0.41,0.04-0.91,0.06-1.51,0.06c-0.62,0-1.13-0.02-1.54-0.06c-0.41-0.04-0.73-0.1-0.96-0.19c-0.23-0.08-0.4-0.19-0.5-0.31
			c-0.1-0.12-0.15-0.27-0.15-0.44V57.39c0-1.08-0.08-1.93-0.24-2.55c-0.16-0.62-0.39-1.14-0.69-1.59c-0.3-0.44-0.69-0.78-1.16-1.02
			c-0.47-0.24-1.03-0.36-1.66-0.36c-0.8,0-1.61,0.29-2.42,0.87c-0.82,0.58-1.66,1.43-2.55,2.55V70.1c0,0.17-0.05,0.31-0.15,0.44
			c-0.1,0.12-0.27,0.23-0.51,0.31c-0.24,0.08-0.56,0.15-0.96,0.19c-0.4,0.04-0.91,0.06-1.52,0.06c-0.62,0-1.12-0.02-1.52-0.06
			c-0.4-0.04-0.72-0.1-0.96-0.19c-0.24-0.08-0.41-0.19-0.51-0.31c-0.1-0.12-0.15-0.27-0.15-0.44V37.27c0-0.17,0.05-0.32,0.15-0.45
			c0.1-0.13,0.27-0.25,0.51-0.34c0.24-0.09,0.56-0.16,0.96-0.21c0.4-0.05,0.91-0.07,1.52-0.07c0.62,0,1.12,0.02,1.52,0.07
			c0.4,0.05,0.72,0.12,0.96,0.21c0.24,0.09,0.41,0.2,0.51,0.34c0.1,0.13,0.15,0.28,0.15,0.45v12.31c1.08-1.07,2.18-1.86,3.31-2.38
			c1.12-0.52,2.29-0.79,3.51-0.79c1.51,0,2.79,0.25,3.83,0.75c1.04,0.5,1.88,1.18,2.52,2.05c0.64,0.87,1.1,1.88,1.39,3.03
			c0.28,1.16,0.42,2.56,0.42,4.21V70.1z"/>
		<path class="st0" d="M217.66,107.43c0,0.6-0.02,1.09-0.05,1.47c-0.03,0.38-0.08,0.68-0.15,0.9c-0.07,0.22-0.15,0.37-0.26,0.45
			c-0.11,0.08-0.25,0.12-0.41,0.12c-0.13,0-0.28-0.03-0.45-0.09c-0.17-0.06-0.35-0.12-0.56-0.19c-0.21-0.07-0.44-0.13-0.69-0.19
			c-0.25-0.06-0.52-0.09-0.82-0.09c-0.35,0-0.7,0.07-1.05,0.21c-0.35,0.14-0.71,0.36-1.09,0.66c-0.37,0.3-0.77,0.7-1.17,1.2
			c-0.41,0.5-0.84,1.12-1.31,1.85v13.88c0,0.17-0.05,0.31-0.15,0.44c-0.1,0.12-0.27,0.23-0.51,0.31c-0.24,0.08-0.56,0.15-0.96,0.19
			c-0.4,0.04-0.91,0.06-1.52,0.06c-0.62,0-1.12-0.02-1.52-0.06c-0.4-0.04-0.72-0.1-0.96-0.19c-0.24-0.08-0.41-0.19-0.51-0.31
			c-0.1-0.12-0.15-0.27-0.15-0.44v-22.27c0-0.17,0.04-0.31,0.12-0.44c0.08-0.12,0.23-0.23,0.45-0.31c0.22-0.08,0.49-0.15,0.84-0.19
			c0.34-0.04,0.77-0.06,1.29-0.06c0.53,0,0.97,0.02,1.32,0.06c0.35,0.04,0.62,0.1,0.81,0.19c0.19,0.08,0.33,0.19,0.41,0.31
			c0.08,0.12,0.12,0.27,0.12,0.44v2.77c0.58-0.83,1.13-1.52,1.65-2.06c0.52-0.54,1.01-0.97,1.47-1.29c0.47-0.32,0.93-0.54,1.4-0.66
			c0.47-0.12,0.93-0.19,1.4-0.19c0.22,0,0.45,0.01,0.7,0.04c0.25,0.02,0.51,0.07,0.77,0.12c0.27,0.06,0.5,0.12,0.7,0.2
			c0.2,0.07,0.35,0.15,0.44,0.24c0.09,0.08,0.16,0.17,0.2,0.27c0.04,0.1,0.08,0.24,0.11,0.41c0.03,0.17,0.06,0.44,0.07,0.79
			C217.66,106.36,217.66,106.83,217.66,107.43z"/>
		<path class="st0" d="M227.48,97.82c0,1.27-0.26,2.14-0.77,2.62c-0.52,0.48-1.47,0.72-2.87,0.72c-1.42,0-2.37-0.23-2.86-0.7
			c-0.49-0.47-0.74-1.31-0.74-2.52c0-1.26,0.25-2.14,0.76-2.63c0.51-0.49,1.47-0.74,2.88-0.74c1.4,0,2.35,0.24,2.85,0.71
			C227.23,95.76,227.48,96.6,227.48,97.82z M227.01,127.63c0,0.17-0.05,0.31-0.15,0.44c-0.1,0.12-0.27,0.23-0.51,0.31
			c-0.24,0.08-0.56,0.15-0.96,0.19c-0.4,0.04-0.91,0.06-1.52,0.06c-0.62,0-1.12-0.02-1.52-0.06c-0.4-0.04-0.72-0.1-0.96-0.19
			c-0.24-0.08-0.41-0.19-0.51-0.31c-0.1-0.12-0.15-0.27-0.15-0.44v-22.22c0-0.17,0.05-0.31,0.15-0.44c0.1-0.12,0.27-0.23,0.51-0.32
			c0.24-0.09,0.56-0.16,0.96-0.21c0.4-0.05,0.91-0.07,1.52-0.07c0.62,0,1.12,0.03,1.52,0.07c0.4,0.05,0.72,0.12,0.96,0.21
			c0.24,0.09,0.41,0.2,0.51,0.32c0.1,0.12,0.15,0.27,0.15,0.44V127.63z"/>
		<path class="st0" d="M253.58,127.63c0,0.18-0.04,0.34-0.12,0.46c-0.08,0.12-0.22,0.23-0.42,0.31c-0.2,0.08-0.47,0.14-0.81,0.17
			c-0.34,0.03-0.76,0.05-1.26,0.05c-0.53,0-0.97-0.02-1.3-0.05c-0.33-0.03-0.6-0.09-0.81-0.17c-0.21-0.08-0.36-0.19-0.45-0.31
			c-0.09-0.12-0.14-0.28-0.14-0.46v-2.47c-1.15,1.23-2.35,2.19-3.61,2.87c-1.26,0.68-2.65,1.02-4.18,1.02
			c-1.7,0-3.13-0.33-4.31-0.99c-1.17-0.66-2.13-1.54-2.87-2.66c-0.74-1.11-1.28-2.42-1.61-3.91c-0.33-1.49-0.5-3.06-0.5-4.71
			c0-1.98,0.21-3.76,0.64-5.34c0.42-1.58,1.04-2.93,1.86-4.04c0.82-1.11,1.83-1.97,3.05-2.57c1.21-0.6,2.61-0.9,4.19-0.9
			c1.25,0,2.38,0.25,3.4,0.76c1.02,0.51,2.02,1.25,3.02,2.23V94.87c0-0.17,0.05-0.32,0.14-0.45c0.09-0.13,0.26-0.25,0.5-0.34
			c0.24-0.09,0.56-0.16,0.96-0.21c0.4-0.05,0.91-0.07,1.52-0.07c0.62,0,1.12,0.03,1.52,0.07c0.4,0.05,0.72,0.12,0.95,0.21
			c0.23,0.09,0.4,0.2,0.5,0.34c0.1,0.13,0.15,0.28,0.15,0.45V127.63z M247.34,112.75c-0.9-1.13-1.76-2-2.58-2.6
			c-0.82-0.6-1.69-0.9-2.58-0.9c-0.82,0-1.52,0.2-2.11,0.61c-0.59,0.41-1.07,0.95-1.42,1.64c-0.36,0.68-0.62,1.44-0.8,2.28
			c-0.17,0.84-0.26,1.7-0.26,2.58c0,0.93,0.07,1.84,0.22,2.72c0.15,0.88,0.4,1.67,0.74,2.36c0.34,0.69,0.79,1.24,1.36,1.66
			c0.57,0.42,1.28,0.62,2.15,0.62c0.43,0,0.85-0.06,1.26-0.19c0.41-0.12,0.82-0.33,1.25-0.61c0.42-0.28,0.86-0.65,1.31-1.11
			c0.45-0.46,0.94-1.02,1.47-1.69V112.75z"/>
		<path class="st0" d="M279.66,115.85c0,0.77-0.17,1.33-0.51,1.7c-0.34,0.37-0.81,0.55-1.41,0.55h-13.56c0,0.95,0.11,1.81,0.34,2.58
			c0.22,0.77,0.58,1.43,1.07,1.97c0.49,0.54,1.12,0.95,1.9,1.24c0.77,0.28,1.7,0.42,2.78,0.42c1.1,0,2.06-0.08,2.9-0.24
			c0.83-0.16,1.55-0.33,2.16-0.52c0.61-0.19,1.11-0.37,1.51-0.52c0.4-0.16,0.72-0.24,0.97-0.24c0.15,0,0.27,0.03,0.37,0.09
			c0.1,0.06,0.18,0.16,0.25,0.31c0.07,0.15,0.11,0.36,0.14,0.64c0.03,0.27,0.04,0.62,0.04,1.04c0,0.37-0.01,0.68-0.02,0.94
			c-0.02,0.26-0.04,0.48-0.07,0.66c-0.03,0.18-0.08,0.34-0.15,0.46c-0.07,0.12-0.15,0.25-0.26,0.36c-0.11,0.12-0.4,0.27-0.89,0.47
			c-0.48,0.2-1.1,0.4-1.85,0.59c-0.75,0.19-1.61,0.36-2.57,0.5c-0.97,0.14-2,0.21-3.1,0.21c-1.98,0-3.72-0.25-5.21-0.75
			c-1.49-0.5-2.73-1.26-3.73-2.27c-1-1.02-1.74-2.3-2.23-3.85c-0.49-1.55-0.74-3.36-0.74-5.44c0-1.98,0.26-3.77,0.77-5.36
			c0.52-1.59,1.26-2.94,2.25-4.04c0.98-1.11,2.18-1.95,3.58-2.53c1.41-0.58,2.99-0.87,4.76-0.87c1.86,0,3.46,0.27,4.78,0.82
			c1.32,0.55,2.41,1.31,3.26,2.28s1.47,2.13,1.87,3.46c0.4,1.33,0.6,2.78,0.6,4.34V115.85z M273.56,114.05
			c0.05-1.76-0.3-3.15-1.06-4.16c-0.76-1.01-1.93-1.51-3.51-1.51c-0.8,0-1.49,0.15-2.08,0.45c-0.59,0.3-1.08,0.7-1.47,1.21
			c-0.39,0.51-0.69,1.11-0.9,1.8c-0.21,0.69-0.33,1.43-0.36,2.21H273.56z"/>
		<path class="st0" d="M298.31,107.43c0,0.6-0.02,1.09-0.05,1.47c-0.03,0.38-0.08,0.68-0.15,0.9c-0.07,0.22-0.15,0.37-0.26,0.45
			c-0.11,0.08-0.25,0.12-0.41,0.12c-0.13,0-0.28-0.03-0.45-0.09c-0.17-0.06-0.35-0.12-0.56-0.19c-0.21-0.07-0.44-0.13-0.69-0.19
			c-0.25-0.06-0.52-0.09-0.82-0.09c-0.35,0-0.7,0.07-1.05,0.21c-0.35,0.14-0.71,0.36-1.09,0.66c-0.37,0.3-0.77,0.7-1.17,1.2
			c-0.41,0.5-0.84,1.12-1.31,1.85v13.88c0,0.17-0.05,0.31-0.15,0.44c-0.1,0.12-0.27,0.23-0.51,0.31c-0.24,0.08-0.56,0.15-0.96,0.19
			c-0.4,0.04-0.91,0.06-1.52,0.06c-0.62,0-1.12-0.02-1.52-0.06c-0.4-0.04-0.72-0.1-0.96-0.19c-0.24-0.08-0.41-0.19-0.51-0.31
			c-0.1-0.12-0.15-0.27-0.15-0.44v-22.27c0-0.17,0.04-0.31,0.12-0.44c0.08-0.12,0.23-0.23,0.45-0.31c0.22-0.08,0.49-0.15,0.84-0.19
			c0.34-0.04,0.77-0.06,1.29-0.06c0.53,0,0.97,0.02,1.32,0.06c0.35,0.04,0.62,0.1,0.81,0.19c0.19,0.08,0.33,0.19,0.41,0.31
			c0.08,0.12,0.12,0.27,0.12,0.44v2.77c0.58-0.83,1.13-1.52,1.65-2.06c0.52-0.54,1.01-0.97,1.47-1.29c0.47-0.32,0.93-0.54,1.4-0.66
			c0.47-0.12,0.93-0.19,1.4-0.19c0.22,0,0.45,0.01,0.7,0.04c0.25,0.02,0.51,0.07,0.77,0.12c0.27,0.06,0.5,0.12,0.7,0.2
			c0.2,0.07,0.35,0.15,0.44,0.24c0.09,0.08,0.16,0.17,0.2,0.27c0.04,0.1,0.08,0.24,0.11,0.41c0.03,0.17,0.06,0.44,0.07,0.79
			C298.31,106.36,298.31,106.83,298.31,107.43z"/>
	</g>
	<path class="st0" d="M91.68,0C41.05,0,0,42.34,0,94.57c0,52.23,41.05,94.57,91.68,94.57c50.64,0,91.68-42.34,91.68-94.57
		C183.37,42.34,142.32,0,91.68,0z M89.02,143.05c0,0.76-0.19,1.43-0.57,2c-0.38,0.57-1.06,1.04-2.05,1.43
		c-0.99,0.38-2.26,0.67-3.82,0.86c-1.56,0.19-3.52,0.29-5.87,0.29c-2.43,0-4.45-0.1-6.04-0.29c-1.6-0.19-2.83-0.48-3.71-0.86
		c-0.87-0.38-1.5-0.86-1.88-1.43c-0.38-0.57-0.57-1.24-0.57-2v-12.66c-2.66,3.8-5.17,6.94-7.53,9.41c-2.36,2.47-4.6,4.43-6.73,5.87
		c-2.13,1.44-4.26,2.45-6.39,3.02c-2.13,0.57-4.26,0.86-6.39,0.86c-0.99,0-2.05-0.06-3.19-0.17c-1.14-0.11-2.32-0.3-3.54-0.57
		c-1.22-0.27-2.28-0.57-3.19-0.91c-0.91-0.34-1.58-0.7-2-1.08c-0.42-0.38-0.72-0.8-0.91-1.25c-0.19-0.46-0.36-1.08-0.51-1.88
		c-0.15-0.8-0.27-2-0.34-3.59c-0.08-1.6-0.11-3.76-0.11-6.5c0-2.74,0.08-4.98,0.23-6.73c0.15-1.75,0.38-3.12,0.68-4.11
		c0.31-0.99,0.7-1.67,1.2-2.05c0.49-0.38,1.12-0.57,1.88-0.57c0.61,0,1.29,0.13,2.05,0.4c0.76,0.27,1.62,0.55,2.57,0.86
		c0.95,0.3,2,0.59,3.14,0.86c1.14,0.27,2.4,0.4,3.76,0.4c1.6,0,3.19-0.32,4.79-0.97c1.6-0.65,3.25-1.65,4.96-3.02
		c1.71-1.37,3.5-3.19,5.36-5.47c1.86-2.28,3.86-5.09,5.99-8.44V41.32c0-0.76,0.23-1.43,0.68-2c0.46-0.57,1.24-1.05,2.34-1.43
		c1.1-0.38,2.57-0.67,4.39-0.86c1.82-0.19,4.14-0.29,6.96-0.29c2.81,0,5.13,0.1,6.96,0.29c1.82,0.19,3.29,0.47,4.39,0.86
		c1.1,0.38,1.88,0.86,2.34,1.43c0.46,0.57,0.68,1.24,0.68,2V143.05z M158.79,63.56c-0.31,0.99-0.7,1.67-1.2,2.05
		c-0.49,0.38-1.12,0.57-1.88,0.57c-0.61,0-1.29-0.13-2.05-0.4c-0.76-0.27-1.62-0.55-2.57-0.86c-0.95-0.3-2-0.59-3.14-0.86
		c-1.14-0.27-2.4-0.4-3.76-0.4c-1.6,0-3.19,0.32-4.79,0.97c-1.6,0.65-3.25,1.65-4.96,3.02c-1.71,1.37-3.5,3.19-5.36,5.47
		c-1.86,2.28-3.86,5.09-5.99,8.44v63.41c0,0.76-0.23,1.43-0.68,2c-0.46,0.57-1.24,1.05-2.34,1.43c-1.1,0.38-2.57,0.66-4.39,0.86
		c-1.82,0.19-4.14,0.29-6.96,0.29c-2.81,0-5.13-0.1-6.96-0.29c-1.82-0.19-3.29-0.47-4.39-0.86c-1.1-0.38-1.88-0.86-2.34-1.43
		c-0.46-0.57-0.68-1.24-0.68-2V43.26c0-0.76,0.19-1.43,0.57-2c0.38-0.57,1.06-1.04,2.05-1.43c0.99-0.38,2.26-0.66,3.82-0.86
		c1.56-0.19,3.52-0.28,5.87-0.28c2.43,0,4.45,0.1,6.04,0.28c1.6,0.19,2.83,0.48,3.71,0.86c0.87,0.38,1.5,0.86,1.88,1.43
		c0.38,0.57,0.57,1.24,0.57,2v12.66c2.66-3.8,5.17-6.94,7.53-9.41c2.36-2.47,4.6-4.43,6.73-5.87c2.13-1.44,4.26-2.45,6.39-3.02
		c2.13-0.57,4.26-0.86,6.39-0.86c0.99,0,2.05,0.06,3.19,0.17c1.14,0.11,2.32,0.3,3.54,0.57c1.22,0.27,2.28,0.57,3.19,0.91
		c0.91,0.34,1.58,0.7,2,1.08c0.42,0.38,0.72,0.8,0.91,1.25c0.19,0.46,0.36,1.08,0.51,1.88c0.15,0.8,0.26,2,0.34,3.59
		c0.08,1.6,0.11,3.76,0.11,6.5s-0.08,4.98-0.23,6.73C159.32,61.2,159.09,62.57,158.79,63.56z"/>
</g>
</svg>
