<?xml version="1.0" encoding="utf-8"?>
<!-- Generator: Adobe Illustrator 25.0.0, SVG Export Plug-In . SVG Version: 6.00 Build 0)  -->
<svg version="1.1" id="Layer_1" xmlns="http://www.w3.org/2000/svg" xmlns:xlink="http://www.w3.org/1999/xlink" x="0px" y="0px"
	 viewBox="0 0 1500 1500" style="enable-background:new 0 0 1500 1500;" xml:space="preserve">
<style type="text/css">
	.st0{fill:#3B5998;}
</style>
<g>
	<g>
		<rect x="759.15" y="591.57" class="st0" width="7.29" height="311.54"/>
		<path class="st0" d="M815.61,656.71c0,1.25-0.04,2.28-0.1,3.08c-0.07,0.8-0.17,1.43-0.31,1.88c-0.14,0.45-0.32,0.76-0.55,0.94
			c-0.23,0.17-0.51,0.26-0.86,0.26c-0.28,0-0.59-0.06-0.94-0.18c-0.35-0.12-0.74-0.25-1.17-0.39c-0.43-0.14-0.91-0.27-1.43-0.39
			c-0.52-0.12-1.09-0.18-1.72-0.18c-0.73,0-1.46,0.15-2.19,0.44c-0.73,0.3-1.49,0.76-2.27,1.38c-0.78,0.63-1.6,1.46-2.45,2.5
			c-0.85,1.04-1.76,2.33-2.74,3.86v28.99c0,0.35-0.1,0.65-0.31,0.91c-0.21,0.26-0.57,0.48-1.07,0.65c-0.5,0.17-1.17,0.3-2.01,0.39
			c-0.83,0.09-1.89,0.13-3.18,0.13c-1.29,0-2.35-0.04-3.18-0.13c-0.83-0.09-1.5-0.22-2.01-0.39c-0.5-0.17-0.86-0.39-1.07-0.65
			c-0.21-0.26-0.31-0.56-0.31-0.91v-46.51c0-0.35,0.09-0.65,0.26-0.91c0.17-0.26,0.49-0.48,0.94-0.65c0.45-0.17,1.03-0.3,1.75-0.39
			c0.71-0.09,1.61-0.13,2.69-0.13c1.11,0,2.03,0.04,2.76,0.13c0.73,0.09,1.29,0.22,1.69,0.39c0.4,0.17,0.69,0.39,0.86,0.65
			c0.17,0.26,0.26,0.57,0.26,0.91v5.79c1.22-1.74,2.36-3.17,3.44-4.3c1.08-1.13,2.1-2.02,3.08-2.69c0.97-0.66,1.95-1.12,2.92-1.38
			c0.97-0.26,1.95-0.39,2.92-0.39c0.45,0,0.94,0.03,1.46,0.08c0.52,0.05,1.06,0.14,1.62,0.26c0.56,0.12,1.04,0.26,1.46,0.42
			c0.42,0.16,0.72,0.32,0.91,0.5c0.19,0.17,0.33,0.37,0.42,0.57c0.09,0.21,0.16,0.5,0.23,0.86c0.07,0.37,0.12,0.91,0.16,1.64
			C815.6,654.47,815.61,655.46,815.61,656.71z"/>
		<path class="st0" d="M863.76,674.28c0,1.6-0.36,2.78-1.07,3.55c-0.71,0.77-1.69,1.15-2.95,1.15h-28.31c0,1.98,0.23,3.78,0.7,5.4
			c0.47,1.62,1.22,2.99,2.24,4.12c1.03,1.13,2.35,1.99,3.96,2.58c1.62,0.59,3.55,0.89,5.81,0.89c2.29,0,4.31-0.16,6.05-0.5
			c1.74-0.33,3.24-0.7,4.51-1.1c1.27-0.4,2.32-0.76,3.15-1.1c0.83-0.33,1.51-0.5,2.03-0.5c0.31,0,0.57,0.06,0.78,0.18
			c0.21,0.12,0.38,0.34,0.52,0.65c0.14,0.31,0.23,0.76,0.29,1.33c0.05,0.57,0.08,1.3,0.08,2.16c0,0.76-0.02,1.42-0.05,1.96
			c-0.04,0.54-0.09,1-0.16,1.38c-0.07,0.38-0.17,0.7-0.31,0.96c-0.14,0.26-0.32,0.51-0.55,0.76c-0.23,0.24-0.84,0.57-1.85,0.99
			c-1.01,0.42-2.29,0.83-3.86,1.23c-1.56,0.4-3.35,0.75-5.37,1.04c-2.02,0.29-4.17,0.44-6.47,0.44c-4.14,0-7.76-0.52-10.87-1.56
			c-3.11-1.04-5.71-2.62-7.8-4.75c-2.09-2.12-3.64-4.8-4.67-8.03c-1.03-3.23-1.54-7.02-1.54-11.37c0-4.14,0.54-7.86,1.62-11.19
			c1.08-3.32,2.64-6.14,4.69-8.45c2.05-2.31,4.55-4.08,7.48-5.29c2.94-1.22,6.25-1.83,9.93-1.83c3.89,0,7.22,0.57,9.99,1.72
			c2.76,1.15,5.03,2.74,6.8,4.77c1.77,2.03,3.08,4.44,3.91,7.22c0.83,2.78,1.25,5.81,1.25,9.07V674.28z M851.03,670.53
			c0.1-3.68-0.63-6.58-2.22-8.68c-1.58-2.1-4.02-3.15-7.33-3.15c-1.67,0-3.12,0.31-4.35,0.94c-1.23,0.63-2.26,1.47-3.08,2.53
			c-0.82,1.06-1.44,2.31-1.88,3.75c-0.43,1.44-0.69,2.98-0.76,4.61H851.03z"/>
		<path class="st0" d="M905.59,685.76c0,2.64-0.5,4.97-1.49,6.99c-0.99,2.02-2.39,3.7-4.2,5.06c-1.81,1.36-3.95,2.37-6.41,3.05
			c-2.47,0.68-5.15,1.02-8.03,1.02c-1.74,0-3.4-0.13-4.98-0.39c-1.58-0.26-3-0.59-4.25-0.99c-1.25-0.4-2.29-0.81-3.13-1.23
			c-0.83-0.42-1.44-0.81-1.83-1.17c-0.38-0.36-0.68-0.94-0.89-1.72c-0.21-0.78-0.31-1.94-0.31-3.47c0-1.01,0.03-1.82,0.1-2.42
			c0.07-0.61,0.17-1.09,0.31-1.46c0.14-0.37,0.31-0.61,0.52-0.73c0.21-0.12,0.47-0.18,0.78-0.18c0.38,0,0.95,0.22,1.69,0.65
			c0.75,0.44,1.68,0.91,2.79,1.43c1.11,0.52,2.41,1.01,3.89,1.46c1.48,0.45,3.15,0.68,5.03,0.68c1.18,0,2.23-0.12,3.15-0.37
			c0.92-0.24,1.72-0.59,2.4-1.04c0.68-0.45,1.19-1.02,1.54-1.72c0.35-0.7,0.52-1.49,0.52-2.4c0-1.04-0.32-1.94-0.96-2.69
			c-0.64-0.75-1.5-1.4-2.56-1.96c-1.06-0.56-2.26-1.08-3.6-1.56c-1.34-0.49-2.71-1.02-4.12-1.62c-1.41-0.59-2.78-1.27-4.12-2.03
			c-1.34-0.76-2.54-1.7-3.6-2.82c-1.06-1.11-1.91-2.45-2.56-4.02c-0.64-1.56-0.96-3.44-0.96-5.63c0-2.22,0.43-4.27,1.3-6.13
			c0.87-1.86,2.12-3.45,3.75-4.77c1.63-1.32,3.62-2.35,5.97-3.08c2.35-0.73,4.98-1.09,7.9-1.09c1.46,0,2.88,0.1,4.25,0.31
			c1.37,0.21,2.62,0.47,3.73,0.78c1.11,0.31,2.05,0.65,2.82,1.02c0.76,0.37,1.31,0.68,1.64,0.94c0.33,0.26,0.56,0.52,0.7,0.78
			c0.14,0.26,0.24,0.57,0.31,0.94c0.07,0.36,0.13,0.82,0.18,1.36c0.05,0.54,0.08,1.21,0.08,2.01c0,0.94-0.03,1.7-0.08,2.29
			c-0.05,0.59-0.14,1.06-0.26,1.41c-0.12,0.35-0.29,0.58-0.5,0.7c-0.21,0.12-0.45,0.18-0.73,0.18c-0.31,0-0.8-0.18-1.46-0.55
			c-0.66-0.36-1.49-0.76-2.48-1.17c-0.99-0.42-2.14-0.81-3.44-1.17c-1.3-0.37-2.79-0.55-4.46-0.55c-1.18,0-2.21,0.12-3.08,0.37
			c-0.87,0.24-1.58,0.59-2.14,1.04c-0.56,0.45-0.97,0.98-1.25,1.59c-0.28,0.61-0.42,1.26-0.42,1.96c0,1.08,0.33,1.98,0.99,2.71
			c0.66,0.73,1.53,1.37,2.61,1.93c1.08,0.56,2.3,1.08,3.68,1.56c1.37,0.49,2.76,1.02,4.17,1.59c1.41,0.57,2.8,1.24,4.17,2.01
			c1.37,0.76,2.6,1.7,3.68,2.82c1.08,1.11,1.95,2.44,2.61,3.99C905.26,681.8,905.59,683.64,905.59,685.76z"/>
		<path class="st0" d="M956.7,674.28c0,1.6-0.36,2.78-1.07,3.55c-0.71,0.77-1.69,1.15-2.95,1.15h-28.31c0,1.98,0.23,3.78,0.7,5.4
			c0.47,1.62,1.22,2.99,2.24,4.12c1.03,1.13,2.35,1.99,3.96,2.58c1.62,0.59,3.55,0.89,5.81,0.89c2.29,0,4.31-0.16,6.05-0.5
			c1.74-0.33,3.24-0.7,4.51-1.1c1.27-0.4,2.32-0.76,3.15-1.1c0.83-0.33,1.51-0.5,2.03-0.5c0.31,0,0.57,0.06,0.78,0.18
			c0.21,0.12,0.38,0.34,0.52,0.65c0.14,0.31,0.23,0.76,0.29,1.33c0.05,0.57,0.08,1.3,0.08,2.16c0,0.76-0.02,1.42-0.05,1.96
			c-0.04,0.54-0.09,1-0.16,1.38c-0.07,0.38-0.17,0.7-0.31,0.96c-0.14,0.26-0.32,0.51-0.55,0.76c-0.23,0.24-0.84,0.57-1.85,0.99
			c-1.01,0.42-2.29,0.83-3.86,1.23c-1.56,0.4-3.35,0.75-5.37,1.04c-2.02,0.29-4.17,0.44-6.47,0.44c-4.14,0-7.76-0.52-10.87-1.56
			c-3.11-1.04-5.71-2.62-7.8-4.75c-2.09-2.12-3.64-4.8-4.67-8.03c-1.03-3.23-1.54-7.02-1.54-11.37c0-4.14,0.54-7.86,1.62-11.19
			c1.08-3.32,2.64-6.14,4.69-8.45c2.05-2.31,4.55-4.08,7.48-5.29c2.94-1.22,6.25-1.83,9.93-1.83c3.89,0,7.22,0.57,9.99,1.72
			c2.76,1.15,5.03,2.74,6.8,4.77c1.77,2.03,3.08,4.44,3.91,7.22c0.83,2.78,1.25,5.81,1.25,9.07V674.28z M943.98,670.53
			c0.1-3.68-0.63-6.58-2.22-8.68c-1.58-2.1-4.02-3.15-7.33-3.15c-1.67,0-3.12,0.31-4.35,0.94c-1.23,0.63-2.26,1.47-3.08,2.53
			c-0.82,1.06-1.44,2.31-1.88,3.75c-0.43,1.44-0.69,2.98-0.76,4.61H943.98z"/>
		<path class="st0" d="M1005.42,699.05c0,0.49-0.17,0.87-0.52,1.15c-0.35,0.28-0.9,0.48-1.64,0.6c-0.75,0.12-1.85,0.18-3.31,0.18
			c-1.56,0-2.7-0.06-3.42-0.18c-0.71-0.12-1.22-0.32-1.51-0.6c-0.3-0.28-0.44-0.66-0.44-1.15v-3.7c-1.91,2.05-4.09,3.65-6.54,4.8
			c-2.45,1.15-5.17,1.72-8.16,1.72c-2.47,0-4.74-0.32-6.8-0.96c-2.07-0.64-3.86-1.6-5.37-2.87c-1.51-1.27-2.69-2.84-3.52-4.72
			c-0.83-1.88-1.25-4.07-1.25-6.57c0-2.71,0.53-5.07,1.59-7.07c1.06-2,2.64-3.65,4.75-4.95c2.1-1.3,4.72-2.27,7.85-2.89
			c3.13-0.63,6.76-0.94,10.9-0.94h4.54v-2.82c0-1.46-0.15-2.74-0.44-3.83c-0.3-1.1-0.78-2.01-1.46-2.74
			c-0.68-0.73-1.58-1.27-2.71-1.62c-1.13-0.35-2.53-0.52-4.2-0.52c-2.19,0-4.15,0.24-5.87,0.73c-1.72,0.49-3.24,1.03-4.56,1.62
			c-1.32,0.59-2.42,1.13-3.31,1.62c-0.89,0.49-1.61,0.73-2.16,0.73c-0.38,0-0.72-0.12-1.02-0.37c-0.3-0.24-0.54-0.59-0.73-1.04
			c-0.19-0.45-0.34-1.01-0.44-1.67c-0.1-0.66-0.16-1.39-0.16-2.19c0-1.08,0.09-1.93,0.26-2.56c0.17-0.63,0.5-1.19,0.99-1.69
			c0.49-0.5,1.34-1.06,2.56-1.67c1.22-0.61,2.64-1.17,4.28-1.69c1.63-0.52,3.42-0.95,5.34-1.28c1.93-0.33,3.92-0.5,5.97-0.5
			c3.65,0,6.77,0.36,9.36,1.07c2.59,0.71,4.72,1.81,6.39,3.28c1.67,1.48,2.88,3.38,3.65,5.71c0.76,2.33,1.15,5.09,1.15,8.29V699.05z
			 M992.54,679.13h-5.01c-2.12,0-3.93,0.16-5.42,0.47c-1.5,0.31-2.71,0.78-3.65,1.41c-0.94,0.63-1.63,1.38-2.06,2.27
			c-0.43,0.89-0.65,1.9-0.65,3.05c0,1.95,0.62,3.48,1.85,4.59c1.23,1.11,2.95,1.67,5.14,1.67c1.84,0,3.54-0.47,5.08-1.41
			c1.55-0.94,3.12-2.31,4.72-4.12V679.13z"/>
		<path class="st0" d="M1046.68,656.71c0,1.25-0.04,2.28-0.1,3.08c-0.07,0.8-0.17,1.43-0.31,1.88c-0.14,0.45-0.32,0.76-0.55,0.94
			c-0.23,0.17-0.51,0.26-0.86,0.26c-0.28,0-0.59-0.06-0.94-0.18c-0.35-0.12-0.74-0.25-1.17-0.39c-0.43-0.14-0.91-0.27-1.43-0.39
			c-0.52-0.12-1.1-0.18-1.72-0.18c-0.73,0-1.46,0.15-2.19,0.44c-0.73,0.3-1.49,0.76-2.27,1.38c-0.78,0.63-1.6,1.46-2.45,2.5
			c-0.85,1.04-1.76,2.33-2.74,3.86v28.99c0,0.35-0.1,0.65-0.31,0.91c-0.21,0.26-0.57,0.48-1.07,0.65c-0.5,0.17-1.17,0.3-2.01,0.39
			c-0.83,0.09-1.89,0.13-3.18,0.13c-1.29,0-2.35-0.04-3.18-0.13c-0.83-0.09-1.5-0.22-2.01-0.39c-0.5-0.17-0.86-0.39-1.07-0.65
			c-0.21-0.26-0.31-0.56-0.31-0.91v-46.51c0-0.35,0.09-0.65,0.26-0.91c0.17-0.26,0.49-0.48,0.94-0.65c0.45-0.17,1.03-0.3,1.75-0.39
			c0.71-0.09,1.61-0.13,2.69-0.13c1.11,0,2.03,0.04,2.76,0.13c0.73,0.09,1.29,0.22,1.69,0.39c0.4,0.17,0.69,0.39,0.86,0.65
			c0.17,0.26,0.26,0.57,0.26,0.91v5.79c1.22-1.74,2.36-3.17,3.44-4.3c1.08-1.13,2.1-2.02,3.08-2.69c0.97-0.66,1.95-1.12,2.92-1.38
			c0.97-0.26,1.95-0.39,2.92-0.39c0.45,0,0.94,0.03,1.46,0.08c0.52,0.05,1.06,0.14,1.62,0.26c0.56,0.12,1.04,0.26,1.46,0.42
			c0.42,0.16,0.72,0.32,0.91,0.5c0.19,0.17,0.33,0.37,0.42,0.57c0.09,0.21,0.16,0.5,0.23,0.86c0.07,0.37,0.12,0.91,0.16,1.64
			C1046.66,654.47,1046.68,655.46,1046.68,656.71z"/>
		<path class="st0" d="M1086.74,691.49c0,0.9-0.03,1.66-0.08,2.27c-0.05,0.61-0.12,1.12-0.21,1.54c-0.09,0.42-0.19,0.76-0.31,1.02
			c-0.12,0.26-0.39,0.59-0.81,0.99c-0.42,0.4-1.13,0.89-2.14,1.46c-1.01,0.57-2.16,1.09-3.44,1.54c-1.29,0.45-2.69,0.82-4.2,1.09
			c-1.51,0.28-3.07,0.42-4.67,0.42c-3.58,0-6.75-0.56-9.52-1.67c-2.76-1.11-5.08-2.76-6.96-4.93c-1.88-2.17-3.29-4.82-4.25-7.95
			c-0.96-3.13-1.43-6.71-1.43-10.74c0-4.66,0.58-8.68,1.75-12.07c1.16-3.39,2.79-6.2,4.88-8.42c2.09-2.22,4.55-3.88,7.4-4.95
			c2.85-1.08,5.98-1.62,9.39-1.62c1.39,0,2.75,0.12,4.09,0.37c1.34,0.24,2.59,0.57,3.75,0.99c1.16,0.42,2.21,0.89,3.13,1.41
			c0.92,0.52,1.57,0.97,1.96,1.36c0.38,0.38,0.65,0.7,0.81,0.96c0.16,0.26,0.28,0.6,0.36,1.02c0.09,0.42,0.16,0.93,0.21,1.54
			c0.05,0.61,0.08,1.35,0.08,2.22c0,2.02-0.17,3.43-0.52,4.25c-0.35,0.82-0.8,1.23-1.36,1.23c-0.59,0-1.22-0.24-1.88-0.73
			c-0.66-0.49-1.44-1.02-2.35-1.62c-0.9-0.59-1.98-1.13-3.23-1.62c-1.25-0.49-2.75-0.73-4.48-0.73c-3.41,0-6.01,1.31-7.82,3.94
			c-1.81,2.63-2.71,6.47-2.71,11.55c0,2.5,0.23,4.71,0.68,6.62c0.45,1.91,1.12,3.51,2.01,4.8c0.89,1.29,2,2.25,3.34,2.89
			c1.34,0.64,2.89,0.96,4.67,0.96c1.81,0,3.36-0.27,4.67-0.81c1.3-0.54,2.44-1.14,3.42-1.8c0.97-0.66,1.79-1.26,2.45-1.8
			c0.66-0.54,1.22-0.81,1.67-0.81c0.31,0,0.57,0.09,0.78,0.26c0.21,0.17,0.37,0.5,0.5,0.96c0.12,0.47,0.22,1.07,0.29,1.8
			C1086.7,689.41,1086.74,690.35,1086.74,691.49z"/>
		<path class="st0" d="M1138.95,698.9c0,0.35-0.1,0.65-0.31,0.91c-0.21,0.26-0.56,0.48-1.04,0.65c-0.49,0.17-1.16,0.3-2.01,0.39
			c-0.85,0.09-1.9,0.13-3.15,0.13c-1.29,0-2.36-0.04-3.21-0.13c-0.85-0.09-1.52-0.22-2.01-0.39c-0.49-0.17-0.83-0.39-1.04-0.65
			c-0.21-0.26-0.31-0.56-0.31-0.91v-26.54c0-2.26-0.17-4.03-0.5-5.32c-0.33-1.29-0.81-2.39-1.43-3.31
			c-0.63-0.92-1.43-1.63-2.42-2.14c-0.99-0.5-2.15-0.76-3.47-0.76c-1.67,0-3.35,0.61-5.06,1.83c-1.7,1.22-3.48,2.99-5.32,5.32v30.92
			c0,0.35-0.1,0.65-0.31,0.91c-0.21,0.26-0.57,0.48-1.07,0.65c-0.5,0.17-1.17,0.3-2.01,0.39c-0.83,0.09-1.89,0.13-3.18,0.13
			c-1.29,0-2.35-0.04-3.18-0.13c-0.83-0.09-1.5-0.22-2.01-0.39c-0.5-0.17-0.86-0.39-1.07-0.65c-0.21-0.26-0.31-0.56-0.31-0.91
			v-68.57c0-0.35,0.1-0.66,0.31-0.94c0.21-0.28,0.56-0.51,1.07-0.7c0.5-0.19,1.17-0.34,2.01-0.44c0.83-0.1,1.89-0.16,3.18-0.16
			c1.29,0,2.35,0.05,3.18,0.16c0.83,0.1,1.5,0.25,2.01,0.44c0.5,0.19,0.86,0.43,1.07,0.7c0.21,0.28,0.31,0.59,0.31,0.94v25.71
			c2.26-2.22,4.56-3.88,6.91-4.98c2.35-1.09,4.79-1.64,7.33-1.64c3.16,0,5.83,0.52,8,1.56c2.17,1.04,3.93,2.47,5.27,4.28
			c1.34,1.81,2.3,3.92,2.89,6.34c0.59,2.42,0.89,5.34,0.89,8.79V698.9z"/>
		<path class="st0" d="M815.61,776.86c0,1.25-0.04,2.28-0.1,3.08c-0.07,0.8-0.17,1.43-0.31,1.88c-0.14,0.45-0.32,0.76-0.55,0.94
			c-0.23,0.17-0.51,0.26-0.86,0.26c-0.28,0-0.59-0.06-0.94-0.18c-0.35-0.12-0.74-0.25-1.17-0.39c-0.43-0.14-0.91-0.27-1.43-0.39
			c-0.52-0.12-1.09-0.18-1.72-0.18c-0.73,0-1.46,0.15-2.19,0.44c-0.73,0.3-1.49,0.76-2.27,1.38c-0.78,0.63-1.6,1.46-2.45,2.5
			c-0.85,1.04-1.76,2.33-2.74,3.86v28.99c0,0.35-0.1,0.65-0.31,0.91c-0.21,0.26-0.57,0.48-1.07,0.65c-0.5,0.17-1.17,0.3-2.01,0.39
			c-0.83,0.09-1.89,0.13-3.18,0.13c-1.29,0-2.35-0.04-3.18-0.13c-0.83-0.09-1.5-0.22-2.01-0.39c-0.5-0.17-0.86-0.39-1.07-0.65
			c-0.21-0.26-0.31-0.56-0.31-0.91v-46.51c0-0.35,0.09-0.65,0.26-0.91c0.17-0.26,0.49-0.48,0.94-0.65c0.45-0.17,1.03-0.3,1.75-0.39
			c0.71-0.09,1.61-0.13,2.69-0.13c1.11,0,2.03,0.04,2.76,0.13c0.73,0.09,1.29,0.22,1.69,0.39c0.4,0.17,0.69,0.39,0.86,0.65
			c0.17,0.26,0.26,0.57,0.26,0.91v5.79c1.22-1.74,2.36-3.17,3.44-4.3c1.08-1.13,2.1-2.02,3.08-2.69c0.97-0.66,1.95-1.12,2.92-1.38
			c0.97-0.26,1.95-0.39,2.92-0.39c0.45,0,0.94,0.03,1.46,0.08c0.52,0.05,1.06,0.14,1.62,0.26c0.56,0.12,1.04,0.26,1.46,0.42
			c0.42,0.16,0.72,0.32,0.91,0.5c0.19,0.17,0.33,0.37,0.42,0.57c0.09,0.21,0.16,0.5,0.23,0.86c0.07,0.36,0.12,0.91,0.16,1.64
			C815.6,774.61,815.61,775.6,815.61,776.86z"/>
		<path class="st0" d="M836.12,756.78c0,2.64-0.54,4.47-1.62,5.48c-1.08,1.01-3.08,1.51-6,1.51c-2.96,0-4.95-0.49-5.97-1.46
			c-1.03-0.97-1.54-2.73-1.54-5.27c0-2.64,0.53-4.48,1.59-5.5c1.06-1.02,3.07-1.54,6.02-1.54c2.92,0,4.9,0.5,5.94,1.49
			S836.12,754.24,836.12,756.78z M835.13,819.04c0,0.35-0.1,0.65-0.31,0.91c-0.21,0.26-0.57,0.48-1.07,0.65
			c-0.5,0.17-1.17,0.3-2.01,0.39c-0.83,0.09-1.89,0.13-3.18,0.13c-1.29,0-2.35-0.04-3.18-0.13c-0.83-0.09-1.5-0.22-2.01-0.39
			c-0.5-0.17-0.86-0.39-1.07-0.65c-0.21-0.26-0.31-0.56-0.31-0.91v-46.41c0-0.35,0.1-0.65,0.31-0.91c0.21-0.26,0.56-0.49,1.07-0.68
			c0.5-0.19,1.17-0.34,2.01-0.44c0.83-0.1,1.89-0.16,3.18-0.16c1.29,0,2.35,0.05,3.18,0.16c0.83,0.1,1.5,0.25,2.01,0.44
			c0.5,0.19,0.86,0.42,1.07,0.68c0.21,0.26,0.31,0.57,0.31,0.91V819.04z"/>
		<path class="st0" d="M890.62,819.04c0,0.38-0.09,0.7-0.26,0.96c-0.17,0.26-0.47,0.48-0.89,0.65c-0.42,0.17-0.98,0.29-1.69,0.37
			c-0.71,0.07-1.59,0.1-2.63,0.1c-1.11,0-2.02-0.03-2.71-0.1c-0.7-0.07-1.26-0.19-1.69-0.37c-0.43-0.17-0.75-0.39-0.94-0.65
			c-0.19-0.26-0.29-0.58-0.29-0.96v-5.16c-2.4,2.57-4.91,4.57-7.53,6c-2.63,1.43-5.54,2.14-8.73,2.14c-3.55,0-6.54-0.69-9-2.06
			c-2.45-1.37-4.45-3.22-6-5.55c-1.55-2.33-2.67-5.05-3.36-8.16c-0.7-3.11-1.04-6.39-1.04-9.83c0-4.14,0.44-7.86,1.33-11.16
			c0.89-3.3,2.18-6.12,3.88-8.45c1.7-2.33,3.82-4.12,6.36-5.37c2.54-1.25,5.46-1.88,8.76-1.88c2.61,0,4.97,0.53,7.09,1.59
			c2.12,1.06,4.22,2.62,6.31,4.67v-25.19c0-0.35,0.1-0.66,0.29-0.94c0.19-0.28,0.54-0.51,1.04-0.7c0.5-0.19,1.17-0.34,2.01-0.44
			c0.83-0.1,1.89-0.16,3.18-0.16c1.29,0,2.35,0.05,3.18,0.16c0.83,0.1,1.49,0.25,1.98,0.44c0.49,0.19,0.83,0.43,1.04,0.7
			c0.21,0.28,0.31,0.59,0.31,0.94V819.04z M877.59,787.96c-1.88-2.36-3.68-4.17-5.4-5.42c-1.72-1.25-3.52-1.88-5.4-1.88
			c-1.7,0-3.17,0.43-4.41,1.28c-1.23,0.85-2.23,1.99-2.97,3.42c-0.75,1.43-1.3,3.02-1.67,4.77c-0.37,1.76-0.55,3.55-0.55,5.4
			c0,1.95,0.16,3.84,0.47,5.68c0.31,1.84,0.83,3.49,1.54,4.93c0.71,1.44,1.66,2.6,2.84,3.47c1.18,0.87,2.68,1.3,4.48,1.3
			c0.9,0,1.78-0.13,2.63-0.39c0.85-0.26,1.72-0.69,2.61-1.28c0.89-0.59,1.8-1.36,2.74-2.32c0.94-0.96,1.96-2.13,3.08-3.52V787.96z"
			/>
		<path class="st0" d="M945.08,794.43c0,1.6-0.36,2.78-1.07,3.55c-0.71,0.77-1.69,1.15-2.95,1.15h-28.31c0,1.98,0.23,3.78,0.7,5.4
			c0.47,1.62,1.22,2.99,2.24,4.12c1.03,1.13,2.35,1.99,3.96,2.58c1.62,0.59,3.55,0.89,5.81,0.89c2.29,0,4.31-0.16,6.05-0.5
			c1.74-0.33,3.24-0.7,4.51-1.1c1.27-0.4,2.32-0.76,3.15-1.09c0.83-0.33,1.51-0.5,2.03-0.5c0.31,0,0.57,0.06,0.78,0.18
			c0.21,0.12,0.38,0.34,0.52,0.65c0.14,0.31,0.23,0.76,0.29,1.33c0.05,0.57,0.08,1.3,0.08,2.16c0,0.76-0.02,1.42-0.05,1.96
			c-0.04,0.54-0.09,1-0.16,1.38c-0.07,0.38-0.17,0.7-0.31,0.96c-0.14,0.26-0.32,0.51-0.55,0.76c-0.23,0.24-0.84,0.57-1.85,0.99
			c-1.01,0.42-2.29,0.83-3.86,1.23c-1.56,0.4-3.35,0.75-5.37,1.04c-2.02,0.29-4.17,0.44-6.47,0.44c-4.14,0-7.76-0.52-10.87-1.56
			c-3.11-1.04-5.71-2.62-7.8-4.75c-2.09-2.12-3.64-4.8-4.67-8.03c-1.03-3.23-1.54-7.02-1.54-11.37c0-4.14,0.54-7.87,1.62-11.19
			c1.08-3.32,2.64-6.14,4.69-8.45c2.05-2.31,4.55-4.08,7.48-5.29c2.94-1.22,6.25-1.83,9.93-1.83c3.89,0,7.22,0.57,9.99,1.72
			c2.76,1.15,5.03,2.74,6.8,4.77s3.08,4.44,3.91,7.22c0.83,2.78,1.25,5.81,1.25,9.07V794.43z M932.35,790.67
			c0.1-3.68-0.63-6.58-2.22-8.68c-1.58-2.1-4.02-3.15-7.33-3.15c-1.67,0-3.12,0.31-4.35,0.94c-1.23,0.63-2.26,1.47-3.08,2.53
			c-0.82,1.06-1.44,2.31-1.88,3.75c-0.43,1.44-0.69,2.98-0.76,4.61H932.35z"/>
		<path class="st0" d="M984.04,776.86c0,1.25-0.04,2.28-0.1,3.08c-0.07,0.8-0.17,1.43-0.31,1.88c-0.14,0.45-0.32,0.76-0.55,0.94
			c-0.23,0.17-0.51,0.26-0.86,0.26c-0.28,0-0.59-0.06-0.94-0.18c-0.35-0.12-0.74-0.25-1.17-0.39c-0.43-0.14-0.91-0.27-1.43-0.39
			c-0.52-0.12-1.1-0.18-1.72-0.18c-0.73,0-1.46,0.15-2.19,0.44c-0.73,0.3-1.49,0.76-2.27,1.38c-0.78,0.63-1.6,1.46-2.45,2.5
			c-0.85,1.04-1.76,2.33-2.74,3.86v28.99c0,0.35-0.1,0.65-0.31,0.91c-0.21,0.26-0.57,0.48-1.07,0.65c-0.5,0.17-1.17,0.3-2.01,0.39
			c-0.83,0.09-1.89,0.13-3.18,0.13c-1.29,0-2.35-0.04-3.18-0.13c-0.83-0.09-1.5-0.22-2.01-0.39c-0.5-0.17-0.86-0.39-1.07-0.65
			c-0.21-0.26-0.31-0.56-0.31-0.91v-46.51c0-0.35,0.09-0.65,0.26-0.91c0.17-0.26,0.49-0.48,0.94-0.65c0.45-0.17,1.03-0.3,1.75-0.39
			c0.71-0.09,1.61-0.13,2.69-0.13c1.11,0,2.03,0.04,2.76,0.13c0.73,0.09,1.29,0.22,1.69,0.39c0.4,0.17,0.69,0.39,0.86,0.65
			c0.17,0.26,0.26,0.57,0.26,0.91v5.79c1.22-1.74,2.36-3.17,3.44-4.3c1.08-1.13,2.1-2.02,3.08-2.69c0.97-0.66,1.95-1.12,2.92-1.38
			c0.97-0.26,1.95-0.39,2.92-0.39c0.45,0,0.94,0.03,1.46,0.08c0.52,0.05,1.06,0.14,1.62,0.26c0.56,0.12,1.04,0.26,1.46,0.42
			c0.42,0.16,0.72,0.32,0.91,0.5c0.19,0.17,0.33,0.37,0.42,0.57c0.09,0.21,0.16,0.5,0.23,0.86c0.07,0.36,0.12,0.91,0.16,1.64
			C984.02,774.61,984.04,775.6,984.04,776.86z"/>
	</g>
	<path class="st0" d="M552.52,552.5c-105.75,0-191.47,88.42-191.47,197.5c0,109.08,85.72,197.5,191.47,197.5
		c105.75,0,191.47-88.42,191.47-197.5C743.99,640.92,658.27,552.5,552.52,552.5z M546.97,851.25c0,1.59-0.4,2.98-1.19,4.17
		c-0.79,1.19-2.22,2.18-4.29,2.98c-2.06,0.79-4.72,1.39-7.98,1.79c-3.25,0.39-7.34,0.6-12.27,0.6c-5.08,0-9.29-0.2-12.62-0.6
		c-3.33-0.4-5.91-0.99-7.74-1.79c-1.83-0.8-3.14-1.79-3.93-2.98c-0.79-1.19-1.19-2.58-1.19-4.17v-26.44
		c-5.56,7.94-10.8,14.49-15.72,19.65c-4.92,5.16-9.6,9.25-14.05,12.27c-4.44,3.01-8.89,5.12-13.34,6.31
		c-4.44,1.19-8.89,1.79-13.34,1.79c-2.06,0-4.29-0.12-6.67-0.36c-2.38-0.24-4.84-0.64-7.38-1.19c-2.54-0.56-4.76-1.19-6.67-1.91
		c-1.91-0.71-3.29-1.47-4.17-2.26c-0.87-0.8-1.51-1.67-1.91-2.62c-0.4-0.95-0.75-2.26-1.07-3.93c-0.32-1.67-0.55-4.17-0.71-7.5
		c-0.16-3.33-0.24-7.86-0.24-13.58s0.16-10.4,0.48-14.05c0.32-3.66,0.8-6.51,1.43-8.57c0.64-2.06,1.47-3.49,2.5-4.29
		c1.03-0.8,2.34-1.19,3.93-1.19c1.27,0,2.7,0.28,4.29,0.83c1.59,0.56,3.38,1.15,5.36,1.79c1.99,0.63,4.17,1.23,6.55,1.79
		c2.38,0.56,5,0.83,7.86,0.83c3.33,0,6.67-0.68,10-2.02c3.33-1.35,6.79-3.45,10.36-6.31c3.57-2.86,7.31-6.67,11.19-11.43
		c3.89-4.76,8.06-10.64,12.5-17.63V638.78c0-1.59,0.48-2.98,1.43-4.17c0.95-1.19,2.58-2.18,4.88-2.98c2.3-0.8,5.36-1.39,9.17-1.79
		c3.81-0.39,8.66-0.6,14.53-0.6c5.88,0,10.72,0.2,14.53,0.6c3.81,0.4,6.87,0.99,9.17,1.79c2.3,0.79,3.93,1.79,4.88,2.98
		c0.95,1.19,1.43,2.58,1.43,4.17V851.25z M692.66,685.23c-0.64,2.07-1.47,3.49-2.5,4.29c-1.03,0.8-2.34,1.19-3.93,1.19
		c-1.27,0-2.7-0.28-4.29-0.83c-1.59-0.56-3.38-1.15-5.36-1.79c-1.99-0.63-4.17-1.23-6.55-1.79c-2.38-0.56-5-0.83-7.86-0.83
		c-3.33,0-6.67,0.68-10,2.02c-3.33,1.35-6.79,3.45-10.36,6.31c-3.57,2.86-7.31,6.67-11.19,11.43c-3.89,4.76-8.06,10.64-12.5,17.63
		V855.3c0,1.59-0.48,2.98-1.43,4.17c-0.95,1.19-2.58,2.18-4.88,2.98c-2.3,0.8-5.36,1.39-9.17,1.79c-3.81,0.39-8.66,0.6-14.53,0.6
		c-5.88,0-10.72-0.2-14.53-0.6c-3.81-0.4-6.87-0.99-9.17-1.79c-2.3-0.79-3.93-1.79-4.88-2.98c-0.95-1.19-1.43-2.58-1.43-4.17V642.83
		c0-1.58,0.4-2.98,1.19-4.17c0.79-1.19,2.22-2.18,4.29-2.98c2.06-0.79,4.72-1.39,7.98-1.79c3.25-0.39,7.34-0.6,12.27-0.6
		c5.08,0,9.29,0.2,12.62,0.6c3.33,0.4,5.91,0.99,7.74,1.79c1.83,0.8,3.14,1.79,3.93,2.98c0.79,1.19,1.19,2.58,1.19,4.17v26.44
		c5.56-7.94,10.8-14.49,15.72-19.65c4.92-5.16,9.6-9.25,14.05-12.27c4.45-3.01,8.89-5.12,13.34-6.31c4.45-1.19,8.89-1.79,13.34-1.79
		c2.06,0,4.29,0.12,6.67,0.36c2.38,0.24,4.84,0.64,7.38,1.19c2.54,0.56,4.76,1.19,6.67,1.91c1.91,0.71,3.29,1.47,4.17,2.26
		c0.87,0.8,1.51,1.67,1.91,2.62c0.4,0.95,0.75,2.26,1.07,3.93c0.32,1.67,0.55,4.17,0.71,7.5c0.16,3.33,0.24,7.86,0.24,13.58
		s-0.16,10.4-0.48,14.05C693.77,680.31,693.29,683.17,692.66,685.23z"/>
</g>
</svg>
