<?xml version="1.0" encoding="UTF-8"?>
<svg xmlns="http://www.w3.org/2000/svg" xmlns:xlink="http://www.w3.org/1999/xlink" width="100px" height="100px" viewBox="0 0 100 100" version="1.1">
<g id="surface1">
<path style=" stroke:none;fill-rule:nonzero;fill:rgb(23.137255%,34.901961%,59.607843%);fill-opacity:1;" d="M 50.609375 39.4375 L 51.097656 39.4375 L 51.097656 60.207031 L 50.609375 60.207031 Z M 50.609375 39.4375 "/>
<path style=" stroke:none;fill-rule:nonzero;fill:rgb(23.137255%,34.901961%,59.607843%);fill-opacity:1;" d="M 54.375 43.78125 C 54.375 43.863281 54.371094 43.933594 54.367188 43.984375 C 54.363281 44.039062 54.355469 44.082031 54.347656 44.113281 C 54.335938 44.140625 54.324219 44.160156 54.308594 44.175781 C 54.292969 44.183594 54.277344 44.191406 54.253906 44.191406 C 54.234375 44.191406 54.214844 44.1875 54.191406 44.179688 C 54.167969 44.171875 54.140625 44.164062 54.113281 44.152344 C 54.082031 44.144531 54.050781 44.136719 54.015625 44.128906 C 53.980469 44.121094 53.945312 44.117188 53.902344 44.117188 C 53.851562 44.117188 53.804688 44.125 53.757812 44.144531 C 53.707031 44.164062 53.65625 44.195312 53.605469 44.238281 C 53.550781 44.277344 53.496094 44.335938 53.441406 44.402344 C 53.382812 44.472656 53.324219 44.558594 53.257812 44.660156 L 53.257812 46.59375 C 53.257812 46.617188 53.253906 46.636719 53.238281 46.652344 C 53.222656 46.671875 53.199219 46.6875 53.167969 46.699219 C 53.132812 46.707031 53.089844 46.71875 53.03125 46.722656 C 52.976562 46.730469 52.90625 46.730469 52.820312 46.730469 C 52.734375 46.730469 52.664062 46.730469 52.609375 46.722656 C 52.554688 46.71875 52.507812 46.707031 52.476562 46.699219 C 52.441406 46.6875 52.417969 46.671875 52.402344 46.652344 C 52.390625 46.636719 52.382812 46.617188 52.382812 46.59375 L 52.382812 43.492188 C 52.382812 43.46875 52.386719 43.449219 52.398438 43.433594 C 52.410156 43.414062 52.433594 43.398438 52.460938 43.386719 C 52.492188 43.378906 52.53125 43.367188 52.578125 43.363281 C 52.625 43.355469 52.6875 43.355469 52.757812 43.355469 C 52.832031 43.355469 52.894531 43.355469 52.941406 43.363281 C 52.992188 43.367188 53.027344 43.378906 53.054688 43.386719 C 53.082031 43.398438 53.101562 43.414062 53.113281 43.433594 C 53.125 43.449219 53.128906 43.46875 53.128906 43.492188 L 53.128906 43.878906 C 53.210938 43.761719 53.289062 43.667969 53.359375 43.59375 C 53.429688 43.515625 53.5 43.457031 53.566406 43.414062 C 53.628906 43.367188 53.695312 43.339844 53.757812 43.320312 C 53.824219 43.304688 53.890625 43.292969 53.953125 43.292969 C 53.984375 43.292969 54.015625 43.296875 54.050781 43.300781 C 54.085938 43.304688 54.121094 43.308594 54.160156 43.316406 C 54.195312 43.324219 54.230469 43.335938 54.257812 43.34375 C 54.285156 43.355469 54.304688 43.367188 54.316406 43.378906 C 54.328125 43.390625 54.339844 43.402344 54.34375 43.417969 C 54.351562 43.429688 54.355469 43.449219 54.359375 43.472656 C 54.367188 43.5 54.367188 43.535156 54.371094 43.582031 C 54.375 43.632812 54.375 43.699219 54.375 43.78125 Z M 54.375 43.78125 "/>
<path style=" stroke:none;fill-rule:nonzero;fill:rgb(23.137255%,34.901961%,59.607843%);fill-opacity:1;" d="M 57.585938 44.953125 C 57.585938 45.058594 57.558594 45.136719 57.511719 45.1875 C 57.464844 45.238281 57.398438 45.265625 57.316406 45.265625 L 55.429688 45.265625 C 55.429688 45.398438 55.445312 45.515625 55.476562 45.625 C 55.507812 45.734375 55.558594 45.824219 55.625 45.898438 C 55.691406 45.976562 55.78125 46.03125 55.886719 46.070312 C 55.996094 46.113281 56.125 46.132812 56.277344 46.132812 C 56.429688 46.132812 56.5625 46.121094 56.679688 46.097656 C 56.796875 46.074219 56.894531 46.050781 56.980469 46.023438 C 57.066406 45.996094 57.132812 45.972656 57.191406 45.953125 C 57.246094 45.929688 57.289062 45.917969 57.324219 45.917969 C 57.347656 45.917969 57.363281 45.921875 57.378906 45.929688 C 57.390625 45.9375 57.402344 45.953125 57.410156 45.972656 C 57.421875 45.992188 57.425781 46.023438 57.429688 46.0625 C 57.433594 46.101562 57.4375 46.148438 57.4375 46.207031 C 57.4375 46.257812 57.433594 46.300781 57.433594 46.335938 C 57.429688 46.371094 57.425781 46.402344 57.421875 46.429688 C 57.417969 46.453125 57.410156 46.476562 57.402344 46.492188 C 57.394531 46.511719 57.378906 46.527344 57.367188 46.542969 C 57.351562 46.558594 57.308594 46.582031 57.242188 46.609375 C 57.175781 46.636719 57.089844 46.664062 56.984375 46.691406 C 56.878906 46.71875 56.761719 46.742188 56.625 46.761719 C 56.492188 46.78125 56.347656 46.789062 56.195312 46.789062 C 55.917969 46.789062 55.679688 46.753906 55.46875 46.6875 C 55.261719 46.617188 55.089844 46.511719 54.949219 46.371094 C 54.8125 46.226562 54.707031 46.050781 54.640625 45.835938 C 54.570312 45.617188 54.535156 45.367188 54.535156 45.074219 C 54.535156 44.800781 54.574219 44.550781 54.644531 44.328125 C 54.714844 44.109375 54.820312 43.921875 54.957031 43.765625 C 55.09375 43.613281 55.261719 43.496094 55.457031 43.414062 C 55.652344 43.332031 55.871094 43.292969 56.117188 43.292969 C 56.378906 43.292969 56.597656 43.328125 56.785156 43.40625 C 56.96875 43.484375 57.121094 43.589844 57.238281 43.726562 C 57.355469 43.859375 57.441406 44.019531 57.496094 44.207031 C 57.554688 44.390625 57.582031 44.59375 57.582031 44.8125 L 57.582031 44.953125 Z M 56.734375 44.703125 C 56.742188 44.457031 56.691406 44.261719 56.585938 44.125 C 56.480469 43.984375 56.320312 43.914062 56.097656 43.914062 C 55.988281 43.914062 55.890625 43.933594 55.808594 43.976562 C 55.726562 44.019531 55.65625 44.074219 55.601562 44.144531 C 55.546875 44.214844 55.507812 44.296875 55.476562 44.394531 C 55.449219 44.492188 55.433594 44.59375 55.425781 44.703125 Z M 56.734375 44.703125 "/>
<path style=" stroke:none;fill-rule:nonzero;fill:rgb(23.137255%,34.901961%,59.607843%);fill-opacity:1;" d="M 60.371094 45.71875 C 60.371094 45.894531 60.339844 46.046875 60.273438 46.183594 C 60.207031 46.316406 60.113281 46.429688 59.992188 46.519531 C 59.871094 46.613281 59.730469 46.679688 59.566406 46.722656 C 59.402344 46.769531 59.222656 46.792969 59.03125 46.792969 C 58.914062 46.792969 58.804688 46.785156 58.699219 46.765625 C 58.59375 46.75 58.5 46.726562 58.414062 46.699219 C 58.332031 46.671875 58.261719 46.644531 58.207031 46.617188 C 58.152344 46.589844 58.109375 46.5625 58.085938 46.539062 C 58.058594 46.515625 58.039062 46.476562 58.023438 46.425781 C 58.011719 46.375 58.003906 46.296875 58.003906 46.195312 C 58.003906 46.125 58.007812 46.074219 58.011719 46.03125 C 58.015625 45.992188 58.023438 45.960938 58.03125 45.933594 C 58.042969 45.910156 58.050781 45.894531 58.066406 45.886719 C 58.082031 45.878906 58.097656 45.875 58.117188 45.875 C 58.144531 45.875 58.183594 45.890625 58.230469 45.917969 C 58.28125 45.949219 58.34375 45.980469 58.417969 46.011719 C 58.492188 46.046875 58.578125 46.082031 58.675781 46.109375 C 58.773438 46.140625 58.886719 46.15625 59.011719 46.15625 C 59.089844 46.15625 59.160156 46.148438 59.222656 46.132812 C 59.285156 46.117188 59.335938 46.09375 59.382812 46.0625 C 59.425781 46.03125 59.460938 45.992188 59.484375 45.949219 C 59.507812 45.902344 59.519531 45.847656 59.519531 45.789062 C 59.519531 45.71875 59.496094 45.65625 59.457031 45.609375 C 59.414062 45.558594 59.355469 45.515625 59.285156 45.476562 C 59.214844 45.441406 59.132812 45.40625 59.042969 45.375 C 58.957031 45.339844 58.863281 45.304688 58.769531 45.265625 C 58.675781 45.226562 58.585938 45.179688 58.496094 45.128906 C 58.40625 45.078125 58.324219 45.015625 58.253906 44.941406 C 58.183594 44.867188 58.128906 44.777344 58.085938 44.675781 C 58.042969 44.570312 58.019531 44.445312 58.019531 44.296875 C 58.019531 44.152344 58.050781 44.015625 58.105469 43.890625 C 58.164062 43.765625 58.25 43.660156 58.355469 43.570312 C 58.464844 43.484375 58.597656 43.414062 58.753906 43.367188 C 58.910156 43.316406 59.085938 43.292969 59.28125 43.292969 C 59.378906 43.292969 59.472656 43.300781 59.566406 43.316406 C 59.65625 43.328125 59.738281 43.347656 59.8125 43.367188 C 59.886719 43.386719 59.949219 43.410156 60.003906 43.433594 C 60.050781 43.460938 60.089844 43.480469 60.113281 43.496094 C 60.132812 43.515625 60.148438 43.53125 60.15625 43.550781 C 60.167969 43.566406 60.175781 43.585938 60.179688 43.613281 C 60.183594 43.636719 60.1875 43.667969 60.191406 43.703125 C 60.195312 43.738281 60.195312 43.785156 60.195312 43.835938 C 60.195312 43.898438 60.195312 43.949219 60.191406 43.988281 C 60.1875 44.027344 60.179688 44.058594 60.171875 44.082031 C 60.164062 44.105469 60.152344 44.121094 60.140625 44.128906 C 60.125 44.136719 60.109375 44.140625 60.089844 44.140625 C 60.070312 44.140625 60.039062 44.128906 59.992188 44.105469 C 59.949219 44.082031 59.894531 44.054688 59.828125 44.027344 C 59.761719 44 59.6875 43.972656 59.597656 43.949219 C 59.511719 43.925781 59.414062 43.914062 59.300781 43.914062 C 59.222656 43.914062 59.15625 43.921875 59.097656 43.9375 C 59.039062 43.953125 58.992188 43.976562 58.953125 44.007812 C 58.917969 44.035156 58.890625 44.070312 58.871094 44.113281 C 58.851562 44.152344 58.84375 44.195312 58.84375 44.242188 C 58.84375 44.316406 58.863281 44.375 58.910156 44.425781 C 58.953125 44.472656 59.011719 44.515625 59.082031 44.550781 C 59.15625 44.589844 59.234375 44.625 59.328125 44.65625 C 59.417969 44.6875 59.511719 44.726562 59.605469 44.761719 C 59.699219 44.800781 59.792969 44.84375 59.882812 44.898438 C 59.976562 44.949219 60.058594 45.011719 60.128906 45.085938 C 60.203125 45.160156 60.257812 45.246094 60.304688 45.351562 C 60.351562 45.453125 60.371094 45.574219 60.371094 45.71875 Z M 60.371094 45.71875 "/>
<path style=" stroke:none;fill-rule:nonzero;fill:rgb(23.137255%,34.901961%,59.607843%);fill-opacity:1;" d="M 63.78125 44.953125 C 63.78125 45.058594 63.757812 45.136719 63.707031 45.1875 C 63.660156 45.238281 63.597656 45.265625 63.511719 45.265625 L 61.625 45.265625 C 61.625 45.398438 61.640625 45.515625 61.671875 45.625 C 61.703125 45.734375 61.753906 45.824219 61.820312 45.898438 C 61.890625 45.976562 61.976562 46.03125 62.085938 46.070312 C 62.191406 46.113281 62.320312 46.132812 62.472656 46.132812 C 62.625 46.132812 62.757812 46.121094 62.875 46.097656 C 62.992188 46.074219 63.089844 46.050781 63.175781 46.023438 C 63.261719 45.996094 63.332031 45.972656 63.386719 45.953125 C 63.441406 45.929688 63.488281 45.917969 63.519531 45.917969 C 63.542969 45.917969 63.558594 45.921875 63.574219 45.929688 C 63.585938 45.9375 63.597656 45.953125 63.609375 45.972656 C 63.617188 45.992188 63.625 46.023438 63.628906 46.0625 C 63.628906 46.101562 63.632812 46.148438 63.632812 46.207031 C 63.632812 46.257812 63.632812 46.300781 63.628906 46.335938 C 63.625 46.371094 63.625 46.402344 63.617188 46.429688 C 63.613281 46.453125 63.605469 46.476562 63.597656 46.492188 C 63.589844 46.511719 63.578125 46.527344 63.5625 46.542969 C 63.546875 46.558594 63.503906 46.582031 63.4375 46.609375 C 63.371094 46.636719 63.285156 46.664062 63.179688 46.691406 C 63.078125 46.71875 62.957031 46.742188 62.824219 46.761719 C 62.6875 46.78125 62.542969 46.789062 62.390625 46.789062 C 62.117188 46.789062 61.875 46.753906 61.667969 46.6875 C 61.460938 46.617188 61.285156 46.511719 61.148438 46.371094 C 61.007812 46.226562 60.902344 46.050781 60.835938 45.835938 C 60.765625 45.617188 60.734375 45.367188 60.734375 45.074219 C 60.734375 44.800781 60.769531 44.550781 60.839844 44.328125 C 60.914062 44.109375 61.015625 43.921875 61.152344 43.765625 C 61.289062 43.613281 61.457031 43.496094 61.652344 43.414062 C 61.847656 43.332031 62.070312 43.292969 62.3125 43.292969 C 62.574219 43.292969 62.796875 43.328125 62.980469 43.40625 C 63.164062 43.484375 63.316406 43.589844 63.433594 43.726562 C 63.550781 43.859375 63.636719 44.019531 63.695312 44.207031 C 63.75 44.390625 63.777344 44.59375 63.777344 44.8125 L 63.777344 44.953125 Z M 62.933594 44.703125 C 62.9375 44.457031 62.890625 44.261719 62.785156 44.125 C 62.679688 43.984375 62.515625 43.914062 62.296875 43.914062 C 62.183594 43.914062 62.085938 43.933594 62.003906 43.976562 C 61.921875 44.019531 61.855469 44.074219 61.800781 44.144531 C 61.746094 44.214844 61.703125 44.296875 61.675781 44.394531 C 61.644531 44.492188 61.628906 44.59375 61.625 44.703125 Z M 62.933594 44.703125 "/>
<path style=" stroke:none;fill-rule:nonzero;fill:rgb(23.137255%,34.901961%,59.607843%);fill-opacity:1;" d="M 67.027344 46.601562 C 67.027344 46.636719 67.015625 46.660156 66.992188 46.679688 C 66.96875 46.699219 66.933594 46.710938 66.882812 46.71875 C 66.835938 46.726562 66.761719 46.730469 66.664062 46.730469 C 66.558594 46.730469 66.484375 46.726562 66.433594 46.71875 C 66.386719 46.710938 66.355469 46.699219 66.335938 46.679688 C 66.316406 46.660156 66.304688 46.636719 66.304688 46.601562 L 66.304688 46.355469 C 66.179688 46.492188 66.03125 46.601562 65.871094 46.675781 C 65.707031 46.753906 65.523438 46.792969 65.324219 46.792969 C 65.160156 46.792969 65.007812 46.769531 64.871094 46.726562 C 64.734375 46.683594 64.613281 46.621094 64.515625 46.535156 C 64.414062 46.453125 64.335938 46.347656 64.28125 46.222656 C 64.222656 46.097656 64.195312 45.949219 64.195312 45.785156 C 64.195312 45.601562 64.230469 45.445312 64.300781 45.3125 C 64.371094 45.179688 64.476562 45.070312 64.617188 44.980469 C 64.757812 44.894531 64.933594 44.832031 65.140625 44.789062 C 65.351562 44.746094 65.59375 44.726562 65.867188 44.726562 L 66.171875 44.726562 L 66.171875 44.539062 C 66.171875 44.441406 66.160156 44.355469 66.140625 44.285156 C 66.121094 44.210938 66.089844 44.148438 66.042969 44.101562 C 66 44.050781 65.9375 44.015625 65.863281 43.992188 C 65.789062 43.96875 65.695312 43.957031 65.585938 43.957031 C 65.4375 43.957031 65.308594 43.972656 65.191406 44.007812 C 65.078125 44.039062 64.976562 44.074219 64.886719 44.113281 C 64.800781 44.152344 64.726562 44.191406 64.667969 44.222656 C 64.609375 44.253906 64.5625 44.269531 64.523438 44.269531 C 64.5 44.269531 64.476562 44.261719 64.457031 44.246094 C 64.4375 44.230469 64.421875 44.207031 64.40625 44.175781 C 64.394531 44.148438 64.382812 44.109375 64.378906 44.066406 C 64.371094 44.023438 64.367188 43.972656 64.367188 43.921875 C 64.367188 43.847656 64.375 43.792969 64.382812 43.75 C 64.394531 43.707031 64.417969 43.671875 64.449219 43.636719 C 64.484375 43.601562 64.539062 43.566406 64.621094 43.523438 C 64.703125 43.484375 64.796875 43.449219 64.90625 43.414062 C 65.015625 43.378906 65.132812 43.347656 65.261719 43.328125 C 65.390625 43.304688 65.523438 43.292969 65.660156 43.292969 C 65.902344 43.292969 66.113281 43.316406 66.285156 43.367188 C 66.457031 43.414062 66.597656 43.484375 66.710938 43.585938 C 66.820312 43.683594 66.902344 43.808594 66.953125 43.964844 C 67.003906 44.121094 67.03125 44.304688 67.03125 44.515625 L 67.03125 46.601562 Z M 66.167969 45.273438 L 65.835938 45.273438 C 65.695312 45.273438 65.574219 45.285156 65.472656 45.308594 C 65.375 45.328125 65.292969 45.359375 65.230469 45.402344 C 65.167969 45.441406 65.121094 45.492188 65.09375 45.550781 C 65.066406 45.613281 65.050781 45.679688 65.050781 45.753906 C 65.050781 45.886719 65.089844 45.988281 65.171875 46.0625 C 65.253906 46.136719 65.371094 46.171875 65.515625 46.171875 C 65.636719 46.171875 65.753906 46.140625 65.855469 46.078125 C 65.957031 46.015625 66.0625 45.925781 66.167969 45.804688 Z M 66.167969 45.273438 "/>
<path style=" stroke:none;fill-rule:nonzero;fill:rgb(23.137255%,34.901961%,59.607843%);fill-opacity:1;" d="M 69.777344 43.78125 C 69.777344 43.863281 69.777344 43.933594 69.773438 43.984375 C 69.765625 44.039062 69.761719 44.082031 69.75 44.113281 C 69.742188 44.140625 69.730469 44.160156 69.714844 44.175781 C 69.699219 44.183594 69.679688 44.191406 69.65625 44.191406 C 69.636719 44.191406 69.617188 44.1875 69.59375 44.179688 C 69.570312 44.171875 69.546875 44.164062 69.515625 44.152344 C 69.488281 44.144531 69.457031 44.136719 69.421875 44.128906 C 69.386719 44.121094 69.347656 44.117188 69.308594 44.117188 C 69.257812 44.117188 69.210938 44.125 69.160156 44.144531 C 69.113281 44.164062 69.0625 44.195312 69.007812 44.238281 C 68.957031 44.277344 68.902344 44.335938 68.847656 44.402344 C 68.789062 44.472656 68.730469 44.558594 68.664062 44.660156 L 68.664062 46.59375 C 68.664062 46.617188 68.65625 46.636719 68.644531 46.652344 C 68.628906 46.671875 68.605469 46.6875 68.570312 46.699219 C 68.539062 46.707031 68.492188 46.71875 68.4375 46.722656 C 68.382812 46.730469 68.3125 46.730469 68.226562 46.730469 C 68.140625 46.730469 68.070312 46.730469 68.011719 46.722656 C 67.957031 46.71875 67.914062 46.707031 67.878906 46.699219 C 67.847656 46.6875 67.820312 46.671875 67.808594 46.652344 C 67.792969 46.636719 67.789062 46.617188 67.789062 46.59375 L 67.789062 43.492188 C 67.789062 43.46875 67.792969 43.449219 67.804688 43.433594 C 67.816406 43.414062 67.835938 43.398438 67.867188 43.386719 C 67.898438 43.378906 67.9375 43.367188 67.984375 43.363281 C 68.03125 43.355469 68.089844 43.355469 68.164062 43.355469 C 68.238281 43.355469 68.296875 43.355469 68.347656 43.363281 C 68.394531 43.367188 68.433594 43.378906 68.460938 43.386719 C 68.488281 43.398438 68.507812 43.414062 68.515625 43.433594 C 68.527344 43.449219 68.535156 43.46875 68.535156 43.492188 L 68.535156 43.878906 C 68.617188 43.761719 68.691406 43.667969 68.765625 43.59375 C 68.835938 43.515625 68.902344 43.457031 68.96875 43.414062 C 69.035156 43.367188 69.097656 43.339844 69.164062 43.320312 C 69.230469 43.304688 69.292969 43.292969 69.359375 43.292969 C 69.386719 43.292969 69.421875 43.296875 69.457031 43.300781 C 69.492188 43.304688 69.527344 43.308594 69.5625 43.316406 C 69.601562 43.324219 69.632812 43.335938 69.660156 43.34375 C 69.6875 43.355469 69.710938 43.367188 69.722656 43.378906 C 69.734375 43.390625 69.742188 43.402344 69.75 43.417969 C 69.757812 43.429688 69.761719 43.449219 69.765625 43.472656 C 69.769531 43.5 69.773438 43.535156 69.777344 43.582031 C 69.777344 43.632812 69.777344 43.699219 69.777344 43.78125 Z M 69.777344 43.78125 "/>
<path style=" stroke:none;fill-rule:nonzero;fill:rgb(23.137255%,34.901961%,59.607843%);fill-opacity:1;" d="M 72.449219 46.097656 C 72.449219 46.160156 72.449219 46.210938 72.445312 46.25 C 72.441406 46.292969 72.4375 46.324219 72.429688 46.351562 C 72.425781 46.382812 72.417969 46.402344 72.410156 46.421875 C 72.402344 46.4375 72.382812 46.460938 72.355469 46.488281 C 72.328125 46.515625 72.28125 46.546875 72.210938 46.585938 C 72.144531 46.621094 72.070312 46.65625 71.984375 46.6875 C 71.898438 46.71875 71.804688 46.742188 71.703125 46.761719 C 71.601562 46.777344 71.5 46.789062 71.390625 46.789062 C 71.152344 46.789062 70.941406 46.75 70.757812 46.675781 C 70.574219 46.601562 70.417969 46.492188 70.292969 46.347656 C 70.167969 46.203125 70.074219 46.027344 70.011719 45.816406 C 69.945312 45.609375 69.914062 45.371094 69.914062 45.101562 C 69.914062 44.792969 69.953125 44.523438 70.03125 44.296875 C 70.109375 44.070312 70.21875 43.882812 70.355469 43.734375 C 70.496094 43.589844 70.660156 43.476562 70.851562 43.40625 C 71.039062 43.335938 71.25 43.296875 71.476562 43.296875 C 71.570312 43.296875 71.660156 43.304688 71.75 43.324219 C 71.839844 43.339844 71.921875 43.359375 72 43.386719 C 72.074219 43.417969 72.144531 43.449219 72.207031 43.484375 C 72.269531 43.515625 72.3125 43.546875 72.339844 43.574219 C 72.363281 43.597656 72.382812 43.621094 72.390625 43.636719 C 72.402344 43.65625 72.410156 43.675781 72.414062 43.707031 C 72.421875 43.734375 72.425781 43.765625 72.429688 43.808594 C 72.433594 43.847656 72.433594 43.898438 72.433594 43.957031 C 72.433594 44.089844 72.425781 44.183594 72.402344 44.238281 C 72.378906 44.292969 72.347656 44.320312 72.308594 44.320312 C 72.269531 44.320312 72.230469 44.304688 72.183594 44.273438 C 72.140625 44.238281 72.089844 44.203125 72.027344 44.164062 C 71.96875 44.125 71.894531 44.089844 71.8125 44.058594 C 71.730469 44.023438 71.628906 44.007812 71.515625 44.007812 C 71.285156 44.007812 71.113281 44.09375 70.992188 44.269531 C 70.871094 44.445312 70.8125 44.703125 70.8125 45.039062 C 70.8125 45.207031 70.828125 45.355469 70.855469 45.480469 C 70.886719 45.609375 70.933594 45.714844 70.992188 45.800781 C 71.050781 45.886719 71.125 45.953125 71.214844 45.996094 C 71.304688 46.039062 71.40625 46.058594 71.523438 46.058594 C 71.644531 46.058594 71.75 46.039062 71.835938 46.003906 C 71.921875 45.96875 72 45.929688 72.066406 45.882812 C 72.128906 45.839844 72.183594 45.800781 72.226562 45.765625 C 72.273438 45.730469 72.308594 45.710938 72.339844 45.710938 C 72.359375 45.710938 72.378906 45.714844 72.390625 45.726562 C 72.40625 45.738281 72.414062 45.761719 72.425781 45.792969 C 72.433594 45.824219 72.4375 45.863281 72.445312 45.910156 C 72.445312 45.960938 72.449219 46.023438 72.449219 46.097656 Z M 72.449219 46.097656 "/>
<path style=" stroke:none;fill-rule:nonzero;fill:rgb(23.137255%,34.901961%,59.607843%);fill-opacity:1;" d="M 75.929688 46.59375 C 75.929688 46.617188 75.921875 46.636719 75.910156 46.652344 C 75.894531 46.671875 75.871094 46.6875 75.839844 46.699219 C 75.808594 46.707031 75.761719 46.71875 75.707031 46.722656 C 75.648438 46.730469 75.578125 46.730469 75.496094 46.730469 C 75.410156 46.730469 75.339844 46.730469 75.28125 46.722656 C 75.226562 46.71875 75.179688 46.707031 75.148438 46.699219 C 75.117188 46.6875 75.09375 46.671875 75.078125 46.652344 C 75.066406 46.636719 75.058594 46.617188 75.058594 46.59375 L 75.058594 44.824219 C 75.058594 44.671875 75.046875 44.554688 75.023438 44.46875 C 75.003906 44.382812 74.96875 44.308594 74.929688 44.25 C 74.886719 44.1875 74.835938 44.140625 74.769531 44.105469 C 74.703125 44.074219 74.625 44.054688 74.535156 44.054688 C 74.425781 44.054688 74.3125 44.097656 74.199219 44.175781 C 74.085938 44.257812 73.96875 44.375 73.84375 44.53125 L 73.84375 46.59375 C 73.84375 46.617188 73.839844 46.636719 73.824219 46.652344 C 73.808594 46.671875 73.785156 46.6875 73.753906 46.699219 C 73.71875 46.707031 73.675781 46.71875 73.617188 46.722656 C 73.5625 46.730469 73.492188 46.730469 73.40625 46.730469 C 73.320312 46.730469 73.25 46.730469 73.195312 46.722656 C 73.140625 46.71875 73.09375 46.707031 73.0625 46.699219 C 73.027344 46.6875 73.003906 46.671875 72.988281 46.652344 C 72.976562 46.636719 72.96875 46.617188 72.96875 46.59375 L 72.96875 42.023438 C 72.96875 42 72.976562 41.976562 72.988281 41.960938 C 73.003906 41.941406 73.027344 41.925781 73.0625 41.914062 C 73.09375 41.898438 73.136719 41.890625 73.195312 41.882812 C 73.25 41.875 73.320312 41.871094 73.40625 41.871094 C 73.492188 41.871094 73.5625 41.875 73.617188 41.882812 C 73.675781 41.890625 73.71875 41.898438 73.753906 41.914062 C 73.785156 41.925781 73.808594 41.941406 73.824219 41.960938 C 73.839844 41.976562 73.84375 42 73.84375 42.023438 L 73.84375 43.734375 C 73.996094 43.589844 74.148438 43.476562 74.304688 43.402344 C 74.460938 43.332031 74.625 43.292969 74.792969 43.292969 C 75.003906 43.292969 75.183594 43.328125 75.328125 43.398438 C 75.472656 43.46875 75.589844 43.5625 75.679688 43.683594 C 75.769531 43.804688 75.832031 43.945312 75.871094 44.105469 C 75.910156 44.269531 75.929688 44.460938 75.929688 44.691406 Z M 75.929688 46.59375 "/>
<path style=" stroke:none;fill-rule:nonzero;fill:rgb(23.137255%,34.901961%,59.607843%);fill-opacity:1;" d="M 54.375 51.789062 C 54.375 51.875 54.371094 51.941406 54.367188 51.996094 C 54.363281 52.050781 54.355469 52.089844 54.347656 52.121094 C 54.335938 52.152344 54.324219 52.171875 54.308594 52.183594 C 54.292969 52.195312 54.277344 52.203125 54.253906 52.203125 C 54.234375 52.203125 54.214844 52.199219 54.191406 52.1875 C 54.167969 52.179688 54.140625 52.171875 54.113281 52.164062 C 54.082031 52.152344 54.050781 52.144531 54.015625 52.136719 C 53.980469 52.128906 53.945312 52.125 53.902344 52.125 C 53.851562 52.125 53.804688 52.136719 53.757812 52.15625 C 53.707031 52.175781 53.65625 52.207031 53.605469 52.246094 C 53.550781 52.289062 53.496094 52.34375 53.441406 52.414062 C 53.382812 52.484375 53.324219 52.570312 53.257812 52.671875 L 53.257812 54.601562 C 53.257812 54.625 53.253906 54.648438 53.238281 54.664062 C 53.222656 54.679688 53.199219 54.695312 53.167969 54.707031 C 53.132812 54.71875 53.089844 54.726562 53.03125 54.734375 C 52.976562 54.738281 52.90625 54.742188 52.820312 54.742188 C 52.734375 54.742188 52.664062 54.738281 52.609375 54.734375 C 52.554688 54.726562 52.507812 54.71875 52.476562 54.707031 C 52.441406 54.695312 52.417969 54.679688 52.402344 54.664062 C 52.390625 54.648438 52.382812 54.625 52.382812 54.601562 L 52.382812 51.503906 C 52.382812 51.480469 52.386719 51.460938 52.398438 51.441406 C 52.410156 51.425781 52.433594 51.410156 52.460938 51.398438 C 52.492188 51.386719 52.53125 51.378906 52.578125 51.371094 C 52.625 51.367188 52.6875 51.363281 52.757812 51.363281 C 52.832031 51.363281 52.894531 51.367188 52.941406 51.371094 C 52.992188 51.378906 53.027344 51.386719 53.054688 51.398438 C 53.082031 51.410156 53.101562 51.425781 53.113281 51.441406 C 53.125 51.460938 53.128906 51.480469 53.128906 51.503906 L 53.128906 51.886719 C 53.210938 51.773438 53.289062 51.675781 53.359375 51.601562 C 53.429688 51.527344 53.5 51.46875 53.566406 51.421875 C 53.628906 51.378906 53.695312 51.347656 53.757812 51.332031 C 53.824219 51.3125 53.890625 51.304688 53.953125 51.304688 C 53.984375 51.304688 54.015625 51.308594 54.050781 51.308594 C 54.085938 51.3125 54.121094 51.320312 54.160156 51.328125 C 54.195312 51.335938 54.230469 51.34375 54.257812 51.355469 C 54.285156 51.367188 54.304688 51.375 54.316406 51.386719 C 54.328125 51.398438 54.339844 51.414062 54.34375 51.425781 C 54.351562 51.441406 54.355469 51.460938 54.359375 51.484375 C 54.367188 51.507812 54.367188 51.542969 54.371094 51.59375 C 54.375 51.640625 54.375 51.707031 54.375 51.789062 Z M 54.375 51.789062 "/>
<path style=" stroke:none;fill-rule:nonzero;fill:rgb(23.137255%,34.901961%,59.607843%);fill-opacity:1;" d="M 55.742188 50.453125 C 55.742188 50.628906 55.707031 50.75 55.632812 50.816406 C 55.5625 50.882812 55.429688 50.917969 55.234375 50.917969 C 55.035156 50.917969 54.902344 50.886719 54.835938 50.820312 C 54.765625 50.757812 54.734375 50.636719 54.734375 50.46875 C 54.734375 50.292969 54.769531 50.171875 54.839844 50.101562 C 54.910156 50.035156 55.042969 50 55.238281 50 C 55.433594 50 55.566406 50.035156 55.636719 50.097656 C 55.707031 50.164062 55.742188 50.28125 55.742188 50.453125 Z M 55.675781 54.601562 C 55.675781 54.625 55.667969 54.644531 55.65625 54.664062 C 55.640625 54.679688 55.617188 54.695312 55.582031 54.707031 C 55.550781 54.71875 55.503906 54.726562 55.449219 54.734375 C 55.394531 54.738281 55.324219 54.742188 55.238281 54.742188 C 55.152344 54.742188 55.082031 54.738281 55.023438 54.734375 C 54.96875 54.726562 54.925781 54.71875 54.890625 54.707031 C 54.859375 54.695312 54.835938 54.679688 54.820312 54.664062 C 54.804688 54.644531 54.800781 54.625 54.800781 54.601562 L 54.800781 51.507812 C 54.800781 51.484375 54.804688 51.464844 54.820312 51.449219 C 54.835938 51.429688 54.855469 51.414062 54.890625 51.402344 C 54.925781 51.390625 54.96875 51.378906 55.023438 51.375 C 55.082031 51.367188 55.152344 51.363281 55.238281 51.363281 C 55.324219 51.363281 55.394531 51.367188 55.449219 51.375 C 55.503906 51.378906 55.550781 51.390625 55.582031 51.402344 C 55.617188 51.414062 55.640625 51.429688 55.65625 51.449219 C 55.667969 51.464844 55.675781 51.484375 55.675781 51.507812 Z M 55.675781 54.601562 "/>
<path style=" stroke:none;fill-rule:nonzero;fill:rgb(23.137255%,34.901961%,59.607843%);fill-opacity:1;" d="M 59.375 54.601562 C 59.375 54.628906 59.367188 54.648438 59.355469 54.667969 C 59.347656 54.683594 59.324219 54.699219 59.296875 54.710938 C 59.269531 54.722656 59.234375 54.730469 59.183594 54.734375 C 59.136719 54.738281 59.078125 54.742188 59.011719 54.742188 C 58.9375 54.742188 58.875 54.738281 58.828125 54.734375 C 58.78125 54.730469 58.746094 54.722656 58.714844 54.710938 C 58.6875 54.699219 58.667969 54.683594 58.652344 54.667969 C 58.640625 54.648438 58.632812 54.628906 58.632812 54.601562 L 58.632812 54.257812 C 58.476562 54.429688 58.308594 54.5625 58.132812 54.660156 C 57.957031 54.753906 57.761719 54.800781 57.550781 54.800781 C 57.3125 54.800781 57.113281 54.753906 56.949219 54.664062 C 56.789062 54.574219 56.652344 54.449219 56.550781 54.292969 C 56.449219 54.136719 56.371094 53.957031 56.328125 53.75 C 56.28125 53.542969 56.257812 53.324219 56.257812 53.09375 C 56.257812 52.820312 56.285156 52.570312 56.347656 52.351562 C 56.40625 52.128906 56.492188 51.941406 56.605469 51.789062 C 56.71875 51.632812 56.859375 51.511719 57.027344 51.429688 C 57.199219 51.347656 57.394531 51.304688 57.613281 51.304688 C 57.785156 51.304688 57.945312 51.339844 58.085938 51.410156 C 58.226562 51.480469 58.367188 51.585938 58.507812 51.722656 L 58.507812 50.042969 C 58.507812 50.019531 58.511719 49.996094 58.523438 49.980469 C 58.539062 49.960938 58.5625 49.945312 58.59375 49.933594 C 58.628906 49.921875 58.671875 49.910156 58.730469 49.902344 C 58.785156 49.898438 58.855469 49.894531 58.941406 49.894531 C 59.027344 49.894531 59.097656 49.894531 59.152344 49.902344 C 59.207031 49.910156 59.253906 49.921875 59.285156 49.933594 C 59.316406 49.945312 59.339844 49.960938 59.355469 49.980469 C 59.367188 49.996094 59.375 50.019531 59.375 50.042969 Z M 58.507812 52.53125 C 58.378906 52.375 58.261719 52.253906 58.144531 52.167969 C 58.03125 52.085938 57.910156 52.042969 57.785156 52.042969 C 57.671875 52.042969 57.574219 52.074219 57.492188 52.128906 C 57.410156 52.1875 57.34375 52.261719 57.292969 52.355469 C 57.242188 52.453125 57.207031 52.558594 57.183594 52.675781 C 57.15625 52.792969 57.144531 52.910156 57.144531 53.035156 C 57.144531 53.164062 57.15625 53.292969 57.175781 53.414062 C 57.199219 53.535156 57.234375 53.648438 57.28125 53.742188 C 57.328125 53.839844 57.390625 53.914062 57.46875 53.972656 C 57.546875 54.03125 57.648438 54.0625 57.769531 54.0625 C 57.828125 54.0625 57.886719 54.050781 57.941406 54.035156 C 58 54.015625 58.058594 53.988281 58.117188 53.949219 C 58.175781 53.910156 58.238281 53.859375 58.300781 53.792969 C 58.363281 53.730469 58.429688 53.652344 58.503906 53.558594 L 58.503906 52.53125 Z M 58.507812 52.53125 "/>
<path style=" stroke:none;fill-rule:nonzero;fill:rgb(23.137255%,34.901961%,59.607843%);fill-opacity:1;" d="M 63.003906 52.960938 C 63.003906 53.070312 62.980469 53.148438 62.933594 53.199219 C 62.886719 53.25 62.820312 53.273438 62.738281 53.273438 L 60.851562 53.273438 C 60.851562 53.40625 60.867188 53.527344 60.898438 53.636719 C 60.929688 53.742188 60.976562 53.835938 61.046875 53.910156 C 61.113281 53.984375 61.203125 54.042969 61.308594 54.082031 C 61.417969 54.121094 61.546875 54.140625 61.699219 54.140625 C 61.851562 54.140625 61.984375 54.128906 62.101562 54.109375 C 62.214844 54.085938 62.316406 54.0625 62.402344 54.035156 C 62.484375 54.007812 62.554688 53.984375 62.613281 53.960938 C 62.667969 53.941406 62.710938 53.929688 62.746094 53.929688 C 62.765625 53.929688 62.785156 53.933594 62.796875 53.941406 C 62.8125 53.949219 62.824219 53.964844 62.832031 53.984375 C 62.84375 54.003906 62.847656 54.035156 62.851562 54.074219 C 62.855469 54.109375 62.859375 54.160156 62.859375 54.214844 C 62.859375 54.265625 62.855469 54.3125 62.855469 54.347656 C 62.851562 54.382812 62.847656 54.414062 62.84375 54.4375 C 62.839844 54.464844 62.832031 54.484375 62.824219 54.503906 C 62.8125 54.519531 62.800781 54.539062 62.785156 54.554688 C 62.769531 54.570312 62.730469 54.59375 62.664062 54.621094 C 62.597656 54.648438 62.511719 54.675781 62.40625 54.703125 C 62.300781 54.730469 62.183594 54.753906 62.046875 54.769531 C 61.914062 54.789062 61.769531 54.800781 61.617188 54.800781 C 61.339844 54.800781 61.097656 54.765625 60.890625 54.695312 C 60.683594 54.628906 60.511719 54.523438 60.371094 54.378906 C 60.234375 54.238281 60.128906 54.058594 60.0625 53.84375 C 59.992188 53.628906 59.957031 53.375 59.957031 53.085938 C 59.957031 52.8125 59.992188 52.5625 60.066406 52.339844 C 60.136719 52.121094 60.242188 51.929688 60.378906 51.777344 C 60.515625 51.625 60.683594 51.503906 60.878906 51.425781 C 61.074219 51.34375 61.292969 51.300781 61.539062 51.300781 C 61.796875 51.300781 62.019531 51.339844 62.207031 51.417969 C 62.390625 51.492188 62.539062 51.601562 62.660156 51.734375 C 62.777344 51.871094 62.863281 52.03125 62.917969 52.214844 C 62.976562 52.402344 63.003906 52.605469 63.003906 52.820312 Z M 62.15625 52.710938 C 62.164062 52.464844 62.113281 52.273438 62.007812 52.132812 C 61.902344 51.992188 61.742188 51.921875 61.519531 51.921875 C 61.410156 51.921875 61.3125 51.941406 61.230469 51.984375 C 61.148438 52.027344 61.078125 52.082031 61.023438 52.152344 C 60.96875 52.226562 60.929688 52.308594 60.898438 52.402344 C 60.871094 52.5 60.851562 52.601562 60.847656 52.710938 Z M 62.15625 52.710938 "/>
<path style=" stroke:none;fill-rule:nonzero;fill:rgb(23.137255%,34.901961%,59.607843%);fill-opacity:1;" d="M 65.601562 51.789062 C 65.601562 51.875 65.601562 51.941406 65.597656 51.996094 C 65.589844 52.050781 65.585938 52.089844 65.574219 52.121094 C 65.566406 52.152344 65.554688 52.171875 65.539062 52.183594 C 65.523438 52.195312 65.503906 52.203125 65.480469 52.203125 C 65.460938 52.203125 65.441406 52.199219 65.417969 52.1875 C 65.394531 52.179688 65.371094 52.171875 65.339844 52.164062 C 65.3125 52.152344 65.28125 52.144531 65.246094 52.136719 C 65.210938 52.128906 65.171875 52.125 65.128906 52.125 C 65.082031 52.125 65.035156 52.136719 64.984375 52.15625 C 64.9375 52.175781 64.886719 52.207031 64.832031 52.246094 C 64.78125 52.289062 64.726562 52.34375 64.671875 52.414062 C 64.613281 52.484375 64.550781 52.570312 64.488281 52.671875 L 64.488281 54.601562 C 64.488281 54.625 64.480469 54.648438 64.464844 54.664062 C 64.453125 54.679688 64.429688 54.695312 64.394531 54.707031 C 64.363281 54.71875 64.316406 54.726562 64.261719 54.734375 C 64.207031 54.738281 64.136719 54.742188 64.050781 54.742188 C 63.964844 54.742188 63.894531 54.738281 63.835938 54.734375 C 63.78125 54.726562 63.738281 54.71875 63.703125 54.707031 C 63.671875 54.695312 63.644531 54.679688 63.632812 54.664062 C 63.617188 54.648438 63.613281 54.625 63.613281 54.601562 L 63.613281 51.503906 C 63.613281 51.480469 63.617188 51.460938 63.628906 51.441406 C 63.640625 51.425781 63.660156 51.410156 63.691406 51.398438 C 63.722656 51.386719 63.761719 51.378906 63.808594 51.371094 C 63.855469 51.367188 63.914062 51.363281 63.988281 51.363281 C 64.0625 51.363281 64.121094 51.367188 64.171875 51.371094 C 64.21875 51.378906 64.257812 51.386719 64.285156 51.398438 C 64.3125 51.410156 64.328125 51.425781 64.339844 51.441406 C 64.351562 51.460938 64.359375 51.480469 64.359375 51.503906 L 64.359375 51.886719 C 64.441406 51.773438 64.515625 51.675781 64.589844 51.601562 C 64.660156 51.527344 64.726562 51.46875 64.792969 51.421875 C 64.859375 51.378906 64.921875 51.347656 64.988281 51.332031 C 65.050781 51.3125 65.117188 51.304688 65.183594 51.304688 C 65.210938 51.304688 65.246094 51.308594 65.28125 51.308594 C 65.316406 51.3125 65.351562 51.320312 65.386719 51.328125 C 65.425781 51.335938 65.457031 51.34375 65.484375 51.355469 C 65.511719 51.367188 65.535156 51.375 65.546875 51.386719 C 65.558594 51.398438 65.566406 51.414062 65.574219 51.425781 C 65.578125 51.441406 65.585938 51.460938 65.589844 51.484375 C 65.59375 51.507812 65.597656 51.542969 65.601562 51.59375 C 65.601562 51.640625 65.601562 51.707031 65.601562 51.789062 Z M 65.601562 51.789062 "/>
<path style=" stroke:none;fill-rule:nonzero;fill:rgb(23.137255%,34.901961%,59.607843%);fill-opacity:1;" d="M 36.835938 36.832031 C 29.785156 36.832031 24.070312 42.726562 24.070312 50 C 24.070312 57.273438 29.785156 63.167969 36.835938 63.167969 C 43.882812 63.167969 49.597656 57.273438 49.597656 50 C 49.597656 42.726562 43.882812 36.832031 36.835938 36.832031 Z M 36.464844 56.75 C 36.464844 56.855469 36.4375 56.949219 36.386719 57.027344 C 36.332031 57.105469 36.238281 57.171875 36.097656 57.226562 C 35.960938 57.28125 35.785156 57.320312 35.566406 57.347656 C 35.351562 57.371094 35.078125 57.386719 34.75 57.386719 C 34.410156 57.386719 34.128906 57.371094 33.90625 57.347656 C 33.6875 57.320312 33.515625 57.28125 33.390625 57.226562 C 33.269531 57.171875 33.183594 57.105469 33.128906 57.027344 C 33.078125 56.949219 33.050781 56.855469 33.050781 56.75 L 33.050781 54.988281 C 32.679688 55.515625 32.332031 55.953125 32.003906 56.296875 C 31.675781 56.640625 31.363281 56.914062 31.066406 57.117188 C 30.769531 57.316406 30.472656 57.457031 30.175781 57.535156 C 29.878906 57.617188 29.585938 57.65625 29.289062 57.65625 C 29.148438 57.65625 29 57.648438 28.84375 57.632812 C 28.683594 57.617188 28.519531 57.589844 28.351562 57.550781 C 28.179688 57.515625 28.035156 57.472656 27.90625 57.425781 C 27.777344 57.378906 27.6875 57.328125 27.628906 57.273438 C 27.570312 57.21875 27.527344 57.164062 27.5 57.097656 C 27.472656 57.035156 27.449219 56.949219 27.429688 56.835938 C 27.40625 56.726562 27.394531 56.558594 27.382812 56.335938 C 27.371094 56.117188 27.367188 55.8125 27.367188 55.433594 C 27.367188 55.050781 27.375 54.738281 27.398438 54.496094 C 27.417969 54.25 27.453125 54.0625 27.492188 53.925781 C 27.535156 53.785156 27.589844 53.691406 27.660156 53.636719 C 27.730469 53.585938 27.816406 53.558594 27.921875 53.558594 C 28.007812 53.558594 28.101562 53.578125 28.207031 53.613281 C 28.3125 53.652344 28.433594 53.691406 28.566406 53.734375 C 28.699219 53.773438 28.84375 53.816406 29.003906 53.851562 C 29.160156 53.890625 29.335938 53.90625 29.527344 53.90625 C 29.746094 53.90625 29.96875 53.863281 30.191406 53.773438 C 30.414062 53.683594 30.644531 53.542969 30.882812 53.351562 C 31.121094 53.160156 31.371094 52.90625 31.628906 52.589844 C 31.886719 52.273438 32.167969 51.882812 32.460938 51.414062 L 32.460938 42.585938 C 32.460938 42.480469 32.496094 42.386719 32.558594 42.308594 C 32.621094 42.226562 32.730469 42.160156 32.882812 42.109375 C 33.035156 42.054688 33.242188 42.015625 33.496094 41.988281 C 33.75 41.964844 34.070312 41.949219 34.464844 41.949219 C 34.855469 41.949219 35.179688 41.960938 35.433594 41.988281 C 35.6875 42.015625 35.890625 42.054688 36.042969 42.109375 C 36.195312 42.160156 36.304688 42.226562 36.367188 42.308594 C 36.433594 42.386719 36.464844 42.480469 36.464844 42.585938 Z M 46.175781 45.683594 C 46.132812 45.820312 46.078125 45.914062 46.011719 45.96875 C 45.941406 46.019531 45.855469 46.046875 45.75 46.046875 C 45.664062 46.046875 45.570312 46.027344 45.460938 45.992188 C 45.355469 45.953125 45.238281 45.914062 45.105469 45.871094 C 44.972656 45.832031 44.828125 45.789062 44.667969 45.753906 C 44.511719 45.714844 44.335938 45.699219 44.144531 45.699219 C 43.921875 45.699219 43.699219 45.742188 43.476562 45.832031 C 43.257812 45.921875 43.023438 46.0625 42.789062 46.253906 C 42.550781 46.445312 42.300781 46.699219 42.042969 47.015625 C 41.78125 47.332031 41.503906 47.726562 41.207031 48.191406 L 41.207031 57.019531 C 41.207031 57.125 41.175781 57.21875 41.113281 57.296875 C 41.050781 57.378906 40.941406 57.441406 40.789062 57.496094 C 40.632812 57.550781 40.429688 57.589844 40.175781 57.617188 C 39.921875 57.640625 39.597656 57.65625 39.207031 57.65625 C 38.816406 57.65625 38.492188 57.644531 38.238281 57.617188 C 37.984375 57.589844 37.78125 57.550781 37.628906 57.496094 C 37.472656 57.445312 37.367188 57.378906 37.300781 57.296875 C 37.238281 57.21875 37.207031 57.125 37.207031 57.019531 L 37.207031 42.855469 C 37.207031 42.75 37.234375 42.65625 37.285156 42.578125 C 37.339844 42.496094 37.433594 42.433594 37.570312 42.378906 C 37.710938 42.324219 37.886719 42.285156 38.105469 42.257812 C 38.320312 42.234375 38.59375 42.21875 38.921875 42.21875 C 39.261719 42.21875 39.542969 42.234375 39.761719 42.257812 C 39.984375 42.285156 40.15625 42.324219 40.28125 42.378906 C 40.402344 42.433594 40.488281 42.496094 40.542969 42.578125 C 40.59375 42.65625 40.621094 42.75 40.621094 42.855469 L 40.621094 44.617188 C 40.992188 44.089844 41.339844 43.652344 41.667969 43.308594 C 41.996094 42.964844 42.308594 42.691406 42.605469 42.488281 C 42.902344 42.289062 43.199219 42.148438 43.496094 42.070312 C 43.792969 41.988281 44.085938 41.949219 44.382812 41.949219 C 44.519531 41.949219 44.671875 41.957031 44.828125 41.972656 C 44.988281 41.988281 45.152344 42.015625 45.320312 42.054688 C 45.488281 42.089844 45.636719 42.132812 45.765625 42.179688 C 45.894531 42.226562 45.984375 42.277344 46.042969 42.332031 C 46.101562 42.382812 46.144531 42.441406 46.171875 42.507812 C 46.199219 42.570312 46.21875 42.65625 46.242188 42.769531 C 46.261719 42.878906 46.277344 43.046875 46.289062 43.269531 C 46.300781 43.488281 46.304688 43.792969 46.304688 44.171875 C 46.304688 44.554688 46.292969 44.867188 46.273438 45.109375 C 46.25 45.355469 46.21875 45.542969 46.175781 45.683594 Z M 46.175781 45.683594 "/>
</g>
</svg>
