<svg id="Layer_1" data-name="Layer 1" xmlns="http://www.w3.org/2000/svg" viewBox="0 0 423 187.07"><defs><style>.cls-1,.cls-3{fill:#1877f2;}.cls-2{fill:#fff;}.cls-3{font-size:60.01px;font-family:Calibri-Bold, Calibri;font-weight:700;}.cls-4{letter-spacing:-0.01em;}.cls-5{letter-spacing:0em;}.cls-6{letter-spacing:-0.01em;}</style></defs><title>rr (3)</title><path class="cls-1" d="M179.82,94.76a84.95,84.95,0,1,1-84.95-85A85,85,0,0,1,179.82,94.76Z"/><path class="cls-2" d="M155.37,52.16q0,3.87-.21,6.35a19.78,19.78,0,0,1-.65,3.88,3.75,3.75,0,0,1-1.13,1.94,2.83,2.83,0,0,1-1.78.53,5.89,5.89,0,0,1-1.93-.37q-1.08-.37-2.43-.81c-.89-.28-1.88-.55-3-.81a15.73,15.73,0,0,0-3.55-.37,12,12,0,0,0-4.53.91,18.9,18.9,0,0,0-4.68,2.86,34.21,34.21,0,0,0-5.06,5.17,84.24,84.24,0,0,0-5.66,8v59.89a2.93,2.93,0,0,1-.64,1.88,4.76,4.76,0,0,1-2.21,1.35,19.18,19.18,0,0,1-4.15.8,65.27,65.27,0,0,1-6.57.27,65.55,65.55,0,0,1-6.57-.27,19.2,19.2,0,0,1-4.14-.8,4.76,4.76,0,0,1-2.21-1.35,2.94,2.94,0,0,1-.65-1.88V43.22a3.33,3.33,0,0,1,.54-1.89A4,4,0,0,1,96.14,40a15.43,15.43,0,0,1,3.61-.81,47,47,0,0,1,5.55-.27,49.49,49.49,0,0,1,5.7.27,12.84,12.84,0,0,1,3.5.81,3.93,3.93,0,0,1,1.78,1.34,3.33,3.33,0,0,1,.54,1.89v12a75.48,75.48,0,0,1,7.11-8.88,40,40,0,0,1,6.35-5.55,20.11,20.11,0,0,1,6-2.85,23.15,23.15,0,0,1,6-.81,29.86,29.86,0,0,1,6.36.7,22.17,22.17,0,0,1,3,.86,6.21,6.21,0,0,1,1.89,1,3.44,3.44,0,0,1,.86,1.19,9,9,0,0,1,.48,1.78,26.28,26.28,0,0,1,.33,3.39C155.34,47.53,155.37,49.57,155.37,52.16Z"/><path class="cls-2" d="M25.44,128.52q0-3.89.22-6.36a19.16,19.16,0,0,1,.64-3.88,3.89,3.89,0,0,1,1.13-1.94,2.89,2.89,0,0,1,1.78-.53,6,6,0,0,1,1.94.37c.72.25,1.52.52,2.42.81s1.89.56,3,.81a15.74,15.74,0,0,0,3.56.38,12,12,0,0,0,4.52-.92,19,19,0,0,0,4.68-2.85,35.2,35.2,0,0,0,5.07-5.17,84.59,84.59,0,0,0,5.65-8V41.39a3,3,0,0,1,.65-1.89,4.72,4.72,0,0,1,2.2-1.35,20.08,20.08,0,0,1,4.15-.8,65.27,65.27,0,0,1,6.57-.27,65.27,65.27,0,0,1,6.57.27,19.94,19.94,0,0,1,4.15.8,4.72,4.72,0,0,1,2.2,1.35,3,3,0,0,1,.65,1.89v96.06a3.33,3.33,0,0,1-.54,1.89,3.92,3.92,0,0,1-1.94,1.34,15.31,15.31,0,0,1-3.61.81,46.86,46.86,0,0,1-5.54.27,49.68,49.68,0,0,1-5.71-.27,12.93,12.93,0,0,1-3.5-.81,4,4,0,0,1-1.78-1.34,3.4,3.4,0,0,1-.53-1.89V125.5a77.6,77.6,0,0,1-7.11,8.88,39.91,39.91,0,0,1-6.36,5.55,19.87,19.87,0,0,1-6,2.85,23.15,23.15,0,0,1-6,.81,29.55,29.55,0,0,1-3-.16,30,30,0,0,1-3.34-.54,22.34,22.34,0,0,1-3-.86,5.82,5.82,0,0,1-1.88-1,3.31,3.31,0,0,1-.86-1.19,9,9,0,0,1-.49-1.77,27.07,27.07,0,0,1-.32-3.4C25.48,133.15,25.44,131.1,25.44,128.52Z"/><text class="cls-3" transform="translate(199.93 78.75) scale(1.01 1)"><tspan class="cls-4">r</tspan><tspan class="cls-5" x="20.66" y="0">esea</tspan><tspan class="cls-6" x="134.64" y="0">r</tspan><tspan x="155.12" y="0">ch </tspan><tspan x="0" y="53.09">rider</tspan></text><rect class="cls-1" x="187.92" y="11.75" width="3.01" height="166" transform="translate(378.84 189.5) rotate(180)"/></svg>