<svg xmlns="http://www.w3.org/2000/svg" width="20.111" height="27.5" viewBox="0 0 20.111 27.5">
  <g id="Class_room_Clicked" transform="translate(0.009 0.5)">
    <g id="Group_6" data-name="Group 6" transform="translate(-110.509 -11)">
      <g id="Class_room_Clicked-2" data-name="Class room Clicked" transform="translate(110.509 11)">
        <path id="Path_13" data-name="Path 13" d="M6.681,84.27H0v5.644H19.111V84.27H6.681Z" transform="translate(0.491 -70.667)" fill="#1877f2" stroke="#0a75ff" stroke-linejoin="bevel" stroke-width="1"/>
        <path id="Path_14" data-name="Path 14" d="M19.111,4.129V0H0V11.579H19.111V6.935h0V4.129Z" transform="translate(0.491)" fill="#1877f2" stroke="#0a75ff" stroke-linejoin="bevel" stroke-width="1"/>
        <g id="Path_15" data-name="Path 15" transform="translate(0 -108.526)" fill="#1877f2" stroke-linejoin="bevel">
          <path d="M 5.723215103149414 135.0256652832031 L 0.977195143699646 135.0256652832031 L 0.4999951720237732 135.0256652832031 L 0.4999951720237732 134.7333984375 L 0.4999951720237732 130.6322784423828 L 0.4999951720237732 130.3399963378906 L 0.977195143699646 130.3399963378906 L 5.723215103149414 130.3399963378906 L 5.723215103149414 135.0256652832031 Z" stroke="none"/>
          <path d="M 0.999995231628418 130.8399963378906 L 0.999995231628418 134.5256652832031 L 5.223215103149414 134.5256652832031 L 5.223215103149414 130.8399963378906 L 0.999995231628418 130.8399963378906 M -4.76837158203125e-06 129.8399963378906 L 6.223215103149414 129.8399963378906 L 6.223215103149414 135.5256652832031 L -4.76837158203125e-06 135.5256652832031 L -4.76837158203125e-06 129.8399963378906 Z" stroke="none" fill="#0a75ff"/>
        </g>
        <g id="Path_16" data-name="Path 16" transform="translate(-38.112 -108.526)" fill="#1877f2" stroke-linejoin="bevel">
          <path d="M 50.72321701049805 135.0256652832031 L 45.97880554199219 135.0256652832031 L 45.49999618530273 135.0256652832031 L 45.49999618530273 134.7333984375 L 45.49999618530273 130.6322784423828 L 45.49999618530273 130.3399963378906 L 45.97880554199219 130.3399963378906 L 50.72321701049805 130.3399963378906 L 50.72321701049805 135.0256652832031 Z" stroke="none"/>
          <path d="M 45.99999618530273 130.8399963378906 L 45.99999618530273 134.5256652832031 L 50.22321701049805 134.5256652832031 L 50.22321701049805 130.8399963378906 L 45.99999618530273 130.8399963378906 M 44.99999618530273 129.8399963378906 L 51.22321701049805 129.8399963378906 L 51.22321701049805 135.5256652832031 L 44.99999618530273 135.5256652832031 L 44.99999618530273 129.8399963378906 Z" stroke="none" fill="#0a75ff"/>
        </g>
        <g id="Path_17" data-name="Path 17" transform="translate(-76.233 -108.526)" fill="#1877f2" stroke-linejoin="bevel">
          <path d="M 95.73322296142578 135.0256652832031 L 90.98720550537109 135.0256652832031 L 90.51000213623047 135.0256652832031 L 90.51000213623047 134.7333984375 L 90.51000213623047 130.6322784423828 L 90.51000213623047 130.3399963378906 L 90.98720550537109 130.3399963378906 L 95.73322296142578 130.3399963378906 L 95.73322296142578 135.0256652832031 Z" stroke="none"/>
          <path d="M 91.01000213623047 130.8399963378906 L 91.01000213623047 134.5256652832031 L 95.23322296142578 134.5256652832031 L 95.23322296142578 130.8399963378906 L 91.01000213623047 130.8399963378906 M 90.01000213623047 129.8399963378906 L 96.23322296142578 129.8399963378906 L 96.23322296142578 135.5256652832031 L 90.01000213623047 135.5256652832031 L 90.01000213623047 129.8399963378906 Z" stroke="none" fill="#0a75ff"/>
        </g>
      </g>
    </g>
  </g>
</svg>
