<?xml version="1.0" encoding="utf-8"?>
<!-- Generator: Adobe Illustrator 25.0.0, SVG Export Plug-In . SVG Version: 6.00 Build 0)  -->
<svg version="1.1" id="Layer_1" xmlns="http://www.w3.org/2000/svg" xmlns:xlink="http://www.w3.org/1999/xlink" x="0px" y="0px"
	 viewBox="0 0 424.92 546.94" style="enable-background:new 0 0 424.92 546.94;" xml:space="preserve">
<style type="text/css">
	.st0{fill:#1877F2;}
</style>
<g>
	<path class="st0" d="M143.98,546.94h136.96V415.4H143.98V546.94z M176.53,445h71.71v72.34h-71.71V445z"/>
	<path class="st0" d="M0,546.94h136.96V415.4H0V546.94z M32.55,445h71.71v72.34H32.55V445z"/>
	<path class="st0" d="M287.96,546.94h136.96V415.4H287.96V546.94z M320.51,445h71.71v72.34h-71.71V445z"/>
	<path class="st0" d="M0,400.3h424.92V269.61H0V400.3z M32.55,299.09h359.82v71.72H32.55V299.09z"/>
	<path class="st0" d="M0,0v254.36h424.93V0H0z M392.37,224.88H32.55V29.49h359.81V224.88z"/>
</g>
</svg>
