<svg id="Layer_1" data-name="Layer 1" xmlns="http://www.w3.org/2000/svg" viewBox="0 0 128.73 166.87"><defs><style>.cls-1{fill:#1877f2;}</style></defs><title>RR_class room 2Logo (3)</title><polygon class="cls-1" points="45 84.27 0 84.27 0 121.03 45 121.03 83.72 121.03 128.73 121.03 128.73 84.27 83.72 84.27 45 84.27"/><polygon class="cls-1" points="128.73 26.89 128.73 0 83.72 0 45 0 0 0 0 26.89 0 36.76 0 38.66 0 45.17 0 75.41 45 75.41 83.72 75.41 128.73 75.41 128.73 45.17 128.73 45.17 128.73 26.89 128.73 26.89"/><polygon class="cls-1" points="0 129.84 0 135 0 161.71 0 166.87 6.08 166.87 38.72 166.87 38.72 129.84 6.08 129.84 0 129.84"/><polygon class="cls-1" points="45 129.84 45 135 45 161.71 45 166.87 51.09 166.87 83.72 166.87 83.72 129.84 51.09 129.84 45 129.84"/><polygon class="cls-1" points="90.01 129.84 90.01 135 90.01 161.71 90.01 166.87 96.09 166.87 128.73 166.87 128.73 129.84 96.09 129.84 90.01 129.84"/></svg>