<svg xmlns="http://www.w3.org/2000/svg" width="20.861" height="27.875" viewBox="0 0 20.861 27.875">
  <g id="Class_room" transform="translate(0.384 0.875)">
    <path id="Path_13" data-name="Path 13" d="M6.681,84.27H0v5.644H19.111V84.27H6.681Z" transform="translate(0.491 -70.667)" fill="#fff" stroke="#1877f1" stroke-linejoin="bevel" stroke-width="1.75"/>
    <path id="Path_14" data-name="Path 14" d="M19.111,4.129V0H0V11.579H19.111V6.935h0V4.129Z" transform="translate(0.491)" fill="#fff" stroke="#1877f1" stroke-linejoin="bevel" stroke-width="1.75"/>
    <g id="Path_15" data-name="Path 15" transform="translate(0 -108.526)" fill="#fff">
      <path d="M 5.348215103149414 134.6506652832031 L 0.977195143699646 134.6506652832031 L 0.8749951720237732 134.6506652832031 L 0.8749951720237732 130.7149963378906 L 0.977195143699646 130.7149963378906 L 5.348215103149414 130.7149963378906 L 5.348215103149414 134.6506652832031 Z" stroke="none"/>
      <path d="M 1.749995231628418 131.5899963378906 L 1.749995231628418 133.7756652832031 L 4.473215103149414 133.7756652832031 L 4.473215103149414 131.5899963378906 L 1.749995231628418 131.5899963378906 M -4.76837158203125e-06 129.8399963378906 L 6.223215103149414 129.8399963378906 L 6.223215103149414 135.5256652832031 L -4.76837158203125e-06 135.5256652832031 L -4.76837158203125e-06 129.8399963378906 Z" stroke="none" fill="#1877f1"/>
    </g>
    <g id="Path_16" data-name="Path 16" transform="translate(-38.112 -108.526)" fill="#fff">
      <path d="M 50.34821701049805 134.6506652832031 L 45.97880554199219 134.6506652832031 L 45.87499618530273 134.6506652832031 L 45.87499618530273 130.7149963378906 L 45.97880554199219 130.7149963378906 L 50.34821701049805 130.7149963378906 L 50.34821701049805 134.6506652832031 Z" stroke="none"/>
      <path d="M 46.74999618530273 131.5899963378906 L 46.74999618530273 133.7756652832031 L 49.47321701049805 133.7756652832031 L 49.47321701049805 131.5899963378906 L 46.74999618530273 131.5899963378906 M 44.99999618530273 129.8399963378906 L 51.22321701049805 129.8399963378906 L 51.22321701049805 135.5256652832031 L 44.99999618530273 135.5256652832031 L 44.99999618530273 129.8399963378906 Z" stroke="none" fill="#1877f1"/>
    </g>
    <g id="Path_17" data-name="Path 17" transform="translate(-76.233 -108.526)" fill="#fff">
      <path d="M 95.35822296142578 134.6506652832031 L 90.98720550537109 134.6506652832031 L 90.88500213623047 134.6506652832031 L 90.88500213623047 130.7149963378906 L 90.98720550537109 130.7149963378906 L 95.35822296142578 130.7149963378906 L 95.35822296142578 134.6506652832031 Z" stroke="none"/>
      <path d="M 91.76000213623047 131.5899963378906 L 91.76000213623047 133.7756652832031 L 94.48322296142578 133.7756652832031 L 94.48322296142578 131.5899963378906 L 91.76000213623047 131.5899963378906 M 90.01000213623047 129.8399963378906 L 96.23322296142578 129.8399963378906 L 96.23322296142578 135.5256652832031 L 90.01000213623047 135.5256652832031 L 90.01000213623047 129.8399963378906 Z" stroke="none" fill="#1877f1"/>
    </g>
  </g>
</svg>
