<svg id="Group_Clicked" xmlns="http://www.w3.org/2000/svg" width="21" height="26.5" viewBox="0 0 21 26.5">
  <g id="Group_clicked-2" data-name="Group clicked">
    <g id="Rectangle_15" data-name="Rectangle 15" transform="translate(0 6.5)" fill="#1877f2" stroke="#1877f2" stroke-linecap="square" stroke-linejoin="bevel" stroke-width="1">
      <rect width="5" height="20" stroke="none"/>
      <rect x="0.5" y="0.5" width="4" height="19" fill="none"/>
    </g>
    <g id="Rectangle_13" data-name="Rectangle 13" transform="translate(16 6.5)" fill="#1877f2" stroke="#1877f2" stroke-linecap="square" stroke-linejoin="bevel" stroke-width="1">
      <rect width="5" height="20" stroke="none"/>
      <rect x="0.5" y="0.5" width="4" height="19" fill="none"/>
    </g>
    <g id="Rectangle_14" data-name="Rectangle 14" transform="translate(6 6.5)" fill="#1877f2" stroke="#1877f2" stroke-linecap="square" stroke-linejoin="bevel" stroke-width="1">
      <rect width="9" height="20" stroke="none"/>
      <rect x="0.5" y="0.5" width="8" height="19" fill="none"/>
    </g>
    <g id="Rectangle_16" data-name="Rectangle 16" transform="translate(8)" fill="#1877f2" stroke="#1877f2" stroke-linecap="square" stroke-linejoin="bevel" stroke-width="1">
      <rect width="5" height="5" stroke="none"/>
      <rect x="0.5" y="0.5" width="4" height="4" fill="none"/>
    </g>
    <g id="Path_26" data-name="Path 26" transform="translate(1.4 0.183)" fill="#1877f2" stroke-linecap="square" stroke-linejoin="bevel">
      <path d="M 1.493142127990723 4.05576229095459 L 0.5000020861625671 4.05576229095459 L 0.5000020861625671 0.5000020861625671 L 4.046888828277588 0.5000020861625671 L 3.998045682907104 3.275722026824951 L 1.993142127990723 3.275722026824951 L 1.493142127990723 3.275722026824951 L 1.493142127990723 3.775722026824951 L 1.493142127990723 4.05576229095459 Z" stroke="none"/>
      <path d="M 1.000002145767212 1.000002145767212 L 1.000002145767212 3.555762052536011 L 1.213102102279663 3.555762052536011 L 1.993142127990723 2.775722026824951 L 3.506759166717529 2.775722026824951 L 3.538005828857422 1.000002145767212 L 1.000002145767212 1.000002145767212 M 1.9073486328125e-06 1.9073486328125e-06 L 4.55576229095459 1.9073486328125e-06 L 4.489322185516357 3.775722026824951 L 1.993142127990723 3.775722026824951 L 1.993142127990723 4.55576229095459 L 1.9073486328125e-06 4.55576229095459 L 1.9073486328125e-06 1.9073486328125e-06 Z" stroke="none" fill="#1877f2"/>
    </g>
    <g id="Path_25" data-name="Path 25" transform="translate(15 0.183)" fill="#1877f2" stroke-linecap="square" stroke-linejoin="bevel">
      <path d="M 4.05576229095459 4.05576229095459 L 3.08619213104248 4.05576229095459 L 3.08619213104248 3.789942026138306 L 3.08619213104248 3.289942026138306 L 2.58619213104248 3.289942026138306 L 0.5000020861625671 3.289942026138306 L 0.5000020861625671 0.5000020861625671 L 4.05576229095459 0.5000020861625671 L 4.05576229095459 4.05576229095459 Z" stroke="none"/>
      <path d="M 1.000002145767212 1.000002145767212 L 1.000002145767212 2.789942264556885 L 2.58619213104248 2.789942264556885 L 3.352012157440186 3.555762052536011 L 3.555762052536011 3.555762052536011 L 3.555762052536011 1.000002145767212 L 1.000002145767212 1.000002145767212 M 1.9073486328125e-06 1.9073486328125e-06 L 4.55576229095459 1.9073486328125e-06 L 4.55576229095459 4.55576229095459 L 2.58619213104248 4.55576229095459 L 2.58619213104248 3.789942026138306 L 1.9073486328125e-06 3.789942026138306 L 1.9073486328125e-06 1.9073486328125e-06 Z" stroke="none" fill="#1877f2"/>
    </g>
  </g>
</svg>
