<svg id="Group" xmlns="http://www.w3.org/2000/svg" width="21" height="26.5" viewBox="0 0 21 26.5">
  <g id="Rectangle_2" data-name="Rectangle 2" transform="translate(0 6.5)" fill="#fff" stroke="#1877f2" stroke-linecap="square" stroke-linejoin="bevel" stroke-width="1.5">
    <rect width="5" height="20" stroke="none"/>
    <rect x="0.75" y="0.75" width="3.5" height="18.5" fill="none"/>
  </g>
  <g id="Rectangle_12" data-name="Rectangle 12" transform="translate(16 6.5)" fill="#fff" stroke="#1877f2" stroke-linecap="square" stroke-linejoin="bevel" stroke-width="1.5">
    <rect width="5" height="20" stroke="none"/>
    <rect x="0.75" y="0.75" width="3.5" height="18.5" fill="none"/>
  </g>
  <g id="Rectangle_3" data-name="Rectangle 3" transform="translate(6 6.5)" fill="#fff" stroke="#1877f2" stroke-linecap="square" stroke-linejoin="bevel" stroke-width="1.5">
    <rect width="9" height="20" stroke="none"/>
    <rect x="0.75" y="0.75" width="7.5" height="18.5" fill="none"/>
  </g>
  <g id="Rectangle_5" data-name="Rectangle 5" transform="translate(8)" fill="#fff" stroke="#1877f2" stroke-linecap="square" stroke-linejoin="bevel" stroke-width="1.5">
    <rect width="5" height="5" stroke="none"/>
    <rect x="0.75" y="0.75" width="3.5" height="3.5" fill="none"/>
  </g>
  <g id="Path_11" data-name="Path 11" transform="translate(1.4 0.183)" fill="#fff" stroke-linecap="square" stroke-linejoin="bevel">
    <path d="M 1.243142127990723 3.805762052536011 L 0.7500020861625671 3.805762052536011 L 0.7500020861625671 0.7500020861625671 L 3.792452335357666 0.7500020861625671 L 3.752407312393188 3.025722026824951 L 1.993142127990723 3.025722026824951 L 1.243142127990723 3.025722026824951 L 1.243142127990723 3.775722026824951 L 1.243142127990723 3.805762052536011 Z" stroke="none"/>
    <path d="M 1.500002145767212 1.500002145767212 L 1.500002145767212 2.768862247467041 L 1.993142127990723 2.275722026824951 L 3.015482664108276 2.275722026824951 L 3.029132843017578 1.500002145767212 L 1.500002145767212 1.500002145767212 M 1.9073486328125e-06 1.9073486328125e-06 L 4.55576229095459 1.9073486328125e-06 L 4.489322185516357 3.775722026824951 L 1.993142127990723 3.775722026824951 L 1.993142127990723 4.55576229095459 L 1.9073486328125e-06 4.55576229095459 L 1.9073486328125e-06 1.9073486328125e-06 Z" stroke="none" fill="#1877f2"/>
  </g>
  <g id="Path_12" data-name="Path 12" transform="translate(15 0.183)" fill="#fff" stroke-linecap="square" stroke-linejoin="bevel">
    <path d="M 3.805762052536011 3.805762052536011 L 3.33619213104248 3.805762052536011 L 3.33619213104248 3.789942026138306 L 3.33619213104248 3.039942026138306 L 2.58619213104248 3.039942026138306 L 0.7500020861625671 3.039942026138306 L 0.7500020861625671 0.7500020861625671 L 3.805762052536011 0.7500020861625671 L 3.805762052536011 3.805762052536011 Z" stroke="none"/>
    <path d="M 1.500002145767212 1.500002145767212 L 1.500002145767212 2.289942026138306 L 2.58619213104248 2.289942026138306 L 3.055762052536011 2.759511947631836 L 3.055762052536011 1.500002145767212 L 1.500002145767212 1.500002145767212 M 1.9073486328125e-06 1.9073486328125e-06 L 4.55576229095459 1.9073486328125e-06 L 4.55576229095459 4.55576229095459 L 2.58619213104248 4.55576229095459 L 2.58619213104248 3.789942026138306 L 1.9073486328125e-06 3.789942026138306 L 1.9073486328125e-06 1.9073486328125e-06 Z" stroke="none" fill="#1877f2"/>
  </g>
</svg>
