<?xml version="1.0" encoding="utf-8"?>
<!-- Generator: Adobe Illustrator 25.0.0, SVG Export Plug-In . SVG Version: 6.00 Build 0)  -->
<svg version="1.1" id="Layer_1" xmlns="http://www.w3.org/2000/svg" xmlns:xlink="http://www.w3.org/1999/xlink" x="0px" y="0px"
	 viewBox="0 0 568.05 556.83" style="enable-background:new 0 0 568.05 556.83;" xml:space="preserve">
<style type="text/css">
	.st0{fill:#1877F2;}
</style>
<g>
	<path class="st0" d="M0,530.66h138.07v-356.8H0V530.66z M29.01,202.25h80.04v300.02H29.01V202.25z"/>
	<path class="st0" d="M429.98,173.86v356.8h138.07v-356.8H429.98z M539.04,502.27h-80.05V202.25h80.05V502.27z"/>
	<path class="st0" d="M155.17,556.83h255.22V147.69H155.17V556.83z M182.31,180.13h200.94v344.27H182.31V180.13z"/>
	<path class="st0" d="M132.3,134.33h68.55V19.32H65.9v135.57h66.4V134.33z M107.03,127.75h-7.76V53.31h67.58v47.01h-59.82V127.75z"
		/>
	<path class="st0" d="M435.75,154.89h66.4V19.32H367.2v115.01h68.55V154.89z M401.2,100.33V53.31h67.58v74.43h-7.75v-27.42H401.2z"
		/>
	<path class="st0" d="M347.92,0H213.59v134.33h134.33V0z M317.97,108.12h-74.43V26.21h74.43V108.12z"/>
</g>
</svg>
