<svg id="Layer_1" data-name="Layer 1" xmlns="http://www.w3.org/2000/svg" viewBox="0 0 125.23 186.89"><defs><style>.cls-1{fill:#1877f2;}</style></defs><title>RR_home 1 Logo (3)</title><polygon class="cls-1" points="63.47 0 0.23 63.25 0 103.09 64.02 39.07 125.23 102.95 125.23 61.76 63.47 0"/><polygon class="cls-1" points="0.67 106.3 0.67 137.72 0.67 143.57 5.64 143.57 31.34 143.57 36.31 143.57 36.31 137.72 36.31 106.3 0.67 106.3"/><polygon class="cls-1" points="0.67 181.03 0.67 186.89 5.64 186.89 31.34 186.89 36.31 186.89 36.31 181.03 36.31 149.62 0.67 149.62 0.67 181.03"/><polygon class="cls-1" points="88.92 106.3 88.92 137.72 88.92 143.57 93.88 143.57 119.59 143.57 124.56 143.57 124.56 137.72 124.56 106.3 88.92 106.3"/><polygon class="cls-1" points="88.92 181.03 88.92 186.89 93.88 186.89 119.59 186.89 124.56 186.89 124.56 181.03 124.56 149.62 88.92 149.62 88.92 181.03"/><rect class="cls-1" x="45.05" y="106.3" width="35.38" height="80.59"/></svg>