<?xml version="1.0" encoding="utf-8"?>
<!-- Generator: Adobe Illustrator 25.0.0, SVG Export Plug-In . SVG Version: 6.00 Build 0)  -->
<svg version="1.1" id="Layer_1" xmlns="http://www.w3.org/2000/svg" xmlns:xlink="http://www.w3.org/1999/xlink" x="0px" y="0px"
	 viewBox="0 0 413.22 612.97" style="enable-background:new 0 0 413.22 612.97;" xml:space="preserve">
<style type="text/css">
	.st0{fill:#1877F2;}
</style>
<g>
	<path class="st0" d="M144.18,612.97h125.76V342.61H144.18V612.97z M172.56,373.94h69.02v207.7h-69.02V373.94z"/>
	<path class="st0" d="M2.24,612.97h126.59v-131.8H2.24V612.97z M30.73,512.63h69.62v69.01H30.73V512.63z"/>
	<path class="st0" d="M284.48,612.97h126.59v-131.8H284.48V612.97z M312.96,512.63h69.62v69.01h-69.62V512.63z"/>
	<path class="st0" d="M209.4,0L0.83,208.58L0,353.93l2.24-2.24v122.72h126.59v-131.8H11.32l199.74-199.75l191.37,199.75H284.48
		v131.8h126.59V351.63l2.15,2.25V203.82L209.4,0z M30.73,374.07h69.62v69.01H30.73V374.07z M378.55,256.13l-169-169l-171.2,171.2
		V218.5L209.37,48.82l169.18,170.43V256.13z M382.58,443.09h-69.62v-69.01h69.62V443.09z"/>
</g>
</svg>
