<svg id="Layer_1" data-name="Layer 1" xmlns="http://www.w3.org/2000/svg" viewBox="0 0 201.05 201.04"><defs><style>.cls-1{fill:#1877f2;}.cls-2{fill:#fff;}</style></defs><title>RR_Logo (3)</title><path class="cls-1" d="M194.94,100A94.95,94.95,0,1,1,100,4.94,95,95,0,0,1,194.94,100Z"/><path class="cls-2" d="M173.56,57.6q0,4.36-.24,7.14a21.18,21.18,0,0,1-.73,4.36,4.19,4.19,0,0,1-1.27,2.18,3.14,3.14,0,0,1-2,.61,6.55,6.55,0,0,1-2.18-.43c-.8-.28-1.71-.58-2.72-.9s-2.12-.63-3.33-.91a17.71,17.71,0,0,0-4-.43,13.56,13.56,0,0,0-5.08,1,21.86,21.86,0,0,0-5.27,3.21,39.44,39.44,0,0,0-5.69,5.81,92.4,92.4,0,0,0-6.35,9v67.32a3.31,3.31,0,0,1-.73,2.12,5.38,5.38,0,0,1-2.48,1.52,21.84,21.84,0,0,1-4.66.9q-2.91.3-7.39.3t-7.39-.3a21.84,21.84,0,0,1-4.66-.9,5.33,5.33,0,0,1-2.48-1.52,3.31,3.31,0,0,1-.73-2.12v-108a3.71,3.71,0,0,1,.61-2.12A4.43,4.43,0,0,1,107,43.92,17.45,17.45,0,0,1,111,43a53.38,53.38,0,0,1,6.23-.3,56.62,56.62,0,0,1,6.42.3,14.63,14.63,0,0,1,3.93.91,4.43,4.43,0,0,1,2,1.51,3.79,3.79,0,0,1,.61,2.12V61a85.89,85.89,0,0,1,8-10,45,45,0,0,1,7.14-6.23,22.2,22.2,0,0,1,6.78-3.21,25.91,25.91,0,0,1,6.78-.91q1.58,0,3.39.18a31.54,31.54,0,0,1,3.76.61,23.16,23.16,0,0,1,3.38,1,6.47,6.47,0,0,1,2.12,1.15,3.59,3.59,0,0,1,1,1.33,10.44,10.44,0,0,1,.55,2,30,30,0,0,1,.36,3.82Q173.56,53.24,173.56,57.6Z"/><path class="cls-2" d="M27.48,143.44q0-4.35.25-7.14a22.13,22.13,0,0,1,.72-4.36,4.38,4.38,0,0,1,1.27-2.18,3.23,3.23,0,0,1,2-.6,6.73,6.73,0,0,1,2.18.42c.81.28,1.72.59,2.73.91s2.12.62,3.32.91a17.86,17.86,0,0,0,4,.42,13.41,13.41,0,0,0,5.09-1,21.31,21.31,0,0,0,5.26-3.21A38.47,38.47,0,0,0,60,121.77a94.09,94.09,0,0,0,6.36-9V45.49a3.27,3.27,0,0,1,.73-2.12,5.32,5.32,0,0,1,2.48-1.51A21,21,0,0,1,74.22,41q2.91-.3,7.38-.3T89,41a21,21,0,0,1,4.66.91,5.32,5.32,0,0,1,2.48,1.51,3.27,3.27,0,0,1,.73,2.12v108a3.74,3.74,0,0,1-.6,2.12,4.48,4.48,0,0,1-2.18,1.52A17.5,17.5,0,0,1,90,158a53.16,53.16,0,0,1-6.24.31,56,56,0,0,1-6.41-.31,14.67,14.67,0,0,1-3.94-.9,4.55,4.55,0,0,1-2-1.52,3.74,3.74,0,0,1-.6-2.12V140.05a86.29,86.29,0,0,1-8,10,45.22,45.22,0,0,1-7.15,6.24,22.57,22.57,0,0,1-6.78,3.21,26.21,26.21,0,0,1-6.78.9c-1,0-2.18-.06-3.38-.18a32.9,32.9,0,0,1-3.76-.6,26.61,26.61,0,0,1-3.39-1,6.78,6.78,0,0,1-2.12-1.15,4,4,0,0,1-1-1.33,10.66,10.66,0,0,1-.54-2,31.55,31.55,0,0,1-.37-3.81Q27.48,147.8,27.48,143.44Z"/></svg>