<svg id="Classroom" xmlns="http://www.w3.org/2000/svg" width="36" height="36" viewBox="0 0 36 36">
  <g id="Ellipse_8" data-name="Ellipse 8" fill="#fff" stroke="#1876f2" stroke-width="1">
    <circle cx="18" cy="18" r="18" stroke="none"/>
    <circle cx="18" cy="18" r="17.5" fill="none"/>
  </g>
  <g id="Rectangle_26" data-name="Rectangle 26" transform="translate(10 5)" fill="#f5f5f5" stroke="#1876f2" stroke-width="3">
    <rect width="17" height="11" rx="3" stroke="none"/>
    <rect x="1.5" y="1.5" width="14" height="8" rx="1.5" fill="none"/>
  </g>
  <g id="Rectangle_27" data-name="Rectangle 27" transform="translate(10 17)" fill="#f5f5f5" stroke="#1876f2" stroke-width="3">
    <rect width="17" height="8" rx="4" stroke="none"/>
    <rect x="1.5" y="1.5" width="14" height="5" rx="2.5" fill="none"/>
  </g>
  <g id="Group_7" data-name="Group 7" transform="translate(-469 -141)">
    <g id="Rectangle_28" data-name="Rectangle 28" transform="translate(479 167)" fill="#f5f5f5" stroke="#1876f2" stroke-width="1">
      <rect width="5" height="5" rx="1" stroke="none"/>
      <rect x="0.5" y="0.5" width="4" height="4" rx="0.5" fill="none"/>
    </g>
    <g id="Rectangle_32" data-name="Rectangle 32" transform="translate(485 167)" fill="#f5f5f5" stroke="#1876f2" stroke-width="1">
      <rect width="5" height="5" rx="1" stroke="none"/>
      <rect x="0.5" y="0.5" width="4" height="4" rx="0.5" fill="none"/>
    </g>
    <g id="Rectangle_33" data-name="Rectangle 33" transform="translate(491 167)" fill="#f5f5f5" stroke="#1876f2" stroke-width="1">
      <rect width="5" height="5" rx="1" stroke="none"/>
      <rect x="0.5" y="0.5" width="4" height="4" rx="0.5" fill="none"/>
    </g>
  </g>
</svg>
