<svg id="Group" xmlns="http://www.w3.org/2000/svg" width="37" height="37" viewBox="0 0 37 37">
  <g id="Ellipse_3" data-name="Ellipse 3" fill="#fff" stroke="#1876f2" stroke-width="2">
    <circle cx="18.5" cy="18.5" r="18.5" stroke="none"/>
    <circle cx="18.5" cy="18.5" r="17.5" fill="none"/>
  </g>
  <g id="Icon_ionic-ios-people" data-name="Icon ionic-ios-people" transform="translate(-4.943 6.792)">
    <path id="Path_25" data-name="Path 25" d="M21.874,20.744c-.636-.232-1.676-.243-2.136-.423a2.993,2.993,0,0,1-.989-.469,6.338,6.338,0,0,1-.165-1.65,2.663,2.663,0,0,0,.562-.81A9.163,9.163,0,0,0,19.42,15.8s.375.162.523-.6a5.152,5.152,0,0,0,.3-1.494c-.068-.486-.33-.37-.33-.37a4.4,4.4,0,0,0,.33-2.165,3.429,3.429,0,0,0-3.67-3.421A3.44,3.44,0,0,0,12.9,11.17a4.47,4.47,0,0,0,.324,2.165s-.267-.116-.33.37.17.834.3,1.494c.148.77.523.6.523.6a9.252,9.252,0,0,0,.273,1.592,2.663,2.663,0,0,0,.562.81,6.338,6.338,0,0,1-.165,1.65,2.88,2.88,0,0,1-.989.463c-.454.179-1.494.2-2.136.434s-4.235.04-4.235,2.645H30.895C30.9,20.785,22.511,20.976,21.874,20.744Z" transform="translate(6.822 -3.541)" fill="#1876f2"/>
    <path id="Path_33" data-name="Path 33" d="M19.094,17.545c-.514-.175-1.353-.183-1.724-.319a2.493,2.493,0,0,1-.8-.353,4.474,4.474,0,0,1-.133-1.244,2.019,2.019,0,0,0,.454-.611,6.49,6.49,0,0,0,.22-1.2s.3.122.422-.454c.1-.5.293-.759.243-1.126s-.266-.279-.266-.279a3.134,3.134,0,0,0,.266-1.632,2.688,2.688,0,0,0-2.962-2.579,2.7,2.7,0,0,0-2.967,2.579,3.18,3.18,0,0,0,.261,1.632s-.216-.087-.266.279.138.628.243,1.126c.119.58.422.454.422.454a6.553,6.553,0,0,0,.22,1.2,2.019,2.019,0,0,0,.454.611,4.473,4.473,0,0,1-.133,1.244,2.4,2.4,0,0,1-.8.349c-.367.135-1.206.153-1.724.327s-3.07.969-3.07,2.932h7.358l7.412.567C22.232,19.08,19.607,17.72,19.094,17.545Z" transform="translate(15.445 -1.461)" fill="#1876f2"/>
    <path id="Path_26" data-name="Path 26" d="M9.773,20.026a4.729,4.729,0,0,0,2.327-.648c-1.08-1.637-.495-3.546-.717-5.329a2.939,2.939,0,0,0-3.253-2.842H8.1A2.948,2.948,0,0,0,4.876,14.05c-.223,1.776.4,3.9-.711,5.329a4.376,4.376,0,0,0,2.334.578h0a3.528,3.528,0,0,1-.07,1.17,1.759,1.759,0,0,1-.836.383,16.161,16.161,0,0,0-1.8.5,2.83,2.83,0,0,0-1.606,2.524H6.09c.153-.557,2.924-1.486,3.947-2.008a4.677,4.677,0,0,1,1.721-.362s.265-.418-.606-.578a5.938,5.938,0,0,1-1.337-.467C9.682,20.967,9.773,20.026,9.773,20.026Z" transform="translate(7.759 -4.703)" fill="#1876f2"/>
  </g>
</svg>
