<svg id="Group" xmlns="http://www.w3.org/2000/svg" width="34" height="34" viewBox="0 0 34 34">
  <g id="Ellipse_3" data-name="Ellipse 3" fill="none" stroke="#1876f2" stroke-width="1">
    <circle cx="17" cy="17" r="17" stroke="none"/>
    <circle cx="17" cy="17" r="16.5" fill="none"/>
  </g>
  <g id="Icon_ionic-ios-people" data-name="Icon ionic-ios-people" transform="translate(-6.974 3.792)">
    <path id="Path_25" data-name="Path 25" d="M22.71,21.242c-.673-.24-1.773-.252-2.26-.439a3.193,3.193,0,0,1-1.046-.487A6.462,6.462,0,0,1,19.23,18.6a2.767,2.767,0,0,0,.6-.841,9.352,9.352,0,0,0,.289-1.653s.4.168.553-.625c.132-.685.385-1.046.319-1.551s-.349-.385-.349-.385a4.5,4.5,0,0,0,.349-2.248A3.6,3.6,0,0,0,17.1,7.748,3.609,3.609,0,0,0,13.213,11.3a4.568,4.568,0,0,0,.343,2.248s-.282-.12-.349.385.18.866.319,1.551c.156.8.553.625.553.625a9.443,9.443,0,0,0,.289,1.653,2.767,2.767,0,0,0,.6.841,6.462,6.462,0,0,1-.174,1.713,3.073,3.073,0,0,1-1.046.481c-.481.186-1.581.21-2.26.451s-4.024,1.334-4.024,4.039H26.826C26.832,22.577,23.383,21.483,22.71,21.242Z" transform="translate(6.822 -3.541)" fill="#1876f2"/>
    <path id="Path_33" data-name="Path 33" d="M19.094,18.043c-.514-.183-1.353-.193-1.724-.335a2.436,2.436,0,0,1-.8-.371,4.93,4.93,0,0,1-.133-1.307,2.111,2.111,0,0,0,.454-.642,7.135,7.135,0,0,0,.22-1.261s.3.128.422-.477c.1-.523.293-.8.243-1.183s-.266-.293-.266-.293a3.434,3.434,0,0,0,.266-1.715,2.744,2.744,0,0,0-2.962-2.71,2.753,2.753,0,0,0-2.967,2.71,3.485,3.485,0,0,0,.261,1.715s-.216-.092-.266.293.138.66.243,1.183c.119.61.422.477.422.477a7.2,7.2,0,0,0,.22,1.261,2.111,2.111,0,0,0,.454.642,4.93,4.93,0,0,1-.133,1.307,2.344,2.344,0,0,1-.8.367c-.367.142-1.206.16-1.724.344s-3.07,1.018-3.07,3.081H22.234C22.238,19.061,19.607,18.226,19.094,18.043Z" transform="translate(16.506 -1.461)" fill="#1876f2"/>
    <path id="Path_26" data-name="Path 26" d="M9.773,20.026a4.729,4.729,0,0,0,2.327-.648c-1.08-1.637-.495-3.546-.717-5.329a2.939,2.939,0,0,0-3.253-2.842H8.1A2.948,2.948,0,0,0,4.876,14.05c-.223,1.776.4,3.9-.711,5.329a4.376,4.376,0,0,0,2.334.578h0a3.528,3.528,0,0,1-.07,1.17,1.759,1.759,0,0,1-.836.383,16.161,16.161,0,0,0-1.8.5A2.933,2.933,0,0,0,2.215,24.6H7.808a5,5,0,0,1,2.229-2.076,4.677,4.677,0,0,1,1.721-.362s.265-.418-.606-.578a5.938,5.938,0,0,1-1.337-.467C9.682,20.967,9.773,20.026,9.773,20.026Z" transform="translate(7.759 -4.056)" fill="#1876f2"/>
  </g>
</svg>
