<svg xmlns="http://www.w3.org/2000/svg" xmlns:xlink="http://www.w3.org/1999/xlink" width="577.028" height="355.486" viewBox="0 0 577.028 355.486">
  <defs>
    <linearGradient id="linear-gradient" x1="0.217" y1="0.115" x2="0.795" y2="0.914" gradientUnits="objectBoundingBox">
      <stop offset="0" stop-color="#1a7fff"/>
      <stop offset="1" stop-color="#166bda"/>
    </linearGradient>
    <filter id="Path_3" x="0" y="0" width="353.887" height="355.486" filterUnits="userSpaceOnUse">
      <feOffset dx="6.71" dy="13.42" input="SourceAlpha"/>
      <feGaussianBlur stdDeviation="12.581" result="blur"/>
      <feFlood flood-color="#0a3061" flood-opacity="0.471"/>
      <feComposite operator="in" in2="blur"/>
      <feComposite in="SourceGraphic"/>
    </filter>
    <filter id="Path_5">
      <feOffset dx="3.355" dy="5.033" input="SourceAlpha"/>
      <feGaussianBlur stdDeviation="6.71" result="blur-2"/>
      <feFlood flood-opacity="0.502" result="color"/>
      <feComposite operator="out" in="SourceGraphic" in2="blur-2"/>
      <feComposite operator="in" in="color"/>
      <feComposite operator="in" in2="SourceGraphic"/>
    </filter>
    <filter id="Path_6">
      <feOffset dx="3.355" dy="5.033" input="SourceAlpha"/>
      <feGaussianBlur stdDeviation="6.71" result="blur-3"/>
      <feFlood flood-opacity="0.502" result="color-2"/>
      <feComposite operator="out" in="SourceGraphic" in2="blur-3"/>
      <feComposite operator="in" in="color-2"/>
      <feComposite operator="in" in2="SourceGraphic"/>
    </filter>
  </defs>
  <g id="Logo_update" transform="translate(31.028 24.316)">
    <line id="Line_1" data-name="Line 1" x1="0.556" y2="254.44" transform="translate(299.113 13.503)" fill="none" stroke="#1770e3" stroke-width="5"/>
    <g transform="matrix(1, 0, 0, 1, -31.03, -24.32)" filter="url(#Path_3)">
      <path id="Path_3-2" data-name="Path 3" d="M286.856,148.45c-.089,77.3-62.454,139.9-139.313,139.837S8.42,225.524,8.455,148.223,70.811,8.279,147.67,8.287a138.791,138.791,0,0,1,98.467,41.057,140.419,140.419,0,0,1,40.719,99.105Z" transform="translate(22.58 16.04)" fill="url(#linear-gradient)"/>
    </g>
    <g data-type="innerShadowGroup">
      <path id="Path_5-2" data-name="Path 5" d="M265.307,90.536q0,5.748-.313,9.413a28.191,28.191,0,0,1-.953,5.748,5.536,5.536,0,0,1-1.657,2.874,4.07,4.07,0,0,1-2.61.8,8.472,8.472,0,0,1-2.844-.566c-1.045-.37-2.232-.765-3.55-1.186s-2.766-.83-4.346-1.205a22.889,22.889,0,0,0-5.22-.566,17.54,17.54,0,0,0-6.627,1.319,28.475,28.475,0,0,0-6.878,4.231,51.754,51.754,0,0,0-7.423,7.659,121.849,121.849,0,0,0-8.287,11.865v88.752a4.392,4.392,0,0,1-.953,2.795,7.014,7.014,0,0,1-3.237,2.009,28.245,28.245,0,0,1-6.081,1.186,115.967,115.967,0,0,1-19.288,0,28.245,28.245,0,0,1-6.081-1.186,6.945,6.945,0,0,1-3.237-2.009,4.392,4.392,0,0,1-.953-2.795V77.3a4.928,4.928,0,0,1,.8-2.8,5.781,5.781,0,0,1,2.881-2,22.577,22.577,0,0,1,5.22-1.213,68.964,68.964,0,0,1,8.13-.4,73.152,73.152,0,0,1,8.378.4,18.926,18.926,0,0,1,5.128,1.2,5.787,5.787,0,0,1,2.61,1.991,5.033,5.033,0,0,1,.8,2.8V95.019a113.046,113.046,0,0,1,10.441-13.184,58.9,58.9,0,0,1,9.318-8.214,28.841,28.841,0,0,1,8.847-4.231,33.491,33.491,0,0,1,8.848-1.205q2.062,0,4.424.237a40.78,40.78,0,0,1,4.9.8,29.992,29.992,0,0,1,4.411,1.319,8.418,8.418,0,0,1,2.766,1.516,4.73,4.73,0,0,1,1.306,1.753,13.879,13.879,0,0,1,.717,2.637,39.939,39.939,0,0,1,.469,5.036Q265.307,84.789,265.307,90.536Z" transform="translate(-33.348 -7.219)" fill="#fff"/>
      <g transform="matrix(1, 0, 0, 1, -31.03, -24.32)" filter="url(#Path_5)">
        <path id="Path_5-3" data-name="Path 5" d="M265.307,90.536q0,5.748-.313,9.413a28.191,28.191,0,0,1-.953,5.748,5.536,5.536,0,0,1-1.657,2.874,4.07,4.07,0,0,1-2.61.8,8.472,8.472,0,0,1-2.844-.566c-1.045-.37-2.232-.765-3.55-1.186s-2.766-.83-4.346-1.205a22.889,22.889,0,0,0-5.22-.566,17.54,17.54,0,0,0-6.627,1.319,28.475,28.475,0,0,0-6.878,4.231,51.754,51.754,0,0,0-7.423,7.659,121.849,121.849,0,0,0-8.287,11.865v88.752a4.392,4.392,0,0,1-.953,2.795,7.014,7.014,0,0,1-3.237,2.009,28.245,28.245,0,0,1-6.081,1.186,115.967,115.967,0,0,1-19.288,0,28.245,28.245,0,0,1-6.081-1.186,6.945,6.945,0,0,1-3.237-2.009,4.392,4.392,0,0,1-.953-2.795V77.3a4.928,4.928,0,0,1,.8-2.8,5.781,5.781,0,0,1,2.881-2,22.577,22.577,0,0,1,5.22-1.213,68.964,68.964,0,0,1,8.13-.4,73.152,73.152,0,0,1,8.378.4,18.926,18.926,0,0,1,5.128,1.2,5.787,5.787,0,0,1,2.61,1.991,5.033,5.033,0,0,1,.8,2.8V95.019a113.046,113.046,0,0,1,10.441-13.184,58.9,58.9,0,0,1,9.318-8.214,28.841,28.841,0,0,1,8.847-4.231,33.491,33.491,0,0,1,8.848-1.205q2.062,0,4.424.237a40.78,40.78,0,0,1,4.9.8,29.992,29.992,0,0,1,4.411,1.319,8.418,8.418,0,0,1,2.766,1.516,4.73,4.73,0,0,1,1.306,1.753,13.879,13.879,0,0,1,.717,2.637,39.939,39.939,0,0,1,.469,5.036Q265.307,84.789,265.307,90.536Z" transform="translate(-2.32 17.1)" fill="#fff"/>
      </g>
      <path id="Path_5-4" data-name="Path 5" d="M265.307,90.536q0,5.748-.313,9.413a28.191,28.191,0,0,1-.953,5.748,5.536,5.536,0,0,1-1.657,2.874,4.07,4.07,0,0,1-2.61.8,8.472,8.472,0,0,1-2.844-.566c-1.045-.37-2.232-.765-3.55-1.186s-2.766-.83-4.346-1.205a22.889,22.889,0,0,0-5.22-.566,17.54,17.54,0,0,0-6.627,1.319,28.475,28.475,0,0,0-6.878,4.231,51.754,51.754,0,0,0-7.423,7.659,121.849,121.849,0,0,0-8.287,11.865v88.752a4.392,4.392,0,0,1-.953,2.795,7.014,7.014,0,0,1-3.237,2.009,28.245,28.245,0,0,1-6.081,1.186,115.967,115.967,0,0,1-19.288,0,28.245,28.245,0,0,1-6.081-1.186,6.945,6.945,0,0,1-3.237-2.009,4.392,4.392,0,0,1-.953-2.795V77.3a4.928,4.928,0,0,1,.8-2.8,5.781,5.781,0,0,1,2.881-2,22.577,22.577,0,0,1,5.22-1.213,68.964,68.964,0,0,1,8.13-.4,73.152,73.152,0,0,1,8.378.4,18.926,18.926,0,0,1,5.128,1.2,5.787,5.787,0,0,1,2.61,1.991,5.033,5.033,0,0,1,.8,2.8V95.019a113.046,113.046,0,0,1,10.441-13.184,58.9,58.9,0,0,1,9.318-8.214,28.841,28.841,0,0,1,8.847-4.231,33.491,33.491,0,0,1,8.848-1.205q2.062,0,4.424.237a40.78,40.78,0,0,1,4.9.8,29.992,29.992,0,0,1,4.411,1.319,8.418,8.418,0,0,1,2.766,1.516,4.73,4.73,0,0,1,1.306,1.753,13.879,13.879,0,0,1,.717,2.637,39.939,39.939,0,0,1,.469,5.036Q265.307,84.789,265.307,90.536Z" transform="translate(-33.348 -7.219)" fill="none" stroke="#1773e9" stroke-width="1.678"/>
    </g>
    <g data-type="innerShadowGroup">
      <path id="Path_6-2" data-name="Path 6" d="M46.1,203.267q0-5.715.325-9.382a29.351,29.351,0,0,1,.936-5.729,5.771,5.771,0,0,1,1.652-2.864,4.17,4.17,0,0,1,2.6-.789,8.669,8.669,0,0,1,2.835.552c1.054.368,2.237.775,3.551,1.2s2.757.814,4.318,1.2a23,23,0,0,0,5.2.552,17.285,17.285,0,0,0,6.619-1.314,27.664,27.664,0,0,0,6.841-4.218A50.314,50.314,0,0,0,88.39,174.8a123.623,123.623,0,0,0,8.272-11.825v-88.4a4.325,4.325,0,0,1,.949-2.785,6.908,6.908,0,0,1,3.225-1.985,27.061,27.061,0,0,1,6.048-1.13,95.922,95.922,0,0,1,9.6-.394q5.81,0,9.624.394a27.066,27.066,0,0,1,6.06,1.2,6.907,6.907,0,0,1,3.225,1.985,4.325,4.325,0,0,1,.949,2.785v141.9a4.952,4.952,0,0,1-.781,2.785,5.831,5.831,0,0,1-2.835,2,22.555,22.555,0,0,1-5.319,1.071,68.446,68.446,0,0,1-8.116.4,72.121,72.121,0,0,1-8.337-.4,18.924,18.924,0,0,1-5.124-1.182,5.924,5.924,0,0,1-2.6-2,4.952,4.952,0,0,1-.781-2.785V198.813a113.174,113.174,0,0,1-10.4,13.146,58.992,58.992,0,0,1-9.3,8.2,29.222,29.222,0,0,1-8.818,4.218,33.767,33.767,0,0,1-8.818,1.182c-1.3,0-2.835-.079-4.4-.237a42.41,42.41,0,0,1-4.89-.789,34.338,34.338,0,0,1-4.409-1.314,8.79,8.79,0,0,1-2.757-1.511,5.25,5.25,0,0,1-1.3-1.741,14.118,14.118,0,0,1-.7-2.627,41.862,41.862,0,0,1-.481-5Q46.1,209,46.1,203.267Z" transform="translate(0.293 -7.304)" fill="#fff"/>
      <g transform="matrix(1, 0, 0, 1, -31.03, -24.32)" filter="url(#Path_6)">
        <path id="Path_6-3" data-name="Path 6" d="M46.1,203.267q0-5.715.325-9.382a29.351,29.351,0,0,1,.936-5.729,5.771,5.771,0,0,1,1.652-2.864,4.17,4.17,0,0,1,2.6-.789,8.669,8.669,0,0,1,2.835.552c1.054.368,2.237.775,3.551,1.2s2.757.814,4.318,1.2a23,23,0,0,0,5.2.552,17.285,17.285,0,0,0,6.619-1.314,27.664,27.664,0,0,0,6.841-4.218A50.314,50.314,0,0,0,88.39,174.8a123.623,123.623,0,0,0,8.272-11.825v-88.4a4.325,4.325,0,0,1,.949-2.785,6.908,6.908,0,0,1,3.225-1.985,27.061,27.061,0,0,1,6.048-1.13,95.922,95.922,0,0,1,9.6-.394q5.81,0,9.624.394a27.066,27.066,0,0,1,6.06,1.2,6.907,6.907,0,0,1,3.225,1.985,4.325,4.325,0,0,1,.949,2.785v141.9a4.952,4.952,0,0,1-.781,2.785,5.831,5.831,0,0,1-2.835,2,22.555,22.555,0,0,1-5.319,1.071,68.446,68.446,0,0,1-8.116.4,72.121,72.121,0,0,1-8.337-.4,18.924,18.924,0,0,1-5.124-1.182,5.924,5.924,0,0,1-2.6-2,4.952,4.952,0,0,1-.781-2.785V198.813a113.174,113.174,0,0,1-10.4,13.146,58.992,58.992,0,0,1-9.3,8.2,29.222,29.222,0,0,1-8.818,4.218,33.767,33.767,0,0,1-8.818,1.182c-1.3,0-2.835-.079-4.4-.237a42.41,42.41,0,0,1-4.89-.789,34.338,34.338,0,0,1-4.409-1.314,8.79,8.79,0,0,1-2.757-1.511,5.25,5.25,0,0,1-1.3-1.741,14.118,14.118,0,0,1-.7-2.627,41.862,41.862,0,0,1-.481-5Q46.1,209,46.1,203.267Z" transform="translate(31.32 17.01)" fill="#fff"/>
      </g>
      <path id="Path_6-4" data-name="Path 6" d="M46.1,203.267q0-5.715.325-9.382a29.351,29.351,0,0,1,.936-5.729,5.771,5.771,0,0,1,1.652-2.864,4.17,4.17,0,0,1,2.6-.789,8.669,8.669,0,0,1,2.835.552c1.054.368,2.237.775,3.551,1.2s2.757.814,4.318,1.2a23,23,0,0,0,5.2.552,17.285,17.285,0,0,0,6.619-1.314,27.664,27.664,0,0,0,6.841-4.218A50.314,50.314,0,0,0,88.39,174.8a123.623,123.623,0,0,0,8.272-11.825v-88.4a4.325,4.325,0,0,1,.949-2.785,6.908,6.908,0,0,1,3.225-1.985,27.061,27.061,0,0,1,6.048-1.13,95.922,95.922,0,0,1,9.6-.394q5.81,0,9.624.394a27.066,27.066,0,0,1,6.06,1.2,6.907,6.907,0,0,1,3.225,1.985,4.325,4.325,0,0,1,.949,2.785v141.9a4.952,4.952,0,0,1-.781,2.785,5.831,5.831,0,0,1-2.835,2,22.555,22.555,0,0,1-5.319,1.071,68.446,68.446,0,0,1-8.116.4,72.121,72.121,0,0,1-8.337-.4,18.924,18.924,0,0,1-5.124-1.182,5.924,5.924,0,0,1-2.6-2,4.952,4.952,0,0,1-.781-2.785V198.813a113.174,113.174,0,0,1-10.4,13.146,58.992,58.992,0,0,1-9.3,8.2,29.222,29.222,0,0,1-8.818,4.218,33.767,33.767,0,0,1-8.818,1.182c-1.3,0-2.835-.079-4.4-.237a42.41,42.41,0,0,1-4.89-.789,34.338,34.338,0,0,1-4.409-1.314,8.79,8.79,0,0,1-2.757-1.511,5.25,5.25,0,0,1-1.3-1.741,14.118,14.118,0,0,1-.7-2.627,41.862,41.862,0,0,1-.481-5Q46.1,209,46.1,203.267Z" transform="translate(0.293 -7.304)" fill="none" stroke="#1771e6" stroke-width="1.678"/>
    </g>
    <g id="Group_21" data-name="Group 21" transform="translate(315 25.284)">
      <text id="research" transform="translate(0 84)" fill="#1771e5" font-size="65" font-family="Calibri-Bold, Calibri" font-weight="700"><tspan x="0" y="0">research</tspan><tspan x="0" y="85">rider</tspan></text>
    </g>
  </g>
</svg>
