<svg xmlns="http://www.w3.org/2000/svg" xmlns:xlink="http://www.w3.org/1999/xlink" width="407" height="255.04" viewBox="0 0 407 255.04">
  <defs>
    <linearGradient id="linear-gradient" x1="0.217" y1="0.115" x2="0.795" y2="0.914" gradientUnits="objectBoundingBox">
      <stop offset="0" stop-color="#1a7fff"/>
      <stop offset="1" stop-color="#166bda"/>
    </linearGradient>
    <filter id="Path_3" x="0" y="0" width="255.04" height="255.04" filterUnits="userSpaceOnUse">
      <feOffset dx="4" dy="8" input="SourceAlpha"/>
      <feGaussianBlur stdDeviation="7.5" result="blur"/>
      <feFlood flood-color="#0a3061" flood-opacity="0.471"/>
      <feComposite operator="in" in2="blur"/>
      <feComposite in="SourceGraphic"/>
    </filter>
    <filter id="Path_5" x="124.721" y="60" width="69.31" height="118.901" filterUnits="userSpaceOnUse">
      <feOffset dx="2" dy="3" input="SourceAlpha"/>
      <feGaussianBlur stdDeviation="4" result="blur-2"/>
      <feFlood flood-opacity="0.502" result="color"/>
      <feComposite operator="out" in="SourceGraphic" in2="blur-2"/>
      <feComposite operator="in" in="color"/>
      <feComposite operator="in" in2="SourceGraphic"/>
    </filter>
    <filter id="Path_6" x="53" y="60" width="69.087" height="118.451" filterUnits="userSpaceOnUse">
      <feOffset dx="2" dy="3" input="SourceAlpha"/>
      <feGaussianBlur stdDeviation="4" result="blur-3"/>
      <feFlood flood-opacity="0.502" result="color-2"/>
      <feComposite operator="out" in="SourceGraphic" in2="blur-3"/>
      <feComposite operator="in" in="color-2"/>
      <feComposite operator="in" in2="SourceGraphic"/>
    </filter>
  </defs>
  <g id="Group_19" data-name="Group 19" transform="translate(-279.5 -175.5)">
    <g id="Group_3" data-name="Group 3" transform="translate(-62.5 33.481)">
      <text id="research_rider" data-name="research
rider" transform="translate(607 257.019)" fill="#1771e5" font-size="40" font-family="Calibri-Bold, Calibri" font-weight="700"><tspan x="0" y="0">research</tspan><tspan x="0" y="49">rider</tspan></text>
      <line id="Line_1" data-name="Line 1" x1="1" y2="141" transform="translate(590.5 197.519)" fill="none" stroke="#1770e3" stroke-width="3"/>
    </g>
    <g id="Group_13" data-name="Group 13" transform="translate(0 -1)">
      <g transform="matrix(1, 0, 0, 1, 279.5, 176.5)" filter="url(#Path_3)">
        <path id="Path_3-2" data-name="Path 3" d="M215.08,110.082A105.02,105.02,0,1,1,110.071,4.94,105.02,105.02,0,0,1,215.08,110.082Z" transform="translate(13.46 9.56)" fill="url(#linear-gradient)"/>
      </g>
      <g data-type="innerShadowGroup">
        <path id="Path_5-2" data-name="Path 5" d="M172.489,57.338q0,4.293-.236,7.03a20.853,20.853,0,0,1-.719,4.293,4.125,4.125,0,0,1-1.25,2.146,3.092,3.092,0,0,1-1.969.6,6.449,6.449,0,0,1-2.146-.423c-.788-.276-1.684-.571-2.678-.886s-2.087-.62-3.279-.9a17.436,17.436,0,0,0-3.938-.423,13.351,13.351,0,0,0-5,.985,21.522,21.522,0,0,0-5.189,3.16,38.832,38.832,0,0,0-5.6,5.72,90.975,90.975,0,0,0-6.252,8.861v66.281a3.259,3.259,0,0,1-.719,2.087,5.3,5.3,0,0,1-2.442,1.5,21.5,21.5,0,0,1-4.588.886q-2.865.3-7.276.3t-7.276-.3a21.5,21.5,0,0,1-4.588-.886,5.248,5.248,0,0,1-2.442-1.5,3.259,3.259,0,0,1-.719-2.087V47.453a3.653,3.653,0,0,1,.6-2.087,4.362,4.362,0,0,1,2.176-1.5,17.181,17.181,0,0,1,3.938-.906,52.559,52.559,0,0,1,6.134-.3,55.746,55.746,0,0,1,6.321.3,14.4,14.4,0,0,1,3.869.9,4.361,4.361,0,0,1,1.969,1.487,3.731,3.731,0,0,1,.6,2.087V60.686a84.566,84.566,0,0,1,7.877-9.846,44.3,44.3,0,0,1,7.03-6.134,21.857,21.857,0,0,1,6.675-3.16,25.51,25.51,0,0,1,6.675-.9q1.556,0,3.338.177a31.054,31.054,0,0,1,3.7.6,22.8,22.8,0,0,1,3.328.985,6.37,6.37,0,0,1,2.087,1.132,3.535,3.535,0,0,1,.985,1.309,10.276,10.276,0,0,1,.541,1.969,29.537,29.537,0,0,1,.354,3.761Q172.489,53.046,172.489,57.338Z" transform="translate(300.542 196.35)" fill="#fff"/>
        <g transform="matrix(1, 0, 0, 1, 279.5, 176.5)" filter="url(#Path_5)">
          <path id="Path_5-3" data-name="Path 5" d="M172.489,57.338q0,4.293-.236,7.03a20.853,20.853,0,0,1-.719,4.293,4.125,4.125,0,0,1-1.25,2.146,3.092,3.092,0,0,1-1.969.6,6.449,6.449,0,0,1-2.146-.423c-.788-.276-1.684-.571-2.678-.886s-2.087-.62-3.279-.9a17.436,17.436,0,0,0-3.938-.423,13.351,13.351,0,0,0-5,.985,21.522,21.522,0,0,0-5.189,3.16,38.832,38.832,0,0,0-5.6,5.72,90.975,90.975,0,0,0-6.252,8.861v66.281a3.259,3.259,0,0,1-.719,2.087,5.3,5.3,0,0,1-2.442,1.5,21.5,21.5,0,0,1-4.588.886q-2.865.3-7.276.3t-7.276-.3a21.5,21.5,0,0,1-4.588-.886,5.248,5.248,0,0,1-2.442-1.5,3.259,3.259,0,0,1-.719-2.087V47.453a3.653,3.653,0,0,1,.6-2.087,4.362,4.362,0,0,1,2.176-1.5,17.181,17.181,0,0,1,3.938-.906,52.559,52.559,0,0,1,6.134-.3,55.746,55.746,0,0,1,6.321.3,14.4,14.4,0,0,1,3.869.9,4.361,4.361,0,0,1,1.969,1.487,3.731,3.731,0,0,1,.6,2.087V60.686a84.566,84.566,0,0,1,7.877-9.846,44.3,44.3,0,0,1,7.03-6.134,21.857,21.857,0,0,1,6.675-3.16,25.51,25.51,0,0,1,6.675-.9q1.556,0,3.338.177a31.054,31.054,0,0,1,3.7.6,22.8,22.8,0,0,1,3.328.985,6.37,6.37,0,0,1,2.087,1.132,3.535,3.535,0,0,1,.985,1.309,10.276,10.276,0,0,1,.541,1.969,29.537,29.537,0,0,1,.354,3.761Q172.489,53.046,172.489,57.338Z" transform="translate(21.04 19.85)" fill="#fff"/>
        </g>
        <path id="Path_5-4" data-name="Path 5" d="M172.489,57.338q0,4.293-.236,7.03a20.853,20.853,0,0,1-.719,4.293,4.125,4.125,0,0,1-1.25,2.146,3.092,3.092,0,0,1-1.969.6,6.449,6.449,0,0,1-2.146-.423c-.788-.276-1.684-.571-2.678-.886s-2.087-.62-3.279-.9a17.436,17.436,0,0,0-3.938-.423,13.351,13.351,0,0,0-5,.985,21.522,21.522,0,0,0-5.189,3.16,38.832,38.832,0,0,0-5.6,5.72,90.975,90.975,0,0,0-6.252,8.861v66.281a3.259,3.259,0,0,1-.719,2.087,5.3,5.3,0,0,1-2.442,1.5,21.5,21.5,0,0,1-4.588.886q-2.865.3-7.276.3t-7.276-.3a21.5,21.5,0,0,1-4.588-.886,5.248,5.248,0,0,1-2.442-1.5,3.259,3.259,0,0,1-.719-2.087V47.453a3.653,3.653,0,0,1,.6-2.087,4.362,4.362,0,0,1,2.176-1.5,17.181,17.181,0,0,1,3.938-.906,52.559,52.559,0,0,1,6.134-.3,55.746,55.746,0,0,1,6.321.3,14.4,14.4,0,0,1,3.869.9,4.361,4.361,0,0,1,1.969,1.487,3.731,3.731,0,0,1,.6,2.087V60.686a84.566,84.566,0,0,1,7.877-9.846,44.3,44.3,0,0,1,7.03-6.134,21.857,21.857,0,0,1,6.675-3.16,25.51,25.51,0,0,1,6.675-.9q1.556,0,3.338.177a31.054,31.054,0,0,1,3.7.6,22.8,22.8,0,0,1,3.328.985,6.37,6.37,0,0,1,2.087,1.132,3.535,3.535,0,0,1,.985,1.309,10.276,10.276,0,0,1,.541,1.969,29.537,29.537,0,0,1,.354,3.761Q172.489,53.046,172.489,57.338Z" transform="translate(300.542 196.35)" fill="none" stroke="#1773e9" stroke-width="1"/>
      </g>
      <g data-type="innerShadowGroup">
        <path id="Path_6-2" data-name="Path 6" d="M27.48,141.509q0-4.268.245-7.006a21.714,21.714,0,0,1,.706-4.278,4.3,4.3,0,0,1,1.246-2.139,3.169,3.169,0,0,1,1.962-.589,6.6,6.6,0,0,1,2.139.412c.795.275,1.688.579,2.679.893s2.08.608,3.258.893a17.524,17.524,0,0,0,3.925.412,13.157,13.157,0,0,0,4.994-.981,20.909,20.909,0,0,0,5.161-3.15,37.748,37.748,0,0,0,5.593-5.73,92.322,92.322,0,0,0,6.241-8.831V45.4a3.209,3.209,0,0,1,.716-2.08,5.22,5.22,0,0,1,2.433-1.482,20.606,20.606,0,0,1,4.563-.844Q76.2,40.7,80.583,40.7t7.261.294a20.605,20.605,0,0,1,4.572.893,5.22,5.22,0,0,1,2.433,1.482,3.209,3.209,0,0,1,.716,2.08V151.42a3.67,3.67,0,0,1-.589,2.08,4.4,4.4,0,0,1-2.139,1.491,17.171,17.171,0,0,1-4.013.8,52.158,52.158,0,0,1-6.123.3,54.956,54.956,0,0,1-6.29-.3,14.4,14.4,0,0,1-3.866-.883,4.465,4.465,0,0,1-1.962-1.491,3.67,3.67,0,0,1-.589-2.08V138.183A84.665,84.665,0,0,1,62.146,148a44.37,44.37,0,0,1-7.016,6.123,22.146,22.146,0,0,1-6.653,3.15,25.718,25.718,0,0,1-6.653.883c-.981,0-2.139-.059-3.316-.177a32.286,32.286,0,0,1-3.689-.589,26.1,26.1,0,0,1-3.326-.981,6.652,6.652,0,0,1-2.08-1.128,3.924,3.924,0,0,1-.981-1.3,10.459,10.459,0,0,1-.53-1.962,30.958,30.958,0,0,1-.363-3.738Q27.48,145.787,27.48,141.509Z" transform="translate(305.52 196.3)" fill="#fff"/>
        <g transform="matrix(1, 0, 0, 1, 279.5, 176.5)" filter="url(#Path_6)">
          <path id="Path_6-3" data-name="Path 6" d="M27.48,141.509q0-4.268.245-7.006a21.714,21.714,0,0,1,.706-4.278,4.3,4.3,0,0,1,1.246-2.139,3.169,3.169,0,0,1,1.962-.589,6.6,6.6,0,0,1,2.139.412c.795.275,1.688.579,2.679.893s2.08.608,3.258.893a17.524,17.524,0,0,0,3.925.412,13.157,13.157,0,0,0,4.994-.981,20.909,20.909,0,0,0,5.161-3.15,37.748,37.748,0,0,0,5.593-5.73,92.322,92.322,0,0,0,6.241-8.831V45.4a3.209,3.209,0,0,1,.716-2.08,5.22,5.22,0,0,1,2.433-1.482,20.606,20.606,0,0,1,4.563-.844Q76.2,40.7,80.583,40.7t7.261.294a20.605,20.605,0,0,1,4.572.893,5.22,5.22,0,0,1,2.433,1.482,3.209,3.209,0,0,1,.716,2.08V151.42a3.67,3.67,0,0,1-.589,2.08,4.4,4.4,0,0,1-2.139,1.491,17.171,17.171,0,0,1-4.013.8,52.158,52.158,0,0,1-6.123.3,54.956,54.956,0,0,1-6.29-.3,14.4,14.4,0,0,1-3.866-.883,4.465,4.465,0,0,1-1.962-1.491,3.67,3.67,0,0,1-.589-2.08V138.183A84.665,84.665,0,0,1,62.146,148a44.37,44.37,0,0,1-7.016,6.123,22.146,22.146,0,0,1-6.653,3.15,25.718,25.718,0,0,1-6.653.883c-.981,0-2.139-.059-3.316-.177a32.286,32.286,0,0,1-3.689-.589,26.1,26.1,0,0,1-3.326-.981,6.652,6.652,0,0,1-2.08-1.128,3.924,3.924,0,0,1-.981-1.3,10.459,10.459,0,0,1-.53-1.962,30.958,30.958,0,0,1-.363-3.738Q27.48,145.787,27.48,141.509Z" transform="translate(26.02 19.8)" fill="#fff"/>
        </g>
        <path id="Path_6-4" data-name="Path 6" d="M27.48,141.509q0-4.268.245-7.006a21.714,21.714,0,0,1,.706-4.278,4.3,4.3,0,0,1,1.246-2.139,3.169,3.169,0,0,1,1.962-.589,6.6,6.6,0,0,1,2.139.412c.795.275,1.688.579,2.679.893s2.08.608,3.258.893a17.524,17.524,0,0,0,3.925.412,13.157,13.157,0,0,0,4.994-.981,20.909,20.909,0,0,0,5.161-3.15,37.748,37.748,0,0,0,5.593-5.73,92.322,92.322,0,0,0,6.241-8.831V45.4a3.209,3.209,0,0,1,.716-2.08,5.22,5.22,0,0,1,2.433-1.482,20.606,20.606,0,0,1,4.563-.844Q76.2,40.7,80.583,40.7t7.261.294a20.605,20.605,0,0,1,4.572.893,5.22,5.22,0,0,1,2.433,1.482,3.209,3.209,0,0,1,.716,2.08V151.42a3.67,3.67,0,0,1-.589,2.08,4.4,4.4,0,0,1-2.139,1.491,17.171,17.171,0,0,1-4.013.8,52.158,52.158,0,0,1-6.123.3,54.956,54.956,0,0,1-6.29-.3,14.4,14.4,0,0,1-3.866-.883,4.465,4.465,0,0,1-1.962-1.491,3.67,3.67,0,0,1-.589-2.08V138.183A84.665,84.665,0,0,1,62.146,148a44.37,44.37,0,0,1-7.016,6.123,22.146,22.146,0,0,1-6.653,3.15,25.718,25.718,0,0,1-6.653.883c-.981,0-2.139-.059-3.316-.177a32.286,32.286,0,0,1-3.689-.589,26.1,26.1,0,0,1-3.326-.981,6.652,6.652,0,0,1-2.08-1.128,3.924,3.924,0,0,1-.981-1.3,10.459,10.459,0,0,1-.53-1.962,30.958,30.958,0,0,1-.363-3.738Q27.48,145.787,27.48,141.509Z" transform="translate(305.52 196.3)" fill="none" stroke="#1771e6" stroke-width="1"/>
      </g>
    </g>
  </g>
</svg>
