<svg id="Settings" xmlns="http://www.w3.org/2000/svg" width="37" height="37" viewBox="0 0 37 37">
  <g id="Ellipse_8" data-name="Ellipse 8" fill="#fff" stroke="#1876f2" stroke-width="2">
    <circle cx="18.5" cy="18.5" r="18.5" stroke="none"/>
    <circle cx="18.5" cy="18.5" r="17.5" fill="none"/>
  </g>
  <path id="Icon_material-settings" data-name="Icon material-settings" d="M21.047,13.98a6.709,6.709,0,0,0,0-1.96l2.169-1.65a.5.5,0,0,0,.123-.64L21.283,6.27a.524.524,0,0,0-.627-.22l-2.56,1a7.564,7.564,0,0,0-1.737-.98l-.391-2.65a.5.5,0,0,0-.5-.42H11.352a.5.5,0,0,0-.5.42l-.391,2.65a7.955,7.955,0,0,0-1.737.98l-2.56-1a.508.508,0,0,0-.627.22L3.477,9.73a.484.484,0,0,0,.123.64L5.77,12.02A7.718,7.718,0,0,0,5.7,13a7.718,7.718,0,0,0,.072.98L3.6,15.63a.5.5,0,0,0-.123.64l2.056,3.46a.524.524,0,0,0,.627.22l2.56-1a7.564,7.564,0,0,0,1.737.98l.391,2.65a.5.5,0,0,0,.5.42h4.112a.5.5,0,0,0,.5-.42l.391-2.65a7.955,7.955,0,0,0,1.737-.98l2.56,1a.508.508,0,0,0,.627-.22l2.056-3.46a.5.5,0,0,0-.123-.64l-2.169-1.65ZM13.408,16.5a3.5,3.5,0,1,1,3.6-3.5A3.554,3.554,0,0,1,13.408,16.5Z" transform="translate(5.594 6)" fill="#1876f2"/>
</svg>
